<svg width="661" height="661" viewBox="0 0 661 661" fill="none" xmlns="http://www.w3.org/2000/svg">
<path d="M330.23 660.46C512.611 660.46 660.46 512.611 660.46 330.23C660.46 147.849 512.611 0 330.23 0C147.849 0 0 147.849 0 330.23C0 512.611 147.849 660.46 330.23 660.46Z" fill="#00204E"/>
<path d="M330.23 631.78C270.589 631.781 212.286 614.096 162.696 580.961C113.105 547.826 74.4544 500.73 51.6305 445.629C28.8066 390.527 22.8349 329.895 34.4706 271.399C46.1063 212.904 74.8268 159.173 117 117C173.552 60.4479 250.253 28.6772 330.23 28.6772C410.207 28.6772 486.908 60.4479 543.46 117C600.012 173.552 631.783 250.253 631.783 330.23C631.783 410.207 600.012 486.908 543.46 543.46C515.524 571.55 482.293 593.82 445.692 608.98C409.091 624.14 369.846 631.89 330.23 631.78Z" fill="#00204E"/>
<path d="M330.23 34.6801C493.46 34.6801 625.78 167 625.78 330.23C625.78 493.46 493.46 625.78 330.23 625.78C167 625.78 34.68 493.46 34.68 330.23C34.68 167 167 34.6801 330.23 34.6801ZM330.23 22.6801C259.277 22.7229 190.52 47.2909 135.607 92.2224C80.693 137.154 42.9994 199.686 28.9108 269.226C14.8222 338.767 25.205 411.039 58.3003 473.801C91.3956 536.563 145.169 585.955 210.51 613.61C285.667 645.368 370.362 645.97 445.962 615.283C521.563 584.595 581.877 525.132 613.635 449.975C645.393 374.818 645.995 290.123 615.307 214.523C584.62 138.922 525.157 78.6084 450 46.8501C412.11 30.8158 371.373 22.595 330.23 22.6801Z" fill="white"/>
<path d="M72.89 387.31C69.1901 382.937 66.3472 377.906 64.51 372.48C62.606 368.017 61.6295 363.213 61.64 358.36V298.43C61.6405 293.617 62.6168 288.855 64.51 284.43C66.3494 279.005 69.1921 273.975 72.89 269.6L73.3 269.19C78.4084 264.211 84.5553 260.424 91.3 258.1C95.8018 256.211 100.638 255.249 105.52 255.27H151.35C156.227 255.263 161.058 256.225 165.56 258.1C172.268 260.439 178.379 264.225 183.46 269.19L183.87 269.6C187.581 273.876 190.399 278.85 192.16 284.23C192.625 285.606 192.96 287.022 193.16 288.46L194.9 297.75H169L167.06 292.5C166.284 290.242 165.142 288.127 163.68 286.24C160.146 283.461 155.805 281.906 151.31 281.81H104.5C102.378 281.757 100.268 282.13 98.2926 282.907C96.3175 283.683 94.5179 284.847 93 286.33C90.1577 289.729 88.569 294 88.5 298.43V358.36C88.5569 362.825 90.1454 367.136 93 370.57C94.5128 372.05 96.3054 373.214 98.2731 373.993C100.241 374.773 102.344 375.153 104.46 375.11H151.31C155.822 375.005 160.171 373.408 163.68 370.57C165.104 368.694 166.243 366.619 167.06 364.41L169 359.07H194.78L193.14 368.35C192.941 369.749 192.634 371.129 192.22 372.48C190.429 377.929 187.578 382.969 183.83 387.31C182.998 388.21 182.11 389.055 181.17 389.84C176.536 393.756 171.235 396.804 165.52 398.84C161.015 400.707 156.186 401.666 151.31 401.66H105.52C100.639 401.68 95.8039 400.721 91.3 398.84C84.5566 396.509 78.4105 392.719 73.3 387.74L72.89 387.31Z" fill="white"/>
<path d="M282.68 401.54C281.8 401.61 281.22 401.64 280.94 401.64H251C231.907 401.64 218.44 392.393 210.6 373.9H210.5C209.82 371.95 209.25 370.23 208.81 368.75C208.37 367.27 207.99 365.75 207.69 364.26C207.4 362.946 207.243 361.606 207.22 360.26H212.29C215.12 360.26 218.2 360.26 221.55 360.26C224.9 360.26 229.11 360.21 234.23 360.21L236.23 365.15C236.37 365.49 236.54 365.92 236.75 366.46C237.142 367.788 237.707 369.059 238.43 370.24C239.416 371.735 240.802 372.924 242.43 373.67C244.337 374.65 247.167 375.14 250.92 375.14H280.92C281.886 375.164 282.851 375.06 283.79 374.83L285.73 374.53C286.009 374.445 286.282 374.344 286.55 374.23C286.89 374.1 287.2 373.96 287.47 373.83L288.6 373.42C290.291 372.605 291.899 371.627 293.4 370.5L293.71 370.09C295.847 367.746 297.173 364.776 297.49 361.62L297.7 360.71C297.77 359.9 297.8 359.13 297.8 358.39C297.8 357.65 297.8 357.01 297.7 356.27C297.498 354.659 297.14 353.071 296.63 351.53C296.007 349.664 294.983 347.958 293.63 346.53C290.017 343.562 285.514 341.889 280.84 341.78H251C242.62 341.78 236.263 340.553 231.93 338.1C228.431 336.258 225.209 333.932 222.36 331.19L221.44 330.38C221.052 330.142 220.713 329.834 220.44 329.47C216.406 325.785 213.19 321.295 211 316.29C208.483 310.673 207.191 304.585 207.21 298.43C207.21 297.16 207.21 295.88 207.32 294.6C208.049 286.241 211.212 278.279 216.42 271.7L217.14 270.89L217.24 270.79C217.24 270.72 217.24 270.69 217.34 270.69L218.98 268.87C219.748 268.046 220.566 267.272 221.43 266.55C225.208 262.81 229.743 259.922 234.73 258.08C239.944 256.185 245.452 255.227 251 255.25H281C281.48 255.25 282.06 255.25 282.74 255.35C287.636 255.92 292.432 257.148 297 259C299.43 259.901 301.79 260.98 304.06 262.23L305.49 263.04C308.266 264.8 310.839 266.863 313.16 269.19L313.27 269.3H313.57L316.03 272.73L316.13 272.83V272.93L317.36 274.74C319.241 277.708 320.753 280.895 321.86 284.23C322.13 285.23 322.33 286.11 322.47 286.85L324.82 296.43L297.82 296.53L295.77 291.53C295.151 290.466 294.434 289.462 293.63 288.53C292.163 286.78 290.437 285.266 288.51 284.04C286.26 282.579 283.623 281.826 280.94 281.88H251C248.003 281.805 245.028 282.424 242.31 283.69C241.845 283.884 241.4 284.122 240.98 284.4C240.79 284.506 240.618 284.641 240.47 284.8L239.96 285.2L239.75 285.41C239.711 285.411 239.673 285.42 239.639 285.437C239.604 285.455 239.574 285.479 239.55 285.51C239.14 285.84 238.83 286.11 238.63 286.31L238.52 286.42L238.22 286.82C236.609 288.314 235.323 290.124 234.442 292.137C233.561 294.15 233.104 296.323 233.1 298.52C233.09 299.989 233.299 301.452 233.72 302.86C234.593 305.889 236.293 308.615 238.63 310.73C241.563 313.763 245.687 315.277 251 315.27H280.87C291.643 315.27 301.53 319.037 310.53 326.57L310.84 326.87C310.84 326.94 310.91 327.01 311.05 327.07C311.112 327.141 311.178 327.208 311.25 327.27C315.369 330.974 318.649 335.515 320.87 340.59C321.912 342.941 322.765 345.373 323.42 347.86C325.818 357.35 324.956 367.37 320.97 376.31C319.67 379.222 318.022 381.966 316.06 384.48C314.461 386.612 312.645 388.573 310.64 390.33C309.21 391.41 308.01 392.25 307.06 392.85C306.11 393.45 305.22 394.06 304.19 394.67C301.838 395.922 299.413 397.034 296.93 398C292.353 399.789 287.563 400.979 282.68 401.54Z" fill="white"/>
<path d="M412.59 401.54C411.7 401.61 411.12 401.64 410.85 401.64H380.85C361.75 401.64 348.283 392.393 340.45 373.9H340.34C339.673 371.953 339.113 370.237 338.66 368.75C338.21 367.27 337.84 365.75 337.53 364.26C337.243 362.945 337.089 361.605 337.07 360.26H342.13C344.957 360.26 348.043 360.26 351.39 360.26C354.737 360.26 358.963 360.243 364.07 360.21L366.07 365.15C366.2 365.49 366.38 365.92 366.58 366.46C366.972 367.79 367.54 369.061 368.27 370.24C369.253 371.738 370.64 372.927 372.27 373.67C374.183 374.65 377.013 375.14 380.76 375.14H410.76C411.723 375.164 412.685 375.06 413.62 374.83L415.62 374.53C415.82 374.47 416.09 374.37 416.43 374.23C416.77 374.1 417.08 373.96 417.36 373.83L418.48 373.42C420.175 372.605 421.786 371.627 423.29 370.5L423.59 370.09C425.735 367.75 427.064 364.778 427.38 361.62L427.58 360.71C427.65 359.9 427.69 359.13 427.69 358.39C427.69 357.65 427.69 357.01 427.58 356.27C427.388 354.657 427.03 353.069 426.51 351.53C425.891 349.662 424.867 347.955 423.51 346.53C419.35 343.363 415.09 341.78 410.73 341.78H380.88C372.493 341.78 366.133 340.553 361.8 338.1C358.302 336.261 355.084 333.934 352.24 331.19L351.32 330.38C350.931 330.145 350.591 329.836 350.32 329.47C346.308 325.8 343.104 321.335 340.91 316.36C338.397 310.742 337.108 304.654 337.13 298.5C337.13 297.23 337.13 295.95 337.23 294.67C337.955 286.308 341.123 278.345 346.34 271.77L347.05 270.96L347.15 270.86C347.15 270.79 347.15 270.76 347.26 270.76L348.89 268.94C349.659 268.114 350.481 267.339 351.35 266.62C355.123 262.878 359.655 259.99 364.64 258.15C369.855 256.257 375.362 255.299 380.91 255.32H410.91C411.38 255.32 411.91 255.32 412.65 255.42C417.542 255.97 422.338 257.174 426.91 259C429.339 259.903 431.699 260.982 433.97 262.23L435.4 263.04C438.176 264.8 440.749 266.863 443.07 269.19L443.17 269.3H443.48L445.93 272.73L446.03 272.83V272.93L447.26 274.74C449.142 277.708 450.653 280.895 451.76 284.23C452.03 285.23 452.24 286.11 452.38 286.85L454.73 296.43L427.73 296.53L425.68 291.53C425.06 290.464 424.34 289.46 423.53 288.53C422.067 286.78 420.344 285.265 418.42 284.04C416.168 282.582 413.532 281.829 410.85 281.88H380.85C377.849 281.806 374.872 282.425 372.15 283.69C371.686 283.886 371.241 284.124 370.82 284.4C370.634 284.511 370.463 284.646 370.31 284.8L369.8 285.2L369.6 285.41C369.56 285.411 369.521 285.421 369.485 285.438C369.448 285.455 369.416 285.48 369.39 285.51C368.98 285.84 368.68 286.11 368.47 286.31L368.37 286.42L368.06 286.82C366.447 288.312 365.161 290.122 364.282 292.136C363.402 294.149 362.949 296.323 362.95 298.52C362.937 299.989 363.142 301.452 363.56 302.86C364.436 305.888 366.135 308.612 368.47 310.73C371.397 313.763 375.523 315.277 380.85 315.27H410.72C421.487 315.27 431.373 319.037 440.38 326.57L440.69 326.87C440.69 326.94 440.75 327.01 440.89 327.07L441.1 327.27C445.216 330.974 448.493 335.516 450.71 340.59C451.751 342.943 452.607 345.374 453.27 347.86C454.141 351.323 454.588 354.879 454.6 358.45C454.618 364.605 453.326 370.693 450.81 376.31C449.514 379.224 447.865 381.968 445.9 384.48C444.304 386.615 442.487 388.575 440.48 390.33C439.053 391.41 437.86 392.25 436.9 392.85C436.01 393.46 435.06 394.06 434.04 394.67C431.686 395.918 429.262 397.03 426.78 398C422.222 399.784 417.452 400.974 412.59 401.54Z" fill="white"/>
<path d="M478.25 387.31C474.55 382.937 471.707 377.906 469.87 372.48C467.966 368.017 466.99 363.213 467 358.36V298.43C467.001 293.617 467.977 288.855 469.87 284.43C471.71 279.005 474.552 273.975 478.25 269.6L478.66 269.19C483.769 264.212 489.916 260.425 496.66 258.1C501.159 256.212 505.991 255.25 510.87 255.27H556.7C561.581 255.263 566.414 256.225 570.92 258.1C577.627 260.441 583.738 264.227 588.82 269.19L589.23 269.6C592.934 273.879 595.749 278.852 597.51 284.23C597.975 285.606 598.31 287.022 598.51 288.46L600.25 297.75H574.4L572.46 292.5C571.684 290.245 570.545 288.13 569.09 286.24C565.553 283.46 561.208 281.906 556.71 281.81H509.86C507.744 281.765 505.64 282.144 503.672 282.924C501.704 283.703 499.912 284.868 498.4 286.35C495.558 289.749 493.969 294.02 493.9 298.45V358.38C493.957 362.845 495.546 367.156 498.4 370.59C499.913 372.07 501.706 373.234 503.673 374.013C505.641 374.793 507.744 375.173 509.86 375.13H556.71C561.225 375.024 565.578 373.428 569.09 370.59C570.507 368.712 571.643 366.637 572.46 364.43L574.4 359.09H600.18L598.54 368.37C598.341 369.769 598.034 371.149 597.62 372.5C595.829 377.946 592.981 382.986 589.24 387.33C588.404 388.225 587.516 389.07 586.58 389.86C581.945 393.773 576.644 396.822 570.93 398.86C566.422 400.729 561.59 401.687 556.71 401.68H510.88C506.003 401.699 501.171 400.74 496.67 398.86C489.927 396.528 483.781 392.738 478.67 387.76L478.25 387.31Z" fill="white"/>
<path d="M310.5 224.61C310.55 226.43 310.185 228.237 309.433 229.895C308.681 231.553 307.562 233.018 306.16 234.18C303.73 236.562 300.463 237.896 297.06 237.896C293.657 237.896 290.39 236.562 287.96 234.18C286.558 233.018 285.439 231.553 284.687 229.895C283.935 228.237 283.57 226.43 283.62 224.61V203.94H289.54V224.61C289.584 226.511 290.333 228.329 291.64 229.71C292.305 230.496 293.138 231.123 294.078 231.543C295.018 231.964 296.041 232.168 297.07 232.14C298.085 232.187 299.098 231.996 300.027 231.583C300.956 231.17 301.775 230.546 302.42 229.76C303.648 228.323 304.331 226.5 304.35 224.61V203.94H310.5V224.61Z" fill="white"/>
<path d="M329.94 237.42H323.79V210H313.31V203.93H340.19V210H329.94V237.42Z" fill="white"/>
<path d="M362 223.71H359.22L349.11 212.84V237.42H343V203.82H348.61L360.66 216.82L372.83 203.82H378.3V237.42H372.38V212.64L362 223.71Z" fill="white"/>
<path d="M154.4 202.71C153.192 202.739 151.991 202.535 150.86 202.11C149.881 201.825 148.97 201.345 148.18 200.7L138.39 192.7C137.604 192.059 136.954 191.267 136.48 190.37C135.843 189.344 135.402 188.208 135.18 187.02V186.9C135.044 185.405 135.242 183.899 135.76 182.49C136.05 181.503 136.536 180.584 137.19 179.79L143.28 172.31C143.929 171.496 144.731 170.817 145.64 170.31C146.913 169.525 148.344 169.034 149.83 168.87H149.95C151.141 168.834 152.327 169.034 153.44 169.46C153.727 169.571 154.004 169.705 154.27 169.86L156.01 170.86L152.57 175.09L151.46 174.71C150.989 174.534 150.492 174.439 149.99 174.43C149.065 174.634 148.232 175.136 147.62 175.86L141.38 183.51C140.804 184.198 140.524 185.086 140.6 185.98C140.782 186.897 141.268 187.725 141.98 188.33L151.77 196.33C152.506 196.915 153.42 197.229 154.36 197.22C154.802 197.168 155.229 197.029 155.617 196.811C156.005 196.593 156.346 196.3 156.62 195.95L162.85 188.3C163.438 187.553 163.758 186.63 163.76 185.68C163.644 185.197 163.455 184.735 163.2 184.31L162.59 183.31L166.02 179.1L167.31 180.6C167.516 180.817 167.703 181.051 167.87 181.3C168.52 182.316 168.962 183.452 169.17 184.64C169.207 184.895 169.227 185.152 169.23 185.41C169.252 186.686 169.046 187.956 168.62 189.16C168.326 190.145 167.84 191.063 167.19 191.86L161.09 199.34C160.447 200.155 159.648 200.835 158.74 201.34C157.463 202.133 156.024 202.632 154.53 202.8L154.4 202.71Z" fill="white"/>
<path d="M177.35 146.7C177.978 147.07 178.564 147.506 179.1 148L179.19 148.06L188.84 158.47C188.944 158.585 189.038 158.709 189.12 158.84C189.468 159.274 189.769 159.743 190.02 160.24C190.527 161.344 190.812 162.536 190.86 163.75C190.862 164.011 190.842 164.272 190.8 164.53C190.656 165.801 190.272 167.032 189.67 168.16C189.249 169.098 188.644 169.941 187.89 170.64L180.82 177.21C180.071 177.914 179.186 178.458 178.22 178.81C176.846 179.42 175.353 179.717 173.85 179.68H173.75C172.549 179.546 171.387 179.175 170.33 178.59C169.394 178.176 168.553 177.573 167.86 176.82L159.27 167.58C158.573 166.839 158.038 165.96 157.7 165C157.201 163.901 156.916 162.716 156.86 161.51V161.4C156.941 159.901 157.347 158.437 158.05 157.11C158.475 156.175 159.08 155.332 159.83 154.63L166.9 148.06C167.656 147.365 168.539 146.822 169.5 146.46C170.875 145.853 172.367 145.556 173.87 145.59H174C175.179 145.735 176.318 146.113 177.35 146.7ZM184.67 162.06L175.24 151.92C174.926 151.636 174.558 151.418 174.159 151.278C173.759 151.138 173.336 151.079 172.913 151.104C172.491 151.129 172.078 151.238 171.698 151.425C171.318 151.611 170.978 151.871 170.7 152.19L163.47 158.91C163.142 159.207 162.877 159.566 162.688 159.965C162.499 160.365 162.391 160.798 162.37 161.24C162.407 162.166 162.76 163.052 163.37 163.75L172 173C172.643 173.678 173.502 174.11 174.43 174.22C174.874 174.239 175.317 174.168 175.733 174.012C176.149 173.856 176.529 173.617 176.85 173.31L184.07 166.59C184.754 165.927 185.198 165.054 185.33 164.11C185.284 163.382 185.058 162.678 184.67 162.06Z" fill="white"/>
<path d="M202.91 143.12L200.8 144.57L187.46 141.57L200.26 160.23L195.59 163.44L178.09 137.92L182.35 135L198.26 138.57L200.74 122.39L204.9 119.54L222.4 145.05L217.9 148.14L205 129.33L202.91 143.12Z" fill="white"/>
<path d="M236.87 120.39C236.545 121.602 235.958 122.729 235.15 123.69C234.386 124.791 233.353 125.679 232.15 126.27L223.15 130.76L228.77 142.06L223.89 144.49L210.16 116.89L224.09 110C225.213 109.458 226.434 109.149 227.68 109.09C229.989 109.082 232.238 109.822 234.09 111.2C235.043 111.975 235.826 112.938 236.39 114.03C236.914 115.045 237.252 116.146 237.39 117.28V117.38C237.413 118.407 237.237 119.43 236.87 120.39ZM231.62 119.25C231.831 118.335 231.725 117.376 231.32 116.53C230.88 115.699 230.177 115.037 229.32 114.65C228.393 114.458 227.428 114.57 226.57 114.97L217.57 119.46L220.7 125.76L229.7 121.27C230.545 120.827 231.22 120.116 231.62 119.25Z" fill="white"/>
<path d="M267 113.42C267.606 114.982 267.846 116.661 267.704 118.33C267.562 119.999 267.041 121.613 266.18 123.05C264.798 125.861 262.372 128.02 259.42 129.066C256.468 130.112 253.224 129.963 250.38 128.65C248.801 128.073 247.375 127.143 246.212 125.929C245.049 124.716 244.179 123.252 243.67 121.65L237.31 103.71L242.45 101.89L248.81 119.83C249.435 121.465 250.642 122.812 252.2 123.61C253.02 124.086 253.936 124.372 254.881 124.446C255.826 124.52 256.776 124.382 257.66 124.04C258.555 123.77 259.374 123.295 260.053 122.653C260.732 122.011 261.252 121.219 261.57 120.34C262.198 118.717 262.23 116.924 261.66 115.28L255.3 97.2799L260.65 95.3899L267 113.42Z" fill="white"/>
<path d="M287.57 120.75L282 122L276.55 97.3499L267.13 99.4299L266 93.9999L290.17 88.6599L291.38 94.1199L282.16 96.1199L287.57 120.75Z" fill="white"/>
<path d="M298.48 118.45L295.59 87.7599L320.23 85.4399L320.76 91.0099L301.76 92.7899L302.42 99.7899L318.29 98.2999L318.82 103.87L302.95 105.36L303.6 112.36L322.6 110.57L323.12 116.14L298.48 118.45Z" fill="white"/>
<path d="M352.25 117L345.52 116.76L337 103.81L330.91 103.59L330.45 116.21L324.79 116L325.9 85.1899L341.61 85.7499C342.795 85.8079 343.954 86.1182 345.01 86.6599C346.138 87.0998 347.136 87.819 347.91 88.7499C348.688 89.5493 349.324 90.476 349.79 91.4899L349.87 91.7099C350.208 92.8309 350.356 94.0002 350.31 95.1699C350.273 96.3058 350.036 97.4263 349.61 98.4799C349.167 99.4027 348.591 100.255 347.9 101.01C346.705 102.274 345.176 103.172 343.49 103.6L352.25 117ZM341.13 98.3699C341.576 98.3984 342.023 98.3359 342.444 98.1864C342.865 98.0368 343.252 97.8033 343.58 97.4999C343.957 97.1914 344.264 96.8057 344.48 96.3686C344.695 95.9316 344.814 95.4534 344.83 94.9663C344.845 94.4793 344.755 93.9946 344.567 93.545C344.379 93.0954 344.097 92.6913 343.74 92.3599C343.438 92.0386 343.072 91.7838 342.665 91.6116C342.259 91.4395 341.821 91.3538 341.38 91.3599L331.33 90.9999L331.08 97.9999L341.13 98.3699Z" fill="white"/>
<path d="M380 122L379.64 121.94L373.47 120.6C369.537 119.753 367.177 117.247 366.39 113.08C366.34 112.65 366.3 112.27 366.28 111.94C366.26 111.61 366.28 111.29 366.28 110.94C366.285 110.658 366.315 110.377 366.37 110.1L367.37 110.33L369.28 110.73L371.89 111.29L372.09 112.39C372.09 112.47 372.09 112.57 372.14 112.69C372.157 112.98 372.214 113.266 372.31 113.54C372.451 113.893 372.686 114.201 372.99 114.43C373.493 114.777 374.067 115.009 374.67 115.11L380.84 116.45C381.04 116.496 381.245 116.517 381.45 116.51H381.86H382.04H382.25H382.5C382.886 116.419 383.261 116.288 383.62 116.12L383.7 116.05C384.243 115.663 384.649 115.113 384.86 114.48L384.94 114.3C384.988 114.146 385.028 113.989 385.06 113.83C385.06 113.69 385.12 113.54 385.14 113.38C385.173 113.048 385.173 112.713 385.14 112.38C385.096 111.965 384.96 111.565 384.74 111.21C384.129 110.437 383.277 109.891 382.32 109.66L376.18 108.33C374.813 108.11 373.522 107.557 372.42 106.72C371.78 106.183 371.221 105.557 370.76 104.86L370.6 104.66C370.532 104.592 370.475 104.514 370.43 104.43C369.773 103.492 369.314 102.431 369.08 101.31C368.81 100.041 368.81 98.7291 369.08 97.46C369.14 97.2 369.2 96.94 369.28 96.68C369.577 95.6995 370.044 94.7788 370.66 93.96C371.098 93.3718 371.605 92.8381 372.17 92.37L372.36 92.24L372.78 91.94C372.973 91.8084 373.173 91.6882 373.38 91.58C374.325 90.9757 375.389 90.5834 376.5 90.43C377.656 90.2719 378.831 90.3193 379.97 90.57L386.14 91.91L386.49 92.01C387.479 92.3431 388.418 92.8108 389.28 93.4C389.744 93.6964 390.182 94.0309 390.59 94.4L390.85 94.63C391.34 95.1181 391.776 95.6579 392.15 96.24H392.21L392.56 97.05L392.73 97.48C392.987 98.1733 393.158 98.8953 393.24 99.63C393.24 99.85 393.24 100.04 393.24 100.2L393.29 102.28L387.73 101.09L387.53 99.96C387.454 99.7106 387.354 99.4694 387.23 99.24C387.005 98.8167 386.719 98.4291 386.38 98.09C385.98 97.6859 385.468 97.4108 384.91 97.3L378.75 95.96C378.135 95.8149 377.495 95.8149 376.88 95.96L376.57 96.04L376.45 96.1L376.32 96.16H376.27L376.04 96.28L375.95 96.35C375.552 96.5854 375.207 96.9006 374.937 97.2757C374.667 97.6509 374.477 98.078 374.38 98.53C374.313 98.8317 374.289 99.1416 374.31 99.45C374.357 100.112 374.585 100.749 374.97 101.29C375.237 101.685 375.582 102.02 375.985 102.275C376.388 102.53 376.839 102.698 377.31 102.77L383.46 104.11C385.706 104.611 387.695 105.907 389.06 107.76L389.11 107.84C389.786 108.789 390.256 109.869 390.49 111.01C390.598 111.541 390.665 112.079 390.69 112.62C390.715 113.372 390.648 114.124 390.49 114.86C390.268 116.168 389.759 117.411 389 118.5C388.604 119.04 388.144 119.53 387.63 119.96C387.202 120.336 386.74 120.67 386.25 120.96C385.91 121.12 385.62 121.24 385.4 121.32L384.73 121.56C384.191 121.712 383.643 121.832 383.09 121.92C382.068 122.079 381.029 122.106 380 122Z" fill="white"/>
<path d="M393.5 122.22C393.066 121.091 392.859 119.889 392.89 118.68C392.832 117.661 392.978 116.641 393.32 115.68L397.57 103.79C397.916 102.834 398.45 101.957 399.14 101.21C399.883 100.262 400.803 99.4669 401.85 98.87L401.94 98.81C403.31 98.1928 404.797 97.879 406.3 97.89C407.32 97.8404 408.339 97.9933 409.3 98.34L418.39 101.59C419.355 101.932 420.242 102.462 421 103.15C422.175 104.09 423.127 105.279 423.79 106.63L423.84 106.74C424.271 107.852 424.478 109.038 424.45 110.23C424.45 110.54 424.39 110.84 424.35 111.14L424.03 113.14L418.88 111.29V110.12C418.872 109.618 418.795 109.12 418.65 108.64C418.146 107.829 417.386 107.21 416.49 106.88L407.2 103.55C406.786 103.395 406.346 103.324 405.905 103.341C405.464 103.358 405.03 103.463 404.63 103.65C403.825 104.122 403.208 104.857 402.88 105.73L398.63 117.61C398.307 118.495 398.307 119.465 398.63 120.35C398.82 120.749 399.087 121.105 399.417 121.399C399.747 121.693 400.132 121.917 400.55 122.06L409.84 125.38C410.747 125.69 411.732 125.69 412.64 125.38C413.055 125.1 413.429 124.764 413.75 124.38L414.49 123.45L419.62 125.28L418.62 127.01C418.471 127.268 418.304 127.515 418.12 127.75C417.393 128.711 416.478 129.514 415.43 130.11C415.15 130.23 414.91 130.34 414.7 130.41C413.506 130.866 412.238 131.093 410.96 131.08C409.94 131.136 408.919 130.983 407.96 130.63L398.88 127.38C397.909 127.041 397.017 126.507 396.26 125.81C395.087 124.872 394.134 123.687 393.47 122.34L393.5 122.22Z" fill="white"/>
<path d="M436.32 109.24L423.46 137.24L418.31 134.88L431.17 106.88L436.32 109.24Z" fill="white"/>
<path d="M425.41 137.83L440.41 110.92L462.06 123L459.33 127.88L442.67 118.56L439.24 124.7L453.15 132.48L450.43 137.36L436.51 129.58L433.08 135.72L449.74 145L447 149.91L425.41 137.83Z" fill="white"/>
<path d="M487.16 141L468.91 165.82L464.23 162.43L465.65 137L453 154.17L448.43 150.81L466.71 126L471.5 129.53L470.1 154.68L482.59 137.68L487.16 141Z" fill="white"/>
<path d="M474 166.31C474.065 165.102 474.371 163.918 474.9 162.83C475.262 161.876 475.813 161.005 476.52 160.27L485.28 151.18C485.98 150.446 486.825 149.864 487.76 149.47C488.828 148.91 489.998 148.569 491.2 148.47H491.3C492.805 148.466 494.293 148.79 495.66 149.42C496.615 149.794 497.488 150.351 498.23 151.06L505.18 157.76C505.925 158.466 506.517 159.317 506.92 160.26C507.609 161.595 507.988 163.068 508.03 164.57V164.7C507.964 165.89 507.665 167.055 507.15 168.13C507 168.4 506.85 168.66 506.68 168.92L505.59 170.58L501.65 166.78L502.14 165.72C502.337 165.26 502.471 164.776 502.54 164.28C502.409 163.332 501.97 162.454 501.29 161.78L494.19 154.94C493.879 154.622 493.507 154.37 493.096 154.198C492.686 154.026 492.245 153.939 491.8 153.94C490.872 154.04 490.007 154.457 489.35 155.12L480.6 164.21C479.953 164.894 479.565 165.781 479.5 166.72C479.509 167.163 479.607 167.6 479.789 168.004C479.972 168.407 480.234 168.77 480.56 169.07L487.66 175.91C488.363 176.562 489.264 176.96 490.22 177.04C490.71 176.968 491.186 176.819 491.63 176.6L492.69 176.06L496.62 179.84L495 181C494.756 181.175 494.503 181.335 494.24 181.48C493.179 182.04 492.016 182.38 490.82 182.48C490.52 182.48 490.26 182.48 490.03 182.48C488.756 182.404 487.507 182.089 486.35 181.55C485.392 181.181 484.518 180.623 483.78 179.91L476.78 173.21C476.041 172.499 475.45 171.649 475.04 170.71C474.367 169.369 473.988 167.899 473.93 166.4L474 166.31Z" fill="white"/>
<path d="M491.46 187.59L515.56 168.37L531 187.72L526.64 191.2L514.73 176.28L509.24 180.67L519.18 193.13L514.81 196.61L504.87 184.15L499.37 188.54L511.27 203.46L506.9 206.94L491.46 187.59Z" fill="white"/>
<path d="M154.4 202.71C153.192 202.739 151.991 202.535 150.86 202.11C149.881 201.825 148.97 201.345 148.18 200.7L138.39 192.7C137.604 192.059 136.954 191.267 136.48 190.37C135.838 189.346 135.397 188.209 135.18 187.02V186.9C135.04 185.405 135.238 183.898 135.76 182.49C136.05 181.503 136.536 180.584 137.19 179.79L143.28 172.31C143.929 171.496 144.731 170.817 145.64 170.31C146.913 169.525 148.344 169.034 149.83 168.87H149.95C151.142 168.832 152.329 169.036 153.44 169.47C153.728 169.573 154.006 169.704 154.27 169.86L156.01 170.86L152.57 175.09L151.46 174.71C150.99 174.534 150.492 174.439 149.99 174.43C149.065 174.634 148.232 175.136 147.62 175.86L141.38 183.51C141.093 183.85 140.876 184.243 140.742 184.667C140.609 185.091 140.56 185.537 140.6 185.98C140.782 186.897 141.268 187.725 141.98 188.33L151.77 196.33C152.506 196.915 153.42 197.229 154.36 197.22C154.802 197.168 155.229 197.029 155.617 196.811C156.005 196.593 156.346 196.3 156.62 195.95L162.85 188.3C163.439 187.55 163.76 186.624 163.76 185.67C163.643 185.191 163.454 184.733 163.2 184.31L162.59 183.31L166.02 179.1L167.31 180.6C167.516 180.817 167.703 181.051 167.87 181.3C168.52 182.316 168.962 183.452 169.17 184.64C169.207 184.895 169.227 185.152 169.23 185.41C169.252 186.686 169.046 187.956 168.62 189.16C168.326 190.145 167.84 191.063 167.19 191.86L161.09 199.34C160.447 200.155 159.648 200.835 158.74 201.34C157.463 202.133 156.024 202.632 154.53 202.8L154.4 202.71Z" fill="white"/>
<path d="M177.35 146.7C177.979 147.068 178.566 147.504 179.1 148L179.19 148.06L188.84 158.47C188.944 158.585 189.038 158.709 189.12 158.84C189.468 159.278 189.77 159.75 190.02 160.25C190.528 161.35 190.813 162.539 190.86 163.75C190.862 164.015 190.842 164.279 190.8 164.54C190.653 165.81 190.27 167.041 189.67 168.17C189.247 169.104 188.642 169.943 187.89 170.64L180.82 177.21C180.068 177.913 179.185 178.461 178.22 178.82C176.843 179.421 175.352 179.717 173.85 179.69H173.75C172.549 179.556 171.387 179.185 170.33 178.6C169.398 178.183 168.558 177.585 167.86 176.84L159.27 167.59C158.571 166.846 158.036 165.964 157.7 165C157.2 163.901 156.915 162.716 156.86 161.51V161.4C156.941 159.901 157.347 158.437 158.05 157.11C158.475 156.178 159.08 155.338 159.83 154.64L166.9 148.06C167.656 147.365 168.539 146.822 169.5 146.46C170.875 145.853 172.367 145.556 173.87 145.59H174C175.178 145.739 176.316 146.116 177.35 146.7ZM184.67 162.06L175.24 151.92C174.652 151.484 173.965 151.202 173.24 151.1C172.296 151.178 171.403 151.565 170.7 152.2L163.47 158.92C163.142 159.214 162.875 159.571 162.687 159.969C162.498 160.368 162.39 160.8 162.37 161.24C162.402 162.167 162.756 163.055 163.37 163.75L172 173C172.643 173.678 173.502 174.11 174.43 174.22C174.874 174.239 175.317 174.168 175.733 174.012C176.149 173.856 176.529 173.617 176.85 173.31L184.07 166.59C184.754 165.927 185.198 165.054 185.33 164.11C185.284 163.382 185.058 162.678 184.67 162.06Z" fill="white"/>
<path d="M202.91 143.12L200.8 144.57L187.46 141.57L200.26 160.23L195.59 163.44L178.09 137.92L182.35 135L198.26 138.57L200.74 122.39L204.9 119.54L222.4 145.06L217.9 148.14L205 129.33L202.91 143.12Z" fill="white"/>
<path d="M236.87 120.39C236.545 121.603 235.958 122.729 235.15 123.69C234.386 124.792 233.353 125.68 232.15 126.27L223.15 130.77L228.77 142.07L223.89 144.49L210.16 116.89L224.09 110C225.215 109.463 226.435 109.154 227.68 109.09C228.83 108.998 229.986 109.183 231.05 109.63C232.163 109.902 233.192 110.441 234.05 111.2C235.006 111.976 235.789 112.944 236.35 114.04C236.875 115.051 237.214 116.149 237.35 117.28V117.38C237.386 118.405 237.223 119.427 236.87 120.39ZM231.62 119.25C231.831 118.336 231.725 117.377 231.32 116.53C231.145 116.087 230.874 115.689 230.528 115.362C230.181 115.036 229.767 114.79 229.314 114.642C228.861 114.494 228.382 114.448 227.909 114.506C227.437 114.564 226.983 114.726 226.58 114.98L217.58 119.47L220.71 125.76L229.71 121.27C230.554 120.828 231.226 120.117 231.62 119.25Z" fill="white"/>
<path d="M267 113.42C267.606 114.982 267.846 116.661 267.704 118.33C267.562 119.999 267.041 121.613 266.18 123.05C264.798 125.861 262.372 128.02 259.42 129.066C256.468 130.112 253.224 129.963 250.38 128.65C248.801 128.073 247.375 127.143 246.212 125.929C245.049 124.716 244.179 123.252 243.67 121.65L237.31 103.71L242.45 101.89L248.81 119.83C249.435 121.465 250.642 122.812 252.2 123.61C253.019 124.088 253.935 124.375 254.881 124.449C255.826 124.524 256.776 124.384 257.66 124.04C258.555 123.77 259.374 123.295 260.053 122.653C260.732 122.011 261.252 121.219 261.57 120.34C262.198 118.717 262.23 116.924 261.66 115.28L255.3 97.2799L260.64 95.3899L267 113.42Z" fill="white"/>
<path d="M287.57 120.75L282 122L276.55 97.3499L267.13 99.4299L266 93.9999L290.17 88.6699L291.38 94.1199L282.16 96.1199L287.57 120.75Z" fill="white"/>
<path d="M298.47 118.45L295.59 87.7599L320.23 85.4399L320.76 90.9999L301.76 92.7899L302.42 99.7899L318.29 98.2999L318.81 103.86L302.94 105.36L303.6 112.36L322.6 110.57L323.13 116.14L298.47 118.45Z" fill="white"/>
<path d="M352.25 117L345.52 116.76L337 103.81L330.91 103.59L330.45 116.21L324.79 116L325.9 85.1899L341.61 85.7499C342.795 85.8079 343.954 86.1182 345.01 86.6599C346.138 87.0998 347.136 87.819 347.91 88.7499C348.688 89.5493 349.324 90.476 349.79 91.4899L349.87 91.7099C350.207 92.831 350.356 94.0002 350.31 95.1699C350.273 96.3058 350.036 97.4263 349.61 98.4799C349.167 99.4027 348.591 100.255 347.9 101.01C346.702 102.268 345.174 103.162 343.49 103.59L352.25 117ZM341.13 98.3699C341.576 98.3984 342.023 98.3359 342.444 98.1864C342.865 98.0368 343.252 97.8033 343.58 97.4999C343.95 97.1923 344.252 96.8113 344.467 96.381C344.682 95.9507 344.806 95.4804 344.83 94.9999C344.839 94.5132 344.746 94.0299 344.559 93.5806C344.371 93.1314 344.092 92.726 343.74 92.3899C343.436 92.071 343.069 91.8178 342.663 91.6458C342.258 91.4738 341.821 91.3868 341.38 91.3899L331.33 90.9999L331.08 97.9999L341.13 98.3699Z" fill="white"/>
<path d="M380 122H379.63L373.47 120.66C369.537 119.8 367.177 117.293 366.39 113.14C366.343 112.713 366.303 112.333 366.27 112C366.27 111.68 366.27 111.35 366.27 111C366.27 110.718 366.3 110.436 366.36 110.16L367.36 110.38L369.27 110.79L371.88 111.34L372.08 112.45C372.08 112.53 372.08 112.63 372.08 112.74C372.105 113.033 372.166 113.322 372.26 113.6C372.404 113.952 372.638 114.259 372.94 114.49C373.444 114.837 374.017 115.069 374.62 115.17L380.79 116.51C380.987 116.556 381.188 116.576 381.39 116.57H381.81H381.99H382.2H382.45C382.834 116.474 383.209 116.344 383.57 116.18L383.65 116.11C384.19 115.722 384.593 115.172 384.8 114.54L384.89 114.36C384.938 114.202 384.978 114.042 385.01 113.88C385.044 113.735 385.071 113.588 385.09 113.44C385.123 113.107 385.123 112.772 385.09 112.44C385.047 112.025 384.91 111.625 384.69 111.27C384.082 110.494 383.229 109.948 382.27 109.72L376.13 108.38C375.028 108.236 373.971 107.852 373.034 107.254C372.098 106.656 371.304 105.859 370.71 104.92L370.55 104.72C370.481 104.65 370.424 104.569 370.38 104.48C369.72 103.544 369.26 102.482 369.03 101.36C368.754 100.095 368.754 98.7851 369.03 97.52C369.09 97.26 369.15 97 369.22 96.74C369.524 95.7572 369.994 94.8339 370.61 94.01C371.048 93.4248 371.555 92.8944 372.12 92.43L372.3 92.3L372.71 92C372.9 91.87 373.11 91.75 373.32 91.63C374.268 91.0324 375.331 90.6406 376.44 90.48C377.597 90.3303 378.771 90.381 379.91 90.63L386.08 91.97C386.199 91.9933 386.316 92.0267 386.43 92.07C387.421 92.3985 388.361 92.8666 389.22 93.46C389.684 93.7564 390.122 94.0909 390.53 94.46L390.78 94.69C391.279 95.1732 391.718 95.7136 392.09 96.3H392.16L392.51 97.11L392.68 97.54C392.938 98.233 393.109 98.9551 393.19 99.69C393.2 99.8799 393.2 100.07 393.19 100.26L393.25 102.33L387.69 101.15L387.49 100.02C387.414 99.7706 387.314 99.5294 387.19 99.3C386.965 98.8744 386.675 98.4864 386.33 98.15C385.935 97.7441 385.426 97.4685 384.87 97.36L378.7 96.02C378.085 95.8749 377.445 95.8749 376.83 96.02C376.727 96.036 376.627 96.0628 376.53 96.1L376.41 96.16L376.28 96.22H376.23L376 96.34L375.92 96.41C375.522 96.6454 375.177 96.9605 374.907 97.3357C374.637 97.7109 374.447 98.1379 374.35 98.59C374.283 98.8917 374.259 99.2016 374.28 99.51C374.327 100.172 374.555 100.809 374.94 101.35C375.207 101.745 375.552 102.08 375.955 102.335C376.358 102.59 376.809 102.758 377.28 102.83L383.43 104.17C385.676 104.671 387.665 105.967 389.03 107.82L389.08 107.9C389.763 108.846 390.237 109.927 390.47 111.07C390.578 111.601 390.645 112.139 390.67 112.68C390.741 114.739 390.113 116.762 388.89 118.42C388.494 118.963 388.034 119.457 387.52 119.89C387.092 120.266 386.63 120.6 386.14 120.89C385.8 121.05 385.51 121.17 385.29 121.25L384.62 121.49C384.081 121.641 383.533 121.761 382.98 121.85C381.997 122.027 380.996 122.078 380 122Z" fill="white"/>
<path d="M393.5 122.22C393.066 121.091 392.859 119.889 392.89 118.68C392.832 117.661 392.978 116.641 393.32 115.68L397.57 103.79C397.916 102.834 398.45 101.957 399.14 101.21C399.881 100.26 400.802 99.4643 401.85 98.87L401.94 98.81C403.31 98.1928 404.797 97.879 406.3 97.89C407.32 97.8404 408.339 97.9933 409.3 98.34L418.39 101.59C419.355 101.932 420.242 102.462 421 103.15C422.172 104.093 423.125 105.28 423.79 106.63L423.84 106.74C424.272 107.851 424.476 109.038 424.44 110.23C424.425 110.535 424.395 110.838 424.35 111.14L424.03 113.14L418.88 111.29V110.12C418.872 109.618 418.795 109.12 418.65 108.64C418.141 107.834 417.382 107.216 416.49 106.88L407.2 103.55C406.786 103.395 406.346 103.324 405.905 103.341C405.464 103.358 405.03 103.463 404.63 103.65C403.825 104.122 403.208 104.857 402.88 105.73L398.63 117.61C398.307 118.495 398.307 119.465 398.63 120.35C398.817 120.751 399.083 121.109 399.414 121.403C399.744 121.697 400.13 121.921 400.55 122.06L409.84 125.38C410.747 125.69 411.732 125.69 412.64 125.38C413.055 125.1 413.429 124.764 413.75 124.38L414.49 123.45L419.62 125.28L418.62 127.01C418.471 127.268 418.304 127.515 418.12 127.75C417.393 128.711 416.478 129.514 415.43 130.11C415.15 130.23 414.91 130.34 414.7 130.41C413.506 130.866 412.238 131.093 410.96 131.08C409.94 131.136 408.919 130.983 407.96 130.63L398.88 127.38C397.909 127.041 397.017 126.507 396.26 125.81C395.087 124.872 394.134 123.687 393.47 122.34L393.5 122.22Z" fill="white"/>
<path d="M436.32 109.24L423.46 137.24L418.31 134.88L431.17 106.88L436.32 109.24Z" fill="white"/>
<path d="M425.43 137.84L440.48 110.93L462.08 123L459.35 127.88L442.69 118.56L439.26 124.7L453.17 132.48L450.44 137.36L436.53 129.58L433.1 135.72L449.76 145L447 149.92L425.43 137.84Z" fill="white"/>
<path d="M487.16 141L468.91 165.82L464.23 162.43L465.65 137L453 154.17L448.44 150.81L466.71 126L471.5 129.53L470.09 154.68L482.59 137.68L487.16 141Z" fill="white"/>
<path d="M474 166.31C474.065 165.102 474.371 163.918 474.9 162.83C475.262 161.876 475.813 161.005 476.52 160.27L485.28 151.18C485.978 150.443 486.823 149.86 487.76 149.47C488.83 148.914 489.999 148.574 491.2 148.47H491.3C492.804 148.467 494.291 148.788 495.66 149.41C496.616 149.787 497.489 150.347 498.23 151.06L505.18 157.75C505.919 158.464 506.511 159.317 506.92 160.26C507.609 161.595 507.988 163.068 508.03 164.57V164.69C507.965 165.88 507.666 167.046 507.15 168.12C507 168.4 506.85 168.66 506.68 168.92L505.59 170.58L501.65 166.78L502.14 165.72C502.337 165.26 502.471 164.776 502.54 164.28C502.409 163.332 501.97 162.454 501.29 161.78L494.19 154.94C493.879 154.622 493.507 154.37 493.096 154.198C492.686 154.026 492.245 153.939 491.8 153.94C490.871 154.035 490.004 154.453 489.35 155.12L480.6 164.21C479.953 164.894 479.565 165.781 479.5 166.72C479.509 167.163 479.607 167.6 479.789 168.003C479.972 168.407 480.234 168.77 480.56 169.07L487.66 175.91C488.363 176.562 489.264 176.96 490.22 177.04C490.71 176.968 491.186 176.819 491.63 176.6L492.69 176.06L496.62 179.84L495 181C494.76 181.17 494.5 181.33 494.24 181.48C493.179 182.04 492.016 182.38 490.82 182.48H490.03C488.756 182.399 487.509 182.084 486.35 181.55C485.392 181.181 484.518 180.623 483.78 179.91L476.78 173.21C476.041 172.499 475.45 171.649 475.04 170.71C474.366 169.366 473.987 167.893 473.93 166.39L474 166.31Z" fill="white"/>
<path d="M491.46 187.59L515.56 168.37L531 187.71L526.64 191.2L514.73 176.28L509.24 180.67L519.18 193.13L514.81 196.61L504.87 184.15L499.37 188.53L511.27 203.46L506.9 206.94L491.46 187.59Z" fill="white"/>
<path d="M125 458C124.89 457.82 124.83 457.71 124.8 457.65L121.8 451.57C119.873 447.69 120.387 444.023 123.34 440.57C123.67 440.23 123.96 439.94 124.22 439.7C124.473 439.457 124.74 439.23 125.02 439.02C125.256 438.828 125.51 438.66 125.78 438.52C125.78 438.63 126 438.98 126.29 439.52C126.58 440.06 126.89 440.72 127.29 441.4C127.69 442.08 128.07 442.93 128.59 443.97L127.79 444.88L127.57 445.12C127.338 445.333 127.14 445.579 126.98 445.85C126.773 446.2 126.672 446.603 126.69 447.01C126.73 447.671 126.922 448.314 127.25 448.89L130.25 454.97C130.341 455.168 130.459 455.354 130.6 455.52L130.86 455.89C130.906 455.938 130.956 455.981 131.01 456.02C131.062 456.075 131.119 456.126 131.18 456.17L131.38 456.36C131.715 456.624 132.077 456.852 132.46 457.04H132.57C133.261 457.24 133.999 457.208 134.67 456.95L134.88 456.9C135.05 456.83 135.21 456.76 135.36 456.68C135.506 456.615 135.647 456.538 135.78 456.45C136.088 456.244 136.376 456.01 136.64 455.75C136.955 455.433 137.198 455.051 137.35 454.63C137.586 453.595 137.47 452.511 137.02 451.55L134.02 445.48C133.271 444.187 132.861 442.724 132.83 441.23C132.85 440.334 132.995 439.446 133.26 438.59L133.33 438.32C133.34 438.215 133.37 438.113 133.42 438.02C133.755 436.831 134.338 435.727 135.13 434.78C136.015 433.702 137.119 432.826 138.37 432.21C138.63 432.08 138.89 431.95 139.16 431.84C140.928 431.131 142.868 430.967 144.73 431.37L144.97 431.43L145.5 431.58C145.74 431.65 145.98 431.74 146.23 431.84C147.369 432.229 148.412 432.857 149.29 433.68C150.199 434.545 150.953 435.56 151.52 436.68L154.52 442.77C154.57 442.86 154.62 442.99 154.68 443.13C155.063 444.187 155.302 445.29 155.39 446.41C155.46 446.994 155.481 447.583 155.45 448.17V448.54C155.378 449.282 155.22 450.014 154.98 450.72V450.79L154.53 451.63L154.29 452.07C153.879 452.752 153.385 453.38 152.82 453.94C152.64 454.1 152.48 454.23 152.35 454.33L150.64 455.78L147.88 450.31L148.7 449.38C148.853 449.145 148.987 448.897 149.1 448.64C149.307 448.163 149.439 447.657 149.49 447.14C149.56 446.537 149.445 445.926 149.16 445.39L146.16 439.3C145.871 438.684 145.443 438.143 144.91 437.72C144.824 437.644 144.73 437.576 144.63 437.52L144.5 437.46L144.36 437.39H144.3L144.04 437.29H143.93C143.462 437.115 142.963 437.037 142.464 437.063C141.966 437.089 141.477 437.217 141.03 437.44C140.731 437.59 140.455 437.782 140.21 438.01C139.682 438.491 139.301 439.112 139.11 439.8C138.952 440.295 138.899 440.818 138.956 441.335C139.013 441.852 139.178 442.351 139.44 442.8L142.44 448.87C143.476 451.103 143.675 453.633 143 456V456.09C142.992 456.109 142.992 456.131 143 456.15V456.22C142.667 457.431 142.077 458.557 141.27 459.52C140.9 459.971 140.492 460.389 140.05 460.77C139.442 461.302 138.77 461.755 138.05 462.12C136.802 462.73 135.439 463.071 134.05 463.12C133.326 463.15 132.601 463.093 131.89 462.95C131.295 462.838 130.712 462.667 130.15 462.44C129.79 462.26 129.5 462.1 129.28 461.97C129.06 461.84 128.84 461.72 128.62 461.57C128.124 461.223 127.653 460.842 127.21 460.43C126.372 459.718 125.629 458.901 125 458Z" fill="white"/>
<path d="M140.79 484.15L137.36 479.15L159.86 463.86L154.02 455.26L159.02 451.87L174.02 473.93L169.02 477.32L163.3 468.91L140.79 484.15Z" fill="white"/>
<path d="M177.79 508.73C176.489 509.982 174.919 510.921 173.2 511.476C171.481 512.03 169.658 512.186 167.87 511.93C164.501 511.731 161.344 510.222 159.073 507.725C156.803 505.228 155.599 501.943 155.72 498.57C155.635 496.767 155.962 494.968 156.676 493.31C157.39 491.651 158.472 490.178 159.84 489L175 475.19L178.95 479.54L163.77 493.34C162.396 494.657 161.565 496.441 161.44 498.34C161.306 499.353 161.402 500.384 161.72 501.355C162.039 502.326 162.572 503.213 163.28 503.95C163.923 504.727 164.739 505.343 165.663 505.748C166.587 506.152 167.593 506.335 168.6 506.28C170.471 506.237 172.265 505.528 173.66 504.28L188.84 490.48L192.95 494.99L177.79 508.73Z" fill="white"/>
<path d="M195.47 537.09C192.986 537.082 190.585 536.196 188.69 534.59L173.07 521.89L194.07 496.11L209.69 508.81C210.549 509.507 211.263 510.367 211.79 511.34C212.641 512.717 213.18 514.263 213.37 515.87V516C213.412 517.3 213.194 518.595 212.73 519.81C212.426 520.862 211.913 521.842 211.22 522.69L202.64 533.24C201.796 534.363 200.717 535.289 199.479 535.954C198.241 536.619 196.873 537.006 195.47 537.09ZM194.79 504.48L181.43 520.92L192.65 530C193.018 530.318 193.448 530.557 193.913 530.701C194.377 530.846 194.866 530.893 195.35 530.84C196.335 530.645 197.222 530.115 197.86 529.34L206.44 518.79C207.075 518.005 207.428 517.029 207.44 516.02C207.382 515.54 207.23 515.076 206.991 514.655C206.752 514.235 206.432 513.866 206.05 513.57L194.79 504.48Z" fill="white"/>
<path d="M201.84 544.49L218.7 515.85L241.7 529.38L238.64 534.57L220.9 524.14L217.06 530.67L231.87 539.39L228.81 544.58L214 535.86L210.15 542.39L227.88 552.83L224.83 558L201.84 544.49Z" fill="white"/>
<path d="M268.47 540.45L255.94 571.2L250.16 568.89L244.93 541.89L236.26 563.19L230.61 560.88L243.14 530.11L249.07 532.53L254.24 559.18L262.81 538.12L268.47 540.45Z" fill="white"/>
<path d="M278.07 577.14L272.14 575.67L278.67 549.26L268.57 546.77L270.02 540.92L295.91 547.32L294.47 553.17L284.6 550.73L278.07 577.14Z" fill="white"/>
<path d="M310.57 579.4C309.764 578.376 309.16 577.209 308.79 575.96C308.391 574.935 308.207 573.839 308.25 572.74L308.73 559.14C308.766 558.049 309.025 556.977 309.49 555.99C309.942 554.774 310.621 553.654 311.49 552.69L311.58 552.6C312.777 551.511 314.202 550.701 315.75 550.23C316.787 549.839 317.892 549.658 319 549.7L329.4 550.07C330.507 550.107 331.595 550.365 332.6 550.83C334.113 551.411 335.479 552.319 336.6 553.49L336.69 553.58C337.497 554.581 338.096 555.734 338.45 556.97C338.548 557.296 338.615 557.631 338.65 557.97L338.97 560.08L333.1 559.88L332.7 558.67C332.542 558.153 332.298 557.667 331.98 557.23C331.205 556.563 330.231 556.173 329.21 556.12L318.59 555.74C318.11 555.714 317.629 555.784 317.176 555.946C316.723 556.107 316.306 556.357 315.95 556.68C315.281 557.431 314.887 558.386 314.83 559.39L314.35 573C314.327 574.014 314.651 575.006 315.27 575.81C315.603 576.158 316.001 576.436 316.443 576.628C316.884 576.82 317.359 576.923 317.84 576.93L328.46 577.31C329.486 577.319 330.487 576.993 331.31 576.38C331.643 575.963 331.915 575.502 332.12 575.01L332.61 573.81L338.45 574.02L338.01 576.11C337.953 576.426 337.869 576.737 337.76 577.04C337.321 578.263 336.641 579.385 335.76 580.34C335.564 580.535 335.357 580.719 335.14 580.89C334.057 581.738 332.831 582.385 331.52 582.8C330.482 583.189 329.378 583.369 328.27 583.33L317.87 582.96C316.763 582.925 315.675 582.667 314.67 582.2C313.155 581.623 311.788 580.714 310.67 579.54L310.57 579.4Z" fill="white"/>
<path d="M371 553.22C371.306 553.951 371.534 554.711 371.68 555.49V555.6L373.55 570.78C373.57 570.949 373.57 571.121 373.55 571.29C373.58 571.889 373.547 572.489 373.45 573.08C373.204 574.363 372.705 575.583 371.98 576.67C371.814 576.901 371.63 577.118 371.43 577.32C370.503 578.337 369.394 579.172 368.16 579.78C367.193 580.316 366.129 580.656 365.03 580.78L354.71 582.06C353.612 582.201 352.496 582.119 351.43 581.82C349.846 581.476 348.355 580.794 347.06 579.82L346.98 579.73C346.015 578.86 345.233 577.806 344.68 576.63C344.138 575.676 343.797 574.621 343.68 573.53L342 560.08C341.863 558.994 341.948 557.892 342.25 556.84C342.515 555.566 343.013 554.353 343.72 553.26L343.78 553.17C344.796 551.912 346.072 550.889 347.52 550.17C348.487 549.632 349.551 549.292 350.65 549.17L360.97 547.88C362.069 547.744 363.183 547.826 364.25 548.12C365.837 548.454 367.33 549.137 368.62 550.12L368.72 550.2C369.672 551.046 370.447 552.073 371 553.22ZM367.7 571.22L365.85 556.4C365.622 555.637 365.198 554.948 364.62 554.4C363.748 553.87 362.725 553.641 361.71 553.75L351.16 555.06C350.686 555.111 350.228 555.256 349.81 555.486C349.393 555.716 349.026 556.027 348.73 556.4C348.183 557.247 347.946 558.258 348.06 559.26L349.74 572.75C349.873 573.748 350.351 574.667 351.09 575.35C351.465 575.649 351.897 575.868 352.359 575.994C352.822 576.119 353.306 576.149 353.78 576.08L364.33 574.77C365.251 574.741 366.124 574.348 366.755 573.677C367.387 573.006 367.727 572.111 367.7 571.19V571.22Z" fill="white"/>
<path d="M395.69 559.86L393.04 560.66L380.31 553.26L387.4 576.59L381.56 578.37L371.86 546.47L377.2 544.85L392.38 553.68L400.19 537.86L405.38 536.28L415.08 568.18L409.46 569.89L402.31 546.36L395.69 559.86Z" fill="white"/>
<path d="M432.47 544.61L430 545.88L416.14 540.88L427.35 562.53L421.93 565.34L406.6 535.74L411.55 533.17L428.08 539.1L432.88 522.1L437.71 519.6L453.04 549.21L447.83 551.91L436.51 530.07L432.47 544.61Z" fill="white"/>
<path d="M473.14 518.7C474.264 520.114 475.051 521.766 475.441 523.53C475.831 525.294 475.814 527.124 475.39 528.88C474.868 532.214 473.064 535.213 470.363 537.236C467.661 539.259 464.277 540.147 460.93 539.71C459.128 539.622 457.369 539.127 455.785 538.26C454.202 537.394 452.836 536.18 451.79 534.71L439.49 518.29L444.19 514.76L456.49 531.18C457.662 532.661 459.339 533.658 461.2 533.98C462.195 534.209 463.229 534.21 464.225 533.983C465.221 533.756 466.152 533.307 466.95 532.67C467.787 532.106 468.48 531.354 468.973 530.473C469.467 529.592 469.746 528.608 469.79 527.6C469.908 525.731 469.366 523.881 468.26 522.37L456 505.94L460.89 502.28L473.14 518.7Z" fill="white"/>
<path d="M481.43 481.86L504.92 505.32L500.56 509.76L473.66 504.12L489.93 520.37L485.61 524.69L462.1 501.21L466.63 496.68L493.2 502.25L477.11 486.18L481.43 481.86Z" fill="white"/>
<path d="M486.61 474.94L512.27 496.05L508.4 500.76L482.73 479.66L486.61 474.94Z" fill="white"/>
<path d="M525.11 478.37L521.69 483.43L499.15 468.19L493.32 476.81L488.32 473.44L503.26 451.34L508.26 454.71L502.57 463.13L525.11 478.37Z" fill="white"/>
<path d="M515 426.86L518.06 420.32L529.06 440.5L542.27 446.67L539.77 452L526.55 445.83L504 450.34L507.05 443.79L522.34 440.61L515 426.86Z" fill="white"/>
</svg>
