<svg width="311" height="311" viewBox="0 0 311 131" fill="none" xmlns="http://www.w3.org/2000/svg">
<path d="M15.6499 114.54C16.1413 114.753 16.561 115.103 16.8589 115.548C17.1568 115.993 17.3203 116.515 17.3299 117.05V130.27C17.3272 130.388 17.2787 130.5 17.1946 130.582C17.1105 130.664 16.9975 130.71 16.8799 130.71H13.6199C13.5642 130.713 13.5086 130.703 13.4569 130.683C13.4051 130.662 13.3584 130.63 13.3199 130.59C13.2411 130.502 13.1983 130.388 13.1999 130.27V118.27H10.5699V130.27C10.5709 130.385 10.528 130.496 10.4499 130.58C10.4148 130.625 10.3689 130.661 10.3165 130.683C10.2641 130.706 10.2068 130.715 10.1499 130.71H7.14986C7.03317 130.71 6.92125 130.664 6.83874 130.581C6.75622 130.499 6.70986 130.387 6.70986 130.27V118.27H4.12986V130.27C4.14415 130.372 4.11746 130.476 4.05563 130.558C3.9938 130.641 3.90184 130.695 3.79986 130.71H0.449862C0.349526 130.725 0.247227 130.701 0.163677 130.644C0.0801272 130.586 0.0215703 130.499 -0.000137611 130.4V114.76C-0.0144269 114.658 0.0122612 114.554 0.0740953 114.472C0.135929 114.39 0.227882 114.335 0.329862 114.32H14.5699C14.9417 114.313 15.3105 114.388 15.6499 114.54Z" fill="#242425"/>
<path d="M31.9998 114.32C32.5432 114.317 33.0755 114.474 33.5294 114.773C33.9832 115.073 34.3383 115.499 34.5498 116C34.7013 116.333 34.7797 116.694 34.7798 117.06V130.28C34.7825 130.337 34.7736 130.394 34.7537 130.447C34.7338 130.5 34.7033 130.549 34.6641 130.59C34.6248 130.631 34.5776 130.664 34.5252 130.686C34.4729 130.709 34.4166 130.72 34.3598 130.72H31.0798C30.9621 130.72 30.8492 130.674 30.765 130.592C30.6809 130.509 30.6324 130.398 30.6298 130.28V126.08C30.6346 125.966 30.5951 125.855 30.5198 125.77C30.4815 125.726 30.4337 125.691 30.3799 125.669C30.3262 125.646 30.2679 125.636 30.2098 125.64H25.5698C25.4521 125.64 25.3392 125.686 25.255 125.768C25.1709 125.85 25.1224 125.962 25.1198 126.08V130.28C25.1283 130.33 25.1267 130.381 25.1152 130.43C25.1036 130.48 25.0823 130.526 25.0525 130.567C25.0227 130.608 24.985 130.643 24.9416 130.669C24.8981 130.695 24.8499 130.713 24.7998 130.72H21.4498C21.3991 130.73 21.3468 130.73 21.2963 130.719C21.2458 130.708 21.198 130.687 21.1559 130.657C21.1137 130.627 21.0782 130.589 21.0513 130.545C21.0245 130.5 21.0069 130.451 20.9998 130.4V117.06C20.999 116.696 21.0703 116.336 21.2098 116C21.3403 115.659 21.5413 115.348 21.7998 115.09C22.0634 114.838 22.3721 114.638 22.7098 114.5C23.0436 114.352 23.4048 114.278 23.7698 114.28L31.9998 114.32ZM30.5898 122.13V118H25.0898V122.12L30.5898 122.13Z" fill="#242425"/>
<path d="M49.5198 114.45C49.5644 114.488 49.5995 114.535 49.6221 114.589C49.6447 114.643 49.6542 114.702 49.6498 114.76V128C49.6523 128.365 49.5773 128.726 49.4298 129.06C49.2901 129.397 49.0902 129.705 48.8398 129.97C48.5868 130.23 48.2796 130.432 47.9398 130.56C47.6004 130.699 47.2368 130.771 46.8698 130.77H39.8698C39.5029 130.771 39.1393 130.699 38.7998 130.56C38.2968 130.349 37.8682 129.993 37.5689 129.537C37.2696 129.08 37.1132 128.545 37.1198 128V123C37.1054 122.897 37.1318 122.792 37.1934 122.708C37.255 122.624 37.347 122.567 37.4498 122.55H40.7998C40.9026 122.538 41.0062 122.565 41.0896 122.627C41.1731 122.688 41.2303 122.778 41.2498 122.88V126.35C41.2471 126.407 41.2563 126.464 41.277 126.518C41.2977 126.571 41.3293 126.62 41.3698 126.66C41.4587 126.736 41.5731 126.775 41.6898 126.77H45.0898C45.2035 126.775 45.3146 126.735 45.3998 126.66C45.4438 126.622 45.4784 126.574 45.501 126.52C45.5235 126.466 45.5334 126.408 45.5298 126.35V114.76C45.5288 114.645 45.5717 114.534 45.6498 114.45C45.6876 114.405 45.7353 114.37 45.7892 114.348C45.8431 114.325 45.9016 114.316 45.9598 114.32H49.2198C49.2763 114.319 49.3323 114.33 49.3841 114.352C49.4359 114.374 49.4822 114.408 49.5198 114.45Z" fill="#242425"/>
<path d="M64.3498 114.32C64.7147 114.318 65.076 114.393 65.4098 114.54C65.737 114.674 66.0339 114.872 66.2829 115.123C66.532 115.374 66.7282 115.672 66.8598 116C67.0113 116.333 67.0898 116.694 67.0898 117.06V127.95C67.0887 128.319 67.0104 128.683 66.8598 129.02C66.7266 129.355 66.5297 129.66 66.2798 129.92C66.0231 130.181 65.7125 130.382 65.3698 130.51C65.0357 130.655 64.6741 130.727 64.3098 130.72H56.0498C55.6884 130.72 55.3308 130.645 54.9998 130.5C54.5039 130.296 54.0796 129.95 53.7805 129.505C53.4815 129.06 53.3211 128.536 53.3198 128V117.11C53.319 116.743 53.3904 116.379 53.5298 116.04C53.6544 115.701 53.8525 115.394 54.1098 115.14C54.3735 114.888 54.6822 114.688 55.0198 114.55C55.3533 114.402 55.7148 114.327 56.0798 114.33L64.3498 114.32ZM62.9398 118.32H57.4398V126.76H62.9998L62.9398 118.32Z" fill="#242425"/>
<path d="M85.0598 130.35C85.0898 130.389 85.1061 130.436 85.1061 130.485C85.1061 130.534 85.0898 130.581 85.0598 130.62C85.0317 130.659 84.9937 130.69 84.9498 130.709C84.9058 130.728 84.8575 130.736 84.8098 130.73H81.0898C80.9586 130.729 80.8304 130.691 80.7198 130.62C80.6007 130.558 80.5005 130.464 80.4298 130.35L77.9998 125.9C77.9839 125.87 77.9591 125.845 77.9288 125.829C77.8984 125.813 77.8639 125.806 77.8298 125.81H74.9998C74.9867 125.807 74.9731 125.807 74.9598 125.809C74.9466 125.812 74.934 125.817 74.9228 125.824C74.9116 125.832 74.902 125.842 74.8946 125.853C74.8872 125.864 74.8822 125.877 74.8798 125.89V130.25C74.8868 130.301 74.8835 130.352 74.87 130.402C74.8565 130.451 74.8332 130.497 74.8015 130.537C74.7697 130.578 74.7302 130.611 74.6852 130.635C74.6402 130.66 74.5908 130.675 74.5398 130.68H71.2098C71.1093 130.694 71.007 130.669 70.9248 130.609C70.8426 130.55 70.787 130.46 70.7698 130.36C70.7597 130.321 70.7597 130.279 70.7698 130.24V114.76C70.7613 114.71 70.7629 114.659 70.7744 114.609C70.786 114.56 70.8073 114.514 70.8371 114.473C70.8669 114.432 70.9046 114.397 70.948 114.371C70.9914 114.344 71.0397 114.327 71.0898 114.32H81.8098C82.1746 114.319 82.5357 114.394 82.8698 114.54C83.5221 114.823 84.041 115.346 84.3198 116C84.4673 116.334 84.5423 116.695 84.5398 117.06V123.22C84.5435 123.8 84.3573 124.365 84.0098 124.83C83.684 125.305 83.2088 125.657 82.6598 125.83H82.5898C82.4798 125.83 82.4498 125.91 82.5098 125.97L85.0598 130.35ZM80.3998 118.14H74.7498V122.14H80.3998V118.14Z" fill="#242425"/>
<path d="M107.12 126.74C107.177 126.736 107.235 126.745 107.288 126.765C107.342 126.786 107.39 126.818 107.43 126.86C107.509 126.948 107.551 127.062 107.55 127.18V130.28C107.551 130.395 107.508 130.506 107.43 130.59C107.392 130.635 107.344 130.67 107.291 130.692C107.237 130.715 107.178 130.724 107.12 130.72H96.9999C96.8981 130.735 96.7946 130.71 96.7108 130.65C96.627 130.591 96.5694 130.501 96.5499 130.4V114.76C96.5356 114.658 96.5623 114.554 96.6241 114.472C96.686 114.39 96.7779 114.335 96.8799 114.32H100.23C100.332 114.306 100.436 114.332 100.518 114.394C100.6 114.456 100.655 114.548 100.67 114.65C100.68 114.686 100.68 114.724 100.67 114.76V126.32C100.668 126.378 100.678 126.436 100.701 126.489C100.723 126.543 100.757 126.591 100.8 126.63C100.888 126.709 101.002 126.752 101.12 126.75L107.12 126.74Z" fill="#242425"/>
<path d="M122.28 114.45C122.323 114.489 122.357 114.537 122.379 114.591C122.401 114.644 122.412 114.702 122.41 114.76V117.71C122.414 117.768 122.405 117.827 122.382 117.881C122.36 117.935 122.324 117.982 122.28 118.02C122.196 118.098 122.085 118.141 121.97 118.14H114.11C114.097 118.137 114.084 118.137 114.072 118.14C114.059 118.142 114.047 118.147 114.037 118.155C114.026 118.163 114.018 118.172 114.011 118.184C114.005 118.195 114.001 118.207 114 118.22V120.77C114 120.83 114 120.86 114.11 120.86H120.81C120.866 120.857 120.923 120.868 120.975 120.89C121.027 120.913 121.073 120.947 121.11 120.99C121.188 121.074 121.231 121.185 121.23 121.3V123.65C121.231 123.765 121.188 123.876 121.11 123.96C121.073 124.003 121.027 124.037 120.975 124.06C120.923 124.083 120.866 124.093 120.81 124.09H114.11C114.085 124.087 114.06 124.094 114.039 124.108C114.019 124.123 114.005 124.145 114 124.17V126.7C113.995 126.713 113.993 126.726 113.995 126.739C113.996 126.752 114 126.765 114.007 126.777C114.013 126.788 114.022 126.798 114.033 126.805C114.044 126.813 114.057 126.818 114.07 126.82H122C122.115 126.82 122.225 126.865 122.308 126.945C122.39 127.026 122.437 127.135 122.44 127.25V130.25C122.441 130.307 122.431 130.364 122.41 130.418C122.389 130.471 122.358 130.52 122.318 130.561C122.277 130.602 122.23 130.634 122.177 130.656C122.124 130.679 122.067 130.69 122.01 130.69H110.32C110.218 130.705 110.115 130.68 110.031 130.62C109.947 130.561 109.889 130.471 109.87 130.37V114.76C109.872 114.642 109.921 114.531 110.005 114.448C110.089 114.366 110.202 114.32 110.32 114.32H122C122.106 114.326 122.206 114.373 122.28 114.45Z" fill="#242425"/>
<path d="M137.15 114.32C137.518 114.317 137.883 114.392 138.22 114.54C138.88 114.811 139.405 115.332 139.68 115.99C139.828 116.324 139.903 116.685 139.9 117.05V130.27C139.903 130.327 139.894 130.384 139.874 130.437C139.854 130.49 139.824 130.539 139.784 130.58C139.745 130.621 139.698 130.654 139.645 130.676C139.593 130.699 139.537 130.71 139.48 130.71H136.17C136.053 130.71 135.941 130.664 135.859 130.581C135.776 130.499 135.73 130.387 135.73 130.27V126.07C135.731 125.955 135.688 125.844 135.61 125.76C135.572 125.715 135.524 125.68 135.471 125.658C135.417 125.635 135.358 125.626 135.3 125.63H130.73C130.612 125.63 130.499 125.676 130.415 125.758C130.331 125.841 130.283 125.952 130.28 126.07V130.27C130.294 130.372 130.268 130.476 130.206 130.558C130.144 130.641 130.052 130.695 129.95 130.71H126.6C126.55 130.719 126.499 130.717 126.449 130.705C126.4 130.694 126.354 130.673 126.313 130.643C126.272 130.613 126.237 130.575 126.211 130.532C126.184 130.488 126.167 130.44 126.16 130.39C126.15 130.351 126.15 130.309 126.16 130.27V117.06C126.159 116.696 126.231 116.336 126.37 116C126.5 115.659 126.702 115.349 126.96 115.09C127.224 114.838 127.532 114.638 127.87 114.5C128.203 114.352 128.565 114.277 128.93 114.28L137.15 114.32ZM135.75 122.13V118H130.24V122.12L135.75 122.13Z" fill="#242425"/>
<path d="M157.2 121.9C157.242 121.942 157.274 121.992 157.295 122.047C157.315 122.102 157.324 122.161 157.32 122.22V128C157.322 128.365 157.247 128.726 157.1 129.06C156.959 129.394 156.763 129.702 156.52 129.97C156.261 130.228 155.951 130.429 155.61 130.56C155.274 130.699 154.913 130.77 154.55 130.77H146.25C145.89 130.771 145.533 130.701 145.2 130.564C144.867 130.427 144.564 130.225 144.309 129.97C144.055 129.716 143.853 129.413 143.716 129.08C143.578 128.747 143.508 128.39 143.51 128.03V117.13C143.51 116.766 143.581 116.406 143.72 116.07C143.843 115.727 144.041 115.416 144.3 115.16C144.562 114.911 144.867 114.711 145.2 114.57C145.539 114.427 145.902 114.353 146.27 114.35H156C156.119 114.35 156.234 114.397 156.318 114.482C156.402 114.566 156.45 114.681 156.45 114.8V117.89C156.45 118.009 156.402 118.124 156.318 118.208C156.234 118.293 156.119 118.34 156 118.34H148.15C148.032 118.338 147.918 118.381 147.83 118.46C147.747 118.542 147.7 118.654 147.7 118.77V126.36C147.7 126.416 147.712 126.472 147.734 126.523C147.757 126.575 147.789 126.621 147.83 126.66C147.872 126.701 147.922 126.732 147.977 126.753C148.032 126.774 148.091 126.783 148.15 126.78H152.79C152.842 126.783 152.895 126.775 152.944 126.757C152.994 126.74 153.04 126.712 153.079 126.677C153.118 126.642 153.149 126.599 153.172 126.552C153.194 126.504 153.207 126.453 153.21 126.4V122.26C153.207 122.203 153.216 122.146 153.236 122.093C153.256 122.04 153.286 121.991 153.326 121.95C153.365 121.909 153.412 121.876 153.464 121.854C153.517 121.831 153.573 121.82 153.63 121.82H156.91C157.013 121.811 157.116 121.839 157.2 121.9Z" fill="#242425"/>
<path d="M174.49 114.45C174.573 114.532 174.619 114.643 174.62 114.76V128C174.619 128.366 174.541 128.727 174.39 129.06C174.253 129.396 174.057 129.704 173.81 129.97C173.551 130.228 173.241 130.429 172.9 130.56C172.56 130.699 172.197 130.771 171.83 130.77H163.53C163.166 130.77 162.806 130.699 162.47 130.56C161.808 130.284 161.281 129.76 161 129.1C160.86 128.761 160.789 128.397 160.79 128.03V114.76C160.776 114.658 160.802 114.554 160.864 114.472C160.926 114.389 161.018 114.335 161.12 114.32H164.47C164.572 114.306 164.676 114.332 164.758 114.394C164.84 114.456 164.895 114.548 164.91 114.65C164.92 114.686 164.92 114.724 164.91 114.76V126.32C164.908 126.378 164.918 126.436 164.941 126.489C164.963 126.543 164.997 126.591 165.04 126.63C165.128 126.709 165.242 126.752 165.36 126.75H170C170.055 126.751 170.11 126.741 170.162 126.72C170.213 126.699 170.26 126.669 170.3 126.63C170.343 126.591 170.376 126.543 170.397 126.489C170.418 126.435 170.425 126.377 170.42 126.32V114.76C170.423 114.642 170.471 114.53 170.555 114.448C170.639 114.366 170.752 114.32 170.87 114.32H174.13C174.196 114.309 174.264 114.315 174.327 114.338C174.39 114.361 174.446 114.399 174.49 114.45Z" fill="#242425"/>
<path d="M190.73 114.45C190.813 114.532 190.859 114.644 190.86 114.76V117.71C190.862 117.768 190.851 117.826 190.829 117.879C190.807 117.933 190.773 117.981 190.73 118.02C190.642 118.099 190.528 118.142 190.41 118.14H182.56C182.547 118.137 182.533 118.137 182.52 118.139C182.507 118.142 182.494 118.147 182.483 118.154C182.472 118.162 182.462 118.172 182.455 118.183C182.447 118.194 182.442 118.207 182.44 118.22V120.81C182.44 120.87 182.44 120.9 182.56 120.9H189.26C189.316 120.899 189.372 120.91 189.424 120.932C189.476 120.954 189.522 120.988 189.56 121.03C189.638 121.114 189.681 121.225 189.68 121.34V123.69C189.681 123.805 189.638 123.916 189.56 124C189.522 124.042 189.476 124.076 189.424 124.098C189.372 124.12 189.316 124.131 189.26 124.13H182.56C182.534 124.127 182.507 124.133 182.485 124.148C182.463 124.162 182.447 124.184 182.44 124.21V126.78C182.437 126.793 182.437 126.807 182.439 126.82C182.442 126.833 182.447 126.846 182.454 126.857C182.462 126.868 182.471 126.878 182.483 126.885C182.494 126.893 182.507 126.898 182.52 126.9H190.41C190.526 126.9 190.637 126.945 190.721 127.025C190.805 127.105 190.855 127.214 190.86 127.33V130.33C190.86 130.445 190.815 130.555 190.735 130.638C190.654 130.72 190.545 130.767 190.43 130.77H178.77C178.719 130.779 178.668 130.777 178.618 130.766C178.568 130.754 178.52 130.733 178.478 130.703C178.437 130.674 178.401 130.636 178.374 130.592C178.347 130.549 178.328 130.501 178.32 130.45C178.31 130.411 178.31 130.369 178.32 130.33V114.76C178.322 114.642 178.371 114.53 178.455 114.448C178.539 114.366 178.652 114.32 178.77 114.32H190.41C190.469 114.318 190.529 114.328 190.584 114.351C190.639 114.373 190.689 114.407 190.73 114.45Z" fill="#242425"/>
<path d="M215.88 114.32C215.937 114.317 215.994 114.326 216.047 114.346C216.1 114.366 216.149 114.397 216.19 114.436C216.231 114.475 216.264 114.522 216.286 114.575C216.309 114.627 216.32 114.683 216.32 114.74V130.28C216.321 130.337 216.311 130.394 216.29 130.448C216.269 130.501 216.238 130.55 216.198 130.591C216.158 130.632 216.11 130.664 216.057 130.686C216.004 130.709 215.947 130.72 215.89 130.72H212.62C212.502 130.72 212.389 130.674 212.305 130.592C212.221 130.51 212.173 130.398 212.17 130.28V124.83C212.173 124.778 212.165 124.725 212.147 124.675C212.13 124.626 212.102 124.58 212.067 124.541C212.032 124.502 211.989 124.471 211.942 124.448C211.894 124.426 211.843 124.413 211.79 124.41H207.12C207.002 124.406 206.887 124.45 206.8 124.53C206.755 124.568 206.72 124.616 206.698 124.669C206.675 124.723 206.666 124.782 206.67 124.84V130.29C206.684 130.392 206.658 130.496 206.596 130.578C206.534 130.661 206.442 130.715 206.34 130.73C206.304 130.74 206.266 130.74 206.23 130.73H203C202.898 130.744 202.794 130.718 202.712 130.656C202.629 130.594 202.575 130.502 202.56 130.4C202.55 130.364 202.55 130.326 202.56 130.29V114.76C202.546 114.658 202.572 114.554 202.634 114.472C202.696 114.39 202.788 114.335 202.89 114.32H206.24C206.342 114.306 206.446 114.332 206.528 114.394C206.61 114.456 206.665 114.548 206.68 114.65C206.69 114.686 206.69 114.724 206.68 114.76V120C206.666 120.102 206.692 120.206 206.754 120.288C206.816 120.371 206.908 120.425 207.01 120.44H211.76C211.817 120.444 211.875 120.435 211.928 120.415C211.982 120.394 212.03 120.362 212.07 120.32C212.149 120.232 212.192 120.118 212.19 120V114.75C212.193 114.632 212.241 114.521 212.325 114.438C212.409 114.356 212.522 114.31 212.64 114.31H215.89L215.88 114.32Z" fill="#242425"/>
<path d="M231.06 114.32C231.428 114.317 231.793 114.392 232.13 114.54C232.789 114.811 233.315 115.332 233.59 115.99C233.738 116.324 233.813 116.685 233.81 117.05V130.27C233.812 130.327 233.804 130.384 233.784 130.437C233.764 130.49 233.733 130.539 233.694 130.58C233.655 130.621 233.608 130.654 233.555 130.676C233.503 130.699 233.447 130.71 233.39 130.71H230.11C229.993 130.71 229.881 130.664 229.799 130.581C229.716 130.499 229.67 130.387 229.67 130.27V126.07C229.671 125.955 229.628 125.844 229.55 125.76C229.512 125.715 229.464 125.68 229.41 125.658C229.357 125.635 229.298 125.626 229.24 125.63H224.59C224.473 125.63 224.361 125.676 224.279 125.759C224.196 125.841 224.15 125.953 224.15 126.07V130.27C224.164 130.372 224.137 130.476 224.076 130.558C224.014 130.641 223.922 130.695 223.82 130.71H220.47C220.419 130.719 220.367 130.717 220.317 130.706C220.267 130.694 220.22 130.673 220.178 130.643C220.137 130.614 220.101 130.576 220.074 130.533C220.047 130.489 220.028 130.441 220.02 130.39V117.06C220.019 116.696 220.09 116.336 220.23 116C220.36 115.659 220.561 115.349 220.82 115.09C221.085 114.84 221.393 114.64 221.73 114.5C222.064 114.354 222.425 114.279 222.79 114.28L231.06 114.32ZM229.66 122.13V118H224.15V122.12L229.66 122.13Z" fill="#242425"/>
<path d="M241.68 118.42C241.638 118.46 241.606 118.508 241.585 118.562C241.565 118.615 241.556 118.673 241.56 118.73V126.32C241.556 126.377 241.565 126.435 241.585 126.488C241.606 126.542 241.638 126.59 241.68 126.63C241.768 126.709 241.882 126.752 242 126.75H249.53C249.587 126.747 249.644 126.756 249.697 126.776C249.75 126.796 249.799 126.826 249.84 126.866C249.881 126.905 249.914 126.952 249.936 127.005C249.959 127.057 249.97 127.113 249.97 127.17V130.29C249.973 130.347 249.964 130.404 249.944 130.457C249.924 130.51 249.894 130.559 249.854 130.6C249.815 130.641 249.768 130.674 249.715 130.696C249.663 130.719 249.607 130.73 249.55 130.73H240.18C239.816 130.732 239.456 130.66 239.12 130.52C238.779 130.39 238.468 130.188 238.21 129.93C237.702 129.388 237.419 128.673 237.42 127.93V117.07C237.418 116.706 237.49 116.346 237.63 116.01C237.753 115.667 237.951 115.356 238.21 115.1C238.474 114.848 238.782 114.648 239.12 114.51C239.453 114.362 239.815 114.287 240.18 114.29H249.53C249.645 114.29 249.755 114.335 249.838 114.415C249.92 114.496 249.967 114.605 249.97 114.72V117.83C249.973 117.945 249.93 118.057 249.852 118.141C249.773 118.225 249.665 118.275 249.55 118.28H242C241.94 118.281 241.881 118.294 241.826 118.318C241.771 118.342 241.721 118.377 241.68 118.42Z" fill="#242425"/>
<path d="M263 121.23C262.98 121.252 262.969 121.281 262.969 121.31C262.969 121.34 262.98 121.368 263 121.39L268.44 130.39C268.47 130.429 268.486 130.476 268.486 130.525C268.486 130.574 268.47 130.621 268.44 130.66C268.412 130.699 268.374 130.73 268.33 130.749C268.286 130.768 268.237 130.776 268.19 130.77H264.29C264.159 130.769 264.03 130.731 263.92 130.66C263.801 130.6 263.704 130.506 263.64 130.39L260.13 124C260.13 123.91 260.04 123.91 260.01 124L258.07 126.13C257.979 126.227 257.91 126.343 257.87 126.47C257.818 126.597 257.791 126.733 257.79 126.87V130.34C257.802 130.443 257.774 130.546 257.713 130.63C257.652 130.713 257.561 130.771 257.46 130.79H254.18C254.078 130.804 253.974 130.778 253.892 130.716C253.809 130.654 253.755 130.562 253.74 130.46C253.73 130.421 253.73 130.379 253.74 130.34V114.76C253.726 114.658 253.752 114.554 253.814 114.472C253.876 114.39 253.968 114.335 254.07 114.32H257.42C257.522 114.306 257.625 114.332 257.708 114.394C257.79 114.456 257.845 114.548 257.86 114.65C257.87 114.686 257.87 114.724 257.86 114.76V121.76L263.91 114.68C263.979 114.574 264.067 114.483 264.17 114.41C264.295 114.351 264.431 114.32 264.57 114.32H268.46C268.59 114.32 268.66 114.32 268.69 114.41C268.72 114.5 268.69 114.56 268.61 114.65L263 121.23Z" fill="#242425"/>
<path d="M275.65 130.28C275.658 130.33 275.657 130.381 275.645 130.431C275.634 130.48 275.612 130.526 275.583 130.567C275.553 130.608 275.515 130.643 275.472 130.669C275.428 130.696 275.38 130.713 275.33 130.72H272C271.949 130.729 271.898 130.727 271.848 130.716C271.798 130.704 271.75 130.683 271.709 130.653C271.667 130.624 271.631 130.586 271.604 130.543C271.577 130.499 271.558 130.451 271.55 130.4V114.76C271.536 114.658 271.562 114.554 271.624 114.472C271.686 114.39 271.778 114.335 271.88 114.32H275.23C275.332 114.306 275.436 114.332 275.518 114.394C275.6 114.456 275.655 114.548 275.67 114.65C275.68 114.686 275.68 114.724 275.67 114.76L275.65 130.28Z" fill="#242425"/>
<path d="M291.4 114.54C292.055 114.817 292.578 115.337 292.86 115.99C293.004 116.324 293.076 116.686 293.07 117.05V130.27C293.073 130.327 293.064 130.384 293.044 130.437C293.024 130.49 292.993 130.539 292.954 130.58C292.915 130.621 292.868 130.654 292.815 130.676C292.763 130.699 292.707 130.71 292.65 130.71H289.41C289.353 130.714 289.295 130.705 289.241 130.685C289.188 130.664 289.14 130.632 289.1 130.59C289.021 130.502 288.978 130.388 288.98 130.27V118.72C288.984 118.662 288.975 118.603 288.952 118.549C288.93 118.495 288.895 118.448 288.85 118.41C288.766 118.332 288.655 118.289 288.54 118.29H283.9C283.782 118.288 283.668 118.331 283.58 118.41C283.537 118.449 283.503 118.497 283.481 118.551C283.458 118.604 283.448 118.662 283.45 118.72V130.28C283.464 130.382 283.437 130.486 283.376 130.568C283.314 130.651 283.222 130.705 283.12 130.72H279.77C279.669 130.734 279.567 130.709 279.485 130.649C279.403 130.59 279.347 130.5 279.33 130.4C279.32 130.361 279.32 130.319 279.33 130.28V114.76C279.316 114.658 279.342 114.554 279.404 114.472C279.466 114.389 279.558 114.335 279.66 114.32H290.37C290.725 114.318 291.077 114.393 291.4 114.54Z" fill="#242425"/>
<path d="M310.41 121.9C310.453 121.941 310.487 121.991 310.509 122.046C310.532 122.101 310.542 122.161 310.54 122.22V128C310.539 128.366 310.46 128.727 310.31 129.06C310.177 129.398 309.98 129.707 309.73 129.97C309.473 130.231 309.162 130.432 308.82 130.56C308.484 130.7 308.124 130.772 307.76 130.77H299.46C299.096 130.77 298.736 130.699 298.4 130.56C297.904 130.343 297.484 129.984 297.192 129.528C296.9 129.073 296.75 128.541 296.76 128V117.11C296.763 116.728 296.845 116.35 297 116C297.124 115.661 297.322 115.354 297.58 115.1C297.843 114.848 298.152 114.648 298.49 114.51C298.823 114.362 299.185 114.287 299.55 114.29H309.23C309.346 114.29 309.458 114.336 309.541 114.419C309.623 114.501 309.67 114.613 309.67 114.73V117.83C309.67 117.947 309.623 118.059 309.541 118.141C309.458 118.224 309.346 118.27 309.23 118.27H301.37C301.255 118.269 301.144 118.312 301.06 118.39C301.015 118.428 300.98 118.476 300.957 118.529C300.935 118.583 300.925 118.642 300.93 118.7V126.29C300.925 126.348 300.935 126.407 300.957 126.461C300.98 126.515 301.015 126.562 301.06 126.6C301.101 126.639 301.149 126.669 301.203 126.688C301.256 126.707 301.313 126.715 301.37 126.71H305.96C306.012 126.713 306.065 126.705 306.114 126.687C306.164 126.67 306.21 126.642 306.249 126.607C306.288 126.572 306.319 126.529 306.342 126.482C306.364 126.434 306.377 126.383 306.38 126.33V122.19C306.377 122.133 306.386 122.076 306.406 122.023C306.426 121.97 306.456 121.921 306.495 121.88C306.535 121.839 306.582 121.806 306.634 121.784C306.687 121.761 306.743 121.75 306.8 121.75H310.08C310.142 121.749 310.204 121.763 310.261 121.789C310.318 121.814 310.369 121.853 310.41 121.9Z" fill="#242425"/>
<path d="M98.8499 1.41003C102.969 3.16572 106.249 6.44867 108 10.57C108.93 12.6741 109.41 14.9494 109.41 17.25V103.31C109.415 104.046 109.129 104.753 108.613 105.278C108.098 105.803 107.395 106.102 106.66 106.11H85.9999C85.639 106.125 85.2795 106.059 84.9473 105.917C84.6152 105.775 84.3189 105.561 84.0799 105.29C83.5809 104.746 83.3153 104.028 83.3399 103.29V25.12H66.7899V103.34C66.8092 104.077 66.5443 104.793 66.0499 105.34C65.8059 105.607 65.5073 105.819 65.1742 105.96C64.8412 106.102 64.4816 106.17 64.1199 106.16H45.4699C45.1048 106.165 44.7423 106.099 44.4029 105.964C44.0636 105.829 43.7542 105.629 43.4923 105.374C43.2305 105.12 43.0213 104.816 42.8767 104.481C42.7322 104.146 42.6551 103.785 42.6499 103.42V25.12H26.0699V103.34C26.1234 103.722 26.0873 104.112 25.9644 104.478C25.8414 104.844 25.635 105.177 25.3615 105.449C25.088 105.722 24.7548 105.927 24.3883 106.049C24.0219 106.17 23.6321 106.205 23.2499 106.15H2.81989C2.43767 106.205 2.04792 106.17 1.68144 106.049C1.31496 105.927 0.981792 105.722 0.708265 105.449C0.434737 105.177 0.228348 104.844 0.105406 104.478C-0.017535 104.112 -0.0536591 103.722 -0.000111071 103.34V2.81003C-0.0536591 2.42762 -0.017535 2.038 0.105406 1.67195C0.228348 1.30591 0.434737 0.973469 0.708265 0.700911C0.981792 0.428354 1.31496 0.223147 1.68144 0.101506C2.04792 -0.0201339 2.43767 -0.0548737 2.81989 3.24827e-05H92.1099C94.4308 -0.0104172 96.7278 0.470096 98.8499 1.41003Z" fill="#E73427"/>
<path d="M199.19 80.38C199.563 80.3722 199.933 80.442 200.277 80.5849C200.621 80.7278 200.932 80.9406 201.19 81.21C201.709 81.7643 201.989 82.5007 201.97 83.26V103.26C201.983 104.003 201.703 104.722 201.19 105.26C200.934 105.532 200.624 105.748 200.279 105.892C199.935 106.037 199.564 106.108 199.19 106.1H128.69C126.69 106.1 125.69 105.1 125.69 103.22V2.88C125.69 0.96 126.69 0 128.69 0H150.33C152.33 0 153.33 1 153.33 2.88V77.65C153.319 78.0308 153.395 78.4091 153.552 78.7558C153.71 79.1025 153.945 79.4085 154.24 79.65C154.822 80.1623 155.575 80.4371 156.35 80.42L199.19 80.38Z" fill="#1D539F"/>
<path d="M307.54 2.52615e-05C307.935 -0.010895 308.328 0.0578586 308.695 0.202181C309.063 0.346504 309.398 0.563436 309.68 0.840025C309.967 1.099 310.196 1.41529 310.353 1.76842C310.509 2.12155 310.59 2.50366 310.59 2.89003V103.57C310.59 103.956 310.509 104.338 310.353 104.692C310.196 105.045 309.967 105.361 309.68 105.62C309.398 105.897 309.063 106.114 308.695 106.258C308.328 106.402 307.935 106.471 307.54 106.46H285.62C285.227 106.47 284.835 106.401 284.469 106.257C284.104 106.112 283.77 105.896 283.49 105.62C283.2 105.364 282.968 105.048 282.811 104.694C282.654 104.341 282.575 103.957 282.58 103.57V68.44C282.597 68.0698 282.535 67.7003 282.399 67.3556C282.263 67.0109 282.055 66.6989 281.79 66.44C281.516 66.1833 281.194 65.9838 280.842 65.8533C280.49 65.7228 280.115 65.6639 279.74 65.68H249C248.219 65.6551 247.458 65.9266 246.87 66.44C246.576 66.6821 246.341 66.9881 246.183 67.3347C246.026 67.6813 245.949 68.0594 245.96 68.44V103.57C245.96 105.49 244.96 106.46 242.96 106.46H221.2C219.2 106.46 218.2 105.46 218.2 103.57V2.89003C218.2 0.960025 219.2 2.52615e-05 221.2 2.52615e-05H243C245 2.52615e-05 246 1.00003 246 2.89003V37C246 38.92 247 39.88 249 39.88H279.81C280.192 39.8931 280.573 39.8261 280.928 39.6831C281.283 39.5402 281.604 39.3245 281.87 39.05C282.377 38.5076 282.66 37.7927 282.66 37.05V2.89003C282.655 2.50393 282.733 2.12129 282.888 1.76774C283.044 1.41419 283.273 1.09789 283.56 0.840025C284.109 0.299169 284.849 -0.00276962 285.62 2.52615e-05H307.54Z" fill="#F8B92A"/>
</svg>
