<svg width="1672" height="1672" viewBox="0 0 1672 1672" fill="none" xmlns="http://www.w3.org/2000/svg">
<circle cx="836" cy="836" r="836" fill="black"/>
<path d="M1484.8 756.68L1421.99 917.107C1420.63 921.108 1418.5 924.266 1415.59 926.581C1412.88 928.687 1406.71 929.739 1403.41 929.739C1398.18 929.739 1394.3 928.16 1391.78 925.002C1389.26 921.844 1388 917.95 1388 913.318C1388 911.423 1388.29 909.423 1388.87 907.318L1461.28 718.469C1462.83 714.258 1465.16 710.995 1468.26 708.679C1471.55 706.363 1475.04 705.415 1478.73 705.837C1482.22 705.837 1485.42 706.994 1488.32 709.31C1491.43 711.416 1493.65 714.468 1495.01 718.469L1566.55 903.528C1567.52 906.265 1568 908.792 1568 911.107C1568 916.792 1566.26 921.318 1562.77 924.687C1559.47 928.055 1555.79 929.739 1551.72 929.739C1548.23 929.739 1543.03 928.581 1540.12 926.266C1537.41 923.95 1535.27 920.792 1533.72 916.792L1471.2 758.575L1484.8 756.68ZM1431.01 878.58L1447 842.263L1520.35 842.263L1525.87 878.58H1431.01Z" fill="white"/>
<path d="M1232.91 708.739H1336.76C1342.13 708.739 1345.58 710.496 1349.09 714.009C1352.81 717.316 1354.67 721.656 1354.67 727.029C1354.67 732.196 1352.81 738.433 1349.09 741.739C1345.58 744.839 1342.13 746.389 1336.76 746.389H1249.96L1252.75 741.119V800.569L1250.27 798.089H1322.81C1328.18 798.089 1332.63 799.846 1336.14 803.359C1339.86 806.666 1341.72 813.006 1341.72 818.379C1341.72 823.546 1339.86 828.782 1336.14 832.089C1332.63 835.189 1328.18 836.739 1322.81 836.739H1251.2L1252.75 834.259V891.879L1250.27 889.089H1336.76C1342.13 889.089 1346.58 890.949 1350.09 894.669C1353.81 898.182 1355.67 903.316 1355.67 908.069C1355.67 913.236 1353.81 918.472 1350.09 921.779C1346.58 925.086 1342.13 926.739 1336.76 926.739H1232.91C1227.54 926.739 1222.99 924.982 1219.27 921.469C1215.76 917.749 1214 912.202 1214 906.829V727.649C1214 722.276 1215.76 717.833 1219.27 714.319C1222.99 710.599 1227.54 708.739 1232.91 708.739Z" fill="white"/>
<path d="M1082.42 927.739C1076.63 927.739 1072.88 925.982 1069.16 922.469C1065.44 918.749 1063.58 914.202 1063.58 908.829V729.029H1102.88V908.829C1102.88 914.202 1100.92 918.749 1096.99 922.469C1093.27 925.982 1088.41 927.739 1082.42 927.739ZM1014.91 747.389C1009.54 747.389 1004.99 745.736 1001.27 742.429C997.757 739.123 996 733.783 996 728.409C996 723.036 997.757 715.799 1001.27 712.699C1004.99 709.393 1009.54 707.739 1014.91 707.739H1151.55C1156.92 707.739 1161.37 709.393 1164.88 712.699C1168.6 716.006 1170.46 723.346 1170.46 728.719C1170.46 734.093 1168.6 739.433 1164.88 742.739C1161.37 745.839 1156.92 747.389 1151.55 747.389H1014.91Z" fill="white"/>
<path d="M885.692 926.727C867.991 926.934 852.619 924.457 839.575 919.295C826.532 914.132 814.071 906.39 802.192 896.067C801.028 895.24 799.98 894.208 799.048 892.97C798.349 891.731 798 890.285 798 888.634C798 886.156 799.048 883.885 801.144 881.82C803.474 879.755 806.036 878.723 808.831 878.723C811.626 878.723 814.188 879.755 816.517 881.82C825.6 890.492 835.849 897.099 847.262 901.641C858.907 906.184 871.368 908.455 884.644 908.455C895.824 908.455 905.723 906.906 914.341 903.809C923.191 900.712 930.179 896.273 935.303 890.492C940.428 884.71 942.99 878.001 942.99 870.361C942.99 860.863 940.078 853.224 934.255 847.443C928.432 841.456 920.746 836.603 911.197 832.887C901.647 828.963 891.049 825.454 879.404 822.357C869.854 819.879 860.771 817.092 852.153 813.995C843.535 810.691 835.849 806.769 829.094 802.226C822.34 797.477 817.099 791.696 813.372 784.882C809.646 778.069 807.782 769.81 807.782 760.106C807.782 749.163 811.043 739.459 817.565 730.994C824.087 722.528 833.287 715.921 845.165 711.172C857.277 706.217 863.5 704.739 879.753 704C893.495 704 906.655 706.065 919.232 710.194C932.043 714.323 942.175 720.414 949.628 728.467C953.121 731.77 954.868 734.764 954.868 737.448C954.868 739.513 953.704 741.578 951.374 743.642C949.045 745.707 946.483 746.739 943.688 746.739C941.359 746.739 939.38 746.017 937.749 744.571C933.79 740.236 928.781 736.416 922.726 733.112C916.671 729.602 909.915 726.918 902.462 725.06C895.242 723.202 887.672 722.273 879.753 722.273C868.5 722.739 866.244 723.561 857.393 726.658C848.775 729.548 841.905 733.781 836.78 739.356C831.889 744.93 829.444 751.641 829.444 759.486C829.444 768.158 832.238 775.281 837.828 780.856C843.418 786.431 850.755 791.076 859.839 794.793C868.923 798.303 878.589 801.606 888.837 804.703C898.852 807.181 908.402 810.071 917.485 813.375C926.802 816.472 934.954 820.396 941.941 825.144C949.162 829.893 954.752 835.881 958.711 843.107C962.904 850.333 965 859.418 965 870.361C965 880.891 961.622 890.389 954.868 898.854C948.114 907.319 938.797 914.03 926.918 918.985C915.273 923.94 901.531 926.521 885.692 926.727Z" fill="white"/>
<path d="M625.04 927.739C621.94 927.739 619.357 926.809 617.29 924.949C615.43 923.089 614.5 920.919 614.5 918.439V718.039C614.5 715.559 615.43 713.389 617.29 711.529C619.15 709.669 621.32 708.739 623.8 708.739H687.499C699.279 708.739 709.819 711.323 719.119 716.489C728.419 721.449 735.652 729.373 740.819 738.259C746.192 747.146 748.879 757.169 748.879 768.329C748.879 777.423 747.226 788.793 743.919 796.439C740.612 804.086 735.962 810.596 729.969 815.969C723.976 821.136 717.259 824.959 709.819 827.439L698.969 823.029C706.616 823.649 713.746 824.129 720.359 828.469C726.972 832.602 732.242 838.389 736.169 845.829C740.302 853.062 743.919 865.239 744.409 871.239C744.616 880.126 745.029 887.049 745.649 892.009C746.476 896.969 747.552 899.759 748.999 902.239C750.446 904.719 752.726 904.292 754.999 905.739C757.066 906.979 758.879 908.466 759.499 910.739C760.326 913.012 759.739 917.282 758.499 919.349C757.672 921.002 756.432 922.242 754.779 923.069C753.332 923.689 751.782 923.999 750.129 923.999C748.476 923.999 744.152 923.896 742.499 923.069C739.606 921.416 737.599 920.752 734.499 917.239C731.606 913.726 731.066 912.559 728.999 905.739C727.139 898.919 726.81 884.602 725.499 872.479C724.5 863.239 722.426 858.746 719.739 853.579C717.259 848.412 713.952 844.486 709.819 841.799C705.892 838.906 701.449 836.942 696.489 835.909C691.736 834.669 687.189 834.049 682.849 834.049H630.62L635.03 829.709V918.439C635.03 920.919 634.203 923.089 632.55 924.949C630.897 926.809 627.727 927.739 625.04 927.739ZM630.62 815.999H688.429C695.456 815.379 702.069 813.106 708.269 809.179C714.469 805.046 719.429 799.466 723.149 792.439C727.076 785.413 729.039 778.249 729.039 768.949C729.039 757.169 725.009 748.456 716.949 740.809C709.096 732.956 698.762 729.029 685.949 729.029H632.86L635.03 724.689V820.339L630.62 815.999Z" fill="white"/>
<path d="M547.53 918.129C547.323 920.816 546.187 923.089 544.12 924.949C542.26 926.809 540.09 927.739 537.61 927.739C534.717 927.739 532.34 926.809 530.48 924.949C528.827 923.089 528 920.816 528 918.129V718.349C528 715.663 528.93 713.389 530.79 711.529C532.65 709.669 535.027 708.739 537.92 708.739C540.4 708.739 542.57 709.669 544.43 711.529C546.497 713.389 547.53 715.663 547.53 718.349V918.129Z" fill="white"/>
<path d="M318.06 708.239C320.54 708.239 323.71 709.169 325.57 711.029C327.637 712.889 328.67 715.163 328.67 717.849V918.129C328.463 920.816 327.327 923.089 325.26 924.949C323.4 926.809 320.23 927.739 317.75 927.739C314.857 927.739 311.48 926.809 309.62 924.949C307.967 923.089 307.14 920.816 307.14 918.129V717.849C307.14 715.163 308.07 712.889 309.93 711.029C311.79 709.169 315.167 708.239 318.06 708.239ZM444.69 708.24C447.583 708.24 450.857 709.17 452.51 711.03C454.37 712.89 455.3 715.163 455.3 717.85V918.129C455.093 920.816 454.06 923.089 452.2 924.949C450.547 926.809 447.273 927.739 444.38 927.739C441.693 927.739 438.42 926.809 436.56 924.949C434.7 923.089 433.77 920.816 433.77 918.129V717.85C433.77 715.163 434.7 712.89 436.56 711.03C438.627 709.17 442.003 708.24 444.69 708.24ZM316.51 807.769L445 807.769L444.69 827.74L315.27 827.739L316.51 807.769Z" fill="white"/>
<path d="M175.08 927.739C171.187 927.739 168.81 926.809 166.95 924.949C165.297 923.089 164.47 920.919 164.47 918.439V719.969H184.69V918.439C184.69 920.919 183.76 923.089 181.9 924.949C180.04 926.809 177.767 927.739 175.08 927.739ZM101.3 728.409C98.82 728.409 96.65 727.583 94.79 725.929C92.93 724.276 92 721.106 92 718.419C92 715.939 92.93 711.873 94.79 710.219C96.65 708.566 98.82 707.739 101.3 707.739H248.86C251.34 707.739 253.51 708.566 255.37 710.219C257.23 711.873 258.16 716.043 258.16 718.729C258.16 721.416 257.23 724.586 255.37 726.239C253.51 727.686 251.34 728.409 248.86 728.409H101.3Z" fill="white"/>
</svg>
