<svg width="609" height="609" viewBox="0 0 556 609" fill="none" xmlns="http://www.w3.org/2000/svg">
<path d="M252.911 191.893C268.288 193.214 279.581 203.316 283.027 218.548C283.76 221.787 284.11 225.115 284.914 228.333C285.855 232.099 287.809 234.507 292.07 232.186C293.339 233.845 292.564 235.295 291.833 236.476C289.384 240.435 291.573 240.704 294.832 240.758C307.063 240.962 307.085 241.019 305.841 253.502C303.976 272.226 302.088 290.949 300.184 309.669C299.53 316.099 297.511 322.241 296.963 328.793C296.325 336.426 290.403 340.858 282.79 342.225C276.399 343.373 269.979 344.45 263.527 345.142C260.047 345.515 259.11 346.813 259.441 350.22C261.037 366.623 262.417 383.047 263.872 399.464C264.034 401.289 264.247 403.112 264.331 404.941C264.62 411.274 261.895 415.555 257.072 416.433C252.262 417.31 247.859 413.778 246.267 407.528C243.596 397.039 241.073 386.513 238.43 376.017C236.136 366.903 233.763 357.808 231.095 347.422C226.573 353.677 222.81 358.889 219.041 364.096C215.625 368.815 212.262 373.574 208.769 378.235C204.766 383.576 199.549 385.184 195.026 382.629C189.962 379.769 188.61 374.312 191.843 367.82C199.037 353.372 206.448 339.032 213.748 324.637C216.95 318.323 216.892 318.258 209.815 318.237C202.546 318.215 202.269 318.223 202.076 310.777C201.963 306.422 200.353 304.178 196.221 302.911C191.623 301.501 187.088 299.716 182.77 297.597C175.555 294.056 175.111 286.391 181.7 281.65C185.884 278.638 190.131 275.701 194.473 272.924C197.015 271.298 197.981 269.461 197.546 266.321C196.61 259.565 196.303 252.723 195.412 245.959C194.867 241.822 196.525 240.462 200.371 240.695C202.528 240.826 204.701 240.682 206.867 240.692C213.015 240.721 212.997 240.73 211.926 234.811C211.748 233.829 210.976 232.013 213.107 232.601C218.791 234.168 219.284 229.965 219.837 226.452C220.8 220.327 221.915 214.368 225.062 208.864C231.169 198.183 239.993 192.122 252.911 191.893Z" fill="#3C3C3C"/>
<path d="M120.171 223.648C120.354 224.982 120.462 225.979 120.632 227.346C121.023 229.028 120.939 230.384 121.183 232.041C121.385 233.339 121.541 234.305 121.745 235.636C121.954 236.792 121.982 237.599 122.141 238.693C122.288 239.987 122.379 240.986 122.541 242.354C122.814 243.585 123.021 244.445 123.064 245.666C126.557 272.364 130.019 298.732 133.539 325.388C134.12 327.234 134.755 328.767 134.709 329.601C134.509 327.005 136.408 323.864 136.294 320.059C136.525 318.413 136.682 317.102 136.863 315.394C137.096 313.543 136.926 312.069 137.179 310.306C137.468 307.927 137.698 305.856 137.956 303.392C138.014 302.198 138.005 301.393 138.134 300.295C140.451 275.123 142.803 250.256 144.923 225.37C145.242 221.616 146.271 220.063 150.276 220.393C154.91 220.773 159.61 220.692 164.259 220.425C167.378 220.245 167.941 221.524 167.621 224.206C164.582 249.666 161.543 275.126 158.601 300.598C155.601 326.566 152.631 352.54 149.856 378.533C149.458 382.267 148.43 383.734 144.461 383.466C139.156 383.108 133.801 383.314 128.477 383.515C125.524 383.626 124.18 383.031 123.768 379.6C121.581 361.416 119.04 343.274 116.515 324.691C116.336 323.693 116.105 323.153 116.069 322.286C115.861 320.245 115.649 318.492 115.39 316.367C115.211 315.563 115.122 315.122 115.07 314.336C114.961 312.985 114.852 311.972 114.692 310.58C114.433 308.329 114.035 307.264 113.988 305.379C113.889 304.306 113.797 303.61 113.639 302.57C113.4 301 112.986 299.921 113.005 298.359C112.899 296.993 112.795 295.986 112.628 294.604C112.374 292.5 112.041 291.389 112 289.5C111.762 287.653 111.289 286.336 111 284.5C110.77 283.772 110.776 282.543 110.5 282C110.389 281.781 110.481 281.537 109.836 281.723C109.676 281.769 109.947 281.558 109.5 282C104.865 313.854 100.076 346.208 95.845 377.89C95.2856 382.079 94.0941 383.984 89.4431 383.511C84.4992 383.01 79.4535 383.246 74.4694 383.5C71.2967 383.661 70.162 382.598 69.7819 379.406C66.7522 353.957 63.5206 328.532 60.3932 303.094C57.2044 277.157 54.1347 251.205 50.8221 225.285C50.3473 221.569 50.9266 220.078 54.9792 220.393C59.284 220.728 63.6507 220.722 67.9587 220.418C71.5409 220.164 72.8385 221.221 73.1731 224.97C74.5195 240.056 76.2445 255.107 77.8776 270.586C78.0114 272.109 77.9531 273.226 78.1496 274.66C78.4025 276.74 78.594 278.492 78.8278 280.622C78.9723 281.798 78.982 282.603 79.164 283.693C79.2744 284.993 79.3205 285.998 79.4342 287.375C80.2094 289.514 79.8893 291.388 80.1188 293.601C80.34 295.424 80.5092 296.856 80.722 298.646C81.1026 300.444 80.9107 301.92 81.1016 303.683C82.0136 312.055 82.8832 320.116 83.7771 328.597C84.0696 329.706 84.2123 330.446 84.6535 331.062C85.1228 330.605 85.0306 329.901 85.5221 329.093C85.8892 326.568 86.1219 324.345 86.3805 321.704C87.6068 318.821 86.474 316.054 87.5895 313.205C87.8221 312.143 87.8702 311.429 87.9332 310.357C87.9811 309.553 88.0216 309.107 88.1167 308.329C88.3797 306.57 88.5956 305.143 88.8435 303.357C88.995 302.124 88.9981 301.236 89.2253 300.041C89.4554 298.726 89.6358 297.738 89.8546 296.374C90 295.199 90.0014 294.39 90.1793 293.296C90.778 288.941 91.3189 284.883 91.9021 280.413C91.9781 279.553 92.0172 279.108 92.1032 278.33C92.3691 276.57 92.5932 275.144 92.8557 273.358C92.9974 272.121 92.9982 271.234 93.2153 270.035C93.4497 268.402 93.6382 267.096 93.8664 265.395C93.9982 264.122 93.9992 263.237 94.1907 262.038C94.7815 257.753 95.3322 253.796 95.9086 249.419C95.987 248.421 96.082 247.85 96.2797 247.005C96.4241 245.723 96.5366 244.729 96.6779 243.36C97.1575 241.511 96.8555 239.95 97.3415 238.103C97.5596 237.054 97.6741 236.371 97.8134 235.342C97.9899 234.127 98.0008 233.242 98.1266 232.038C100.064 220.603 100.064 220.608 111.432 220.595C113.578 220.592 115.724 220.53 118.257 220.504C120.182 220.899 119.827 222.268 120.171 223.648Z" fill="#575757"/>
<path d="M435.554 296C436.005 279.046 434.34 262.518 437.839 246.176C443.032 221.915 468.112 210.562 489.838 222.817C496.588 226.625 500.644 232.592 502.974 239.787C507.443 253.585 505.705 267.853 505.973 281.966C506.005 283.641 505.095 284.336 503.485 284.337C497.32 284.341 491.154 284.332 484.989 284.395C481.956 284.426 482.108 282.401 482.079 280.308C481.959 271.648 481.859 262.986 481.579 254.331C481.499 251.857 480.966 249.373 480.413 246.946C479.429 242.619 476.347 240.447 472.161 240.23C467.763 240.003 464.414 242.03 462.861 246.336C461.085 251.263 460.729 256.426 460.735 261.608C460.766 289.436 460.825 317.264 460.885 345.093C460.893 349.111 461.359 353.074 462.546 356.929C463.876 361.248 466.743 363.729 471.325 363.645C475.814 363.562 478.779 361.228 480.139 356.879C481.805 351.553 481.928 346.045 482.031 340.556C482.159 333.726 482.228 326.886 481.984 320.063C481.856 316.478 483.162 315.428 486.603 315.584C492.092 315.832 497.6 315.749 503.097 315.636C505.357 315.59 506.522 316.155 506.462 318.655C506.149 331.626 507.394 344.669 504.706 357.528C500.847 375.984 490.806 384.732 472.873 385.328C454.936 385.925 443.066 377.006 438.148 359.278C435.896 351.157 435.628 342.829 435.575 334.494C435.495 321.83 435.554 309.164 435.554 296Z" fill="#575757"/>
<path d="M392.014 256.962C392.052 259.106 392.089 260.772 392.117 262.438C392.302 273.285 392.302 273.285 381.196 273.28C369.334 273.275 369.326 273.275 369.337 261.344C369.342 256.5 369.056 251.677 367.998 246.944C367.077 242.825 364.811 240.109 360.238 239.765C355.527 239.41 351.816 240.994 350.319 245.552C347.043 255.529 347.98 265.002 355.158 273.162C362.631 281.658 370.422 289.875 377.846 298.413C395.611 318.841 398.317 342.209 390.304 367.226C386.339 379.604 375.213 385.714 359.549 385.29C340.742 384.782 331.153 376.682 327.425 358.191C325.267 347.488 325.549 336.65 325.531 325.823C325.528 323.684 326.362 322.916 328.523 322.962C334.186 323.081 339.857 323.149 345.515 322.955C348.599 322.849 349.05 324.31 349.048 326.893C349.042 335.88 348.42 344.908 350.109 353.818C350.939 358.191 352.354 362.303 357.473 363.469C364.241 365.011 368.623 362.057 369.775 354.757C372.224 339.235 368.902 325.372 357.808 313.689C350.822 306.331 343.5 299.289 337.137 291.334C324.062 274.987 322.817 256.652 328.275 237.43C331.172 227.228 338.7 221.499 349.044 219.453C354.149 218.443 359.31 218.168 364.469 218.672C379.896 220.18 388.042 228.067 390.664 244.072C391.336 248.172 391.572 252.345 392.014 256.962Z" fill="#575757"/>
<path d="M227.375 344.383C220.089 354.535 212.998 364.384 205.884 374.217C205.108 375.29 204.305 376.379 203.344 377.277C201.457 379.041 199.242 379.605 197.015 378.005C194.896 376.481 194.129 374.33 195.297 371.857C197.286 367.649 199.332 363.466 201.442 359.317C209.429 343.604 217.457 327.913 225.454 312.205C226.291 310.561 227.195 309.008 228.703 307.86C232.444 305.014 235.275 305.461 237.65 309.455C241.541 315.997 245.355 322.584 249.054 328.9C248.354 330.373 247.425 330.331 246.734 329.999C240.539 327.028 236.921 329.924 233.929 335.162C232.127 338.316 229.706 341.116 227.375 344.383Z" fill="#F3F3F3"/>
<path d="M256.019 364.858C257.12 377.252 258.191 389.183 259.253 401.114C259.4 402.771 259.548 404.43 259.617 406.091C259.723 408.645 258.936 411.046 256.265 411.503C253.314 412.009 251.753 409.884 251.08 407.193C245.871 386.371 240.611 365.562 235.518 344.711C234.165 339.168 240.212 333.458 245.7 334.67C255.342 336.802 253.389 336.104 254.249 344.504C254.926 351.124 255.414 357.764 256.019 364.858Z" fill="#F3F3F3"/>
<path d="M237.174 240.901C231.952 241.702 230.606 239.415 230.92 235.015C231.252 230.348 231.898 225.76 232.912 221.202C233.462 218.728 234.41 217.609 236.99 219.241C247.148 225.667 257.364 225.71 267.487 219.183C269.729 217.738 270.606 218.376 271.333 220.708C273.098 226.362 273.358 232.134 273.233 237.989C273.168 241.036 271.144 240.891 269.108 240.893C258.622 240.901 248.136 240.899 237.174 240.901Z" fill="#EBEBEB"/>
<path d="M254.059 270.667C258.674 272.715 260.994 275.988 260.383 280.643C259.873 284.529 257.492 287.302 253.626 288.495C249.68 289.713 246.366 288.43 243.807 285.413C241.192 282.331 240.839 278.674 242.724 275.185C245.054 270.873 248.912 269.433 254.059 270.667Z" fill="#F0F0F0"/>
<path d="M198.646 290.301C199.279 290.636 199.659 290.798 199.76 291.065C200.644 293.404 201.754 296.356 200.337 298.158C198.599 300.368 196.195 297.691 194.176 297.058C190.881 296.024 187.663 294.643 184.572 293.092C181.186 291.393 181.045 288.458 183.633 286.26C187.522 282.956 191.909 280.233 196.132 277.333C197.185 276.61 198.7 276.449 198.743 278.114C198.803 280.502 201.12 283.331 198.06 285.235C196.946 285.929 194.839 285.224 194.775 287.377C194.708 289.67 196.773 289.64 198.646 290.301Z" fill="#EBEBEB"/>
<path d="M266.057 238.716C262.876 237.469 260.059 236.612 256.959 237.438C255.389 237.856 253.769 237.579 253.412 235.715C253.043 233.788 254.641 233.308 256.131 232.824C260.05 231.552 263.833 232.27 267.183 234.228C269.932 235.836 270.072 237.839 266.057 238.716Z" fill="#575757"/>
<path d="M248.095 237.212C244.233 237.48 240.637 236.81 237.113 238.114C236.212 238.448 235.137 238.081 234.608 237.009C234.19 236.161 234.44 235.421 234.941 234.703C236.932 231.85 246.003 231.479 248.248 234.206C248.92 235.022 249.044 236.01 248.095 237.212Z" fill="#575757"/>
<path d="M546 427C433 656 123.5 656.5 11 427" stroke="#F9E272" stroke-width="10" stroke-linecap="round"/>
<path d="M10.5 182C123.5 -47 433 -47.4999 545.5 182" stroke="#F9E272" stroke-width="10" stroke-linecap="round"/>
<path d="M44 186.94C143.176 -12.762 414.813 -13.1979 513.55 186.94" stroke="#F9E272" stroke-width="10" stroke-linecap="round"/>
<path d="M513.55 421.999C414.374 621.701 142.737 622.137 43.9998 421.999" stroke="#F9E272" stroke-width="10" stroke-linecap="round"/>
</svg>
