<svg width="512" height="512" viewBox="0 0 512 512" fill="none" xmlns="http://www.w3.org/2000/svg">
<g clip-path="url(#clip0_1_2)">
<path d="M484.234 256C484.234 381.781 382.27 483.746 256.488 483.746C130.711 483.746 28.7461 381.781 28.7461 256C28.7461 130.219 130.711 28.2539 256.488 28.2539C382.27 28.2539 484.234 130.219 484.234 256Z" fill="#1B2939"/>
<path d="M256 0C114.605 0 0 114.605 0 256C0 397.395 114.605 512 256 512C397.395 512 512 397.395 512 256C512 114.605 397.379 0 256 0ZM256 484.246C129.934 484.246 27.7539 382.055 27.7539 256C27.7539 129.945 129.934 27.7539 256 27.7539C382.066 27.7539 484.246 129.945 484.246 256C484.246 382.055 382.055 484.246 256 484.246Z" fill="#E7EEF4"/>
<path d="M360.195 219.992C361.723 219.609 363.152 220.883 362.945 222.445L358.281 258.309V258.316L356.461 272.27L345.289 358.188C345.094 359.68 343.828 360.797 342.316 360.797H326.105C324.266 360.797 322.859 359.156 323.145 357.34L333.457 283.422L301.059 293.594L278.27 359.562C277.879 360.812 276.719 361.66 275.41 361.66L258.777 366.559C256.711 366.559 255.266 364.52 255.949 362.57L276.688 303.426L281.395 290L297.008 245.469C297.484 244.109 298.379 242.934 299.559 242.105L313.207 237.551C314.465 236.668 316.125 237.887 315.664 239.352L303.371 280.086L335.633 269.57L343.715 228.973C344.105 226.813 345.727 225.082 347.855 224.551L360.184 220L360.195 219.992Z" fill="#E7EEF4"/>
<path d="M286.25 252L261.691 320.859C259.52 328.977 234.543 333.875 227 332.391C243.359 314.281 268.828 280.488 244.309 262.547C244.5 262.063 244.859 261.656 245.316 261.418L283.152 249.441C284.863 248.535 286.816 250.148 286.25 252Z" fill="#87A9C7"/>
<path d="M186.559 287.176C185.898 287.629 186.441 288.656 187.191 288.379L196.449 284.824L170.352 349.531C169.117 352.59 171.777 355.777 174.996 355.129C189.559 352.164 222.234 341.141 240.586 300.941C268.973 238.773 186.559 287.176 186.559 287.176ZM223.367 300.941C220.617 315.68 209.172 321.937 202.898 324.305C201.164 324.949 199.43 323.348 199.977 321.57L209.848 289.613C210.098 288.762 210.848 288.145 211.73 288.055C215.621 287.66 225.805 287.836 223.367 300.941Z" fill="#E7EEF4"/>
<path d="M245.289 337.203C250.48 336.961 255.285 334.598 258.18 332.844C259.094 332.293 260.199 333.199 259.844 334.207L248.168 368.219C247.953 370.586 249.695 372.684 252.066 372.898L274.809 368.16C276.125 368.281 276.914 369.656 276.379 370.867C268.941 387.727 260.809 409.902 260.82 427.43C260.82 428.566 259.855 429.457 258.727 429.355L238.211 428.371C237.324 428.289 236.602 427.605 236.473 426.727C232.773 400.523 235.488 365.754 244.301 338.348C244.461 337.848 244.82 337.434 245.293 337.203H245.289Z" fill="#87A9C7"/>
<path d="M313.398 349.914C316.801 347.797 321.105 350.629 320.527 354.582L319.113 364.285C319.113 366.664 321.043 368.594 323.422 368.594H340.316C341.637 368.594 342.547 369.898 342.125 371.152C336.258 388.621 335.102 406.078 336.715 423.531C336.816 424.664 335.941 425.637 334.805 425.637H314.242C313.352 425.637 312.57 425.027 312.363 424.152C306.734 400.289 307.004 375.926 312.539 351.129C312.652 350.629 312.957 350.184 313.391 349.914H313.398Z" fill="#87A9C7"/>
<path d="M165.129 370.574C165.129 370.574 197.809 361.301 223.434 336.023C226.387 333.109 231.457 337.172 231.148 341.309C230.508 349.937 207.699 374.664 188.895 388.578C169.531 402.906 163.227 425.617 161.41 434.754C160.945 437.086 158.898 438.754 156.523 438.754H148.082C144.926 438.754 142.559 435.852 143.199 432.754L148.09 409.156L147.012 406.645C145.59 403.328 146.438 399.48 149.117 397.066L156.145 390.738L159.609 376.887C160.324 374.02 162.379 371.672 165.121 370.578L165.129 370.574Z" fill="#87A9C7"/>
<path d="M389.195 175.801L386.242 166.926C385.695 165.324 383.906 164.531 382.375 165.219L374.883 168.543C374.883 168.543 355.313 161.637 331.141 171.992C316.168 161.637 306.957 167.203 306.957 167.203C306.957 167.203 305.809 190.418 329.98 184.66C331.098 184.395 316.469 266.398 316.469 266.398L333.148 258.348L340.402 220.348L339.191 197.324L363.363 197.516L388.195 178.988C389.18 178.254 389.59 176.961 389.195 175.801ZM313.598 171.773C313.598 171.773 325.41 172.758 325.383 177.402L313.598 171.773ZM340.957 174.578C340.957 174.578 351.801 169.953 351.801 173.242C351.801 179.121 340.957 174.578 340.957 174.578Z" fill="#87A9C7"/>
<path d="M364.52 159.332L385.242 146.672L379.488 123.648L357.613 104.078L378.336 117.887L373.73 97.1719L363.367 83.875L378.336 96.0156L389.34 131.559L397.906 120.195L403.66 104.078V123.309L390.996 137.461L394.453 148.973L377.184 162.785L364.52 159.332Z" fill="#87A9C7"/>
<path d="M340.344 160.484L320.773 148.973L326.531 125.949L348.406 106.379L327.684 120.195L332.289 99.4727L342.645 86.1758L327.684 98.3203L316.672 133.859L308.113 122.496L302.352 106.379V125.617L315.02 139.762L311.566 151.277L328.836 165.094L340.344 160.484Z" fill="#87A9C7"/>
<path d="M212.191 378.512C206.938 385.09 197.957 393.227 190.973 396.766C190.602 397.211 190.387 397.773 190.387 398.352C190.316 413.648 199.969 419.918 208.73 432.129C209.32 432.949 210.367 433.312 211.348 433.062L222.824 430.492C224.141 430.148 224.934 428.809 224.59 427.488C222.527 419.566 216.18 398.437 216.535 380.129C216.578 377.812 213.684 376.738 212.191 378.508V378.512Z" fill="#87A9C7"/>
<path d="M121.895 308.984C121.895 308.984 141.273 285.387 160.098 285.387C175.359 285.387 186.547 296.16 186.547 296.16L180.668 311.344L161.078 303.508L145.762 311.098V305.438L121.895 308.984Z" fill="#87A9C7"/>
</g>
<defs>
<clipPath id="clip0_1_2">
<rect width="512" height="512" fill="white"/>
</clipPath>
</defs>
</svg>
