<svg viewBox="0 0 377 183" fill="none" xmlns="http://www.w3.org/2000/svg">
<path d="M89.8481 91.4362L151.085 55.9993C165.384 47.6063 170.358 29.2662 161.965 14.9671C153.572 0.668048 135.232 -4.30554 120.932 4.08739L15.244 65.014L89.8481 91.4362Z" fill="#EA4335"/>
<path d="M135.854 182.204C146.112 182.204 156.37 176.92 161.965 167.283C170.358 152.984 165.385 134.644 151.085 126.251L45.397 65.325C31.098 56.932 12.757 61.9056 4.364 76.2047C-4.028 90.5038 0.944972 108.844 15.244 117.237L120.933 178.163C125.596 180.961 130.88 182.204 135.854 182.204Z" fill="#4285F4"/>
<path d="M240.921 182.204C245.894 182.204 251.179 180.961 255.841 178.163L361.53 117.237L287.859 90.1926L225.689 125.94C211.39 134.333 206.416 152.674 214.809 166.973C220.405 176.92 230.663 182.204 240.921 182.204Z" fill="#FBBC04"/>
<path d="M346.611 121.278C356.869 121.278 367.127 115.993 372.722 106.357C381.115 92.0577 376.142 73.7176 361.843 65.3246L256.154 4.39816C241.855 -3.99477 223.515 0.978911 215.122 15.2779C206.729 29.577 211.702 47.917 226.001 56.3099L331.69 117.237C336.353 120.034 341.637 121.278 346.611 121.278Z" fill="#34A853"/>
</svg>
