<svg viewBox="0 0 125 109" fill="none" xmlns="http://www.w3.org/2000/svg">
<g clip-path="url(#clip0_630_365)">
<path d="M49.13 40.69V28.63L46.13 25.08V39L36.38 44.92L22.11 37.58V26.62L19.11 23.08V39.41L49.77 55.18V66.37L45.45 64.15V57.03L14.64 41.34V9.54L11.64 5.99V27.09L3 22.69V3.54L0 0V24.53L11.64 30.46V43.18L42.45 58.87V65.98L49.77 69.75V70.95H52.77V53.35L39.51 46.53L49.13 40.69Z" fill="url(#paint0_linear_630_365)"/>
<path d="M75.15 40.69V28.63L78.15 25.08V39L87.89 44.92L102.16 37.58V26.62L105.16 23.08V39.41L74.5 55.18V66.37L78.83 64.15V57.03L109.63 41.34V9.54L112.63 5.99V27.09L121.27 22.69V3.54L124.27 0V24.53L112.63 30.46V43.18L81.83 58.87V65.98L74.5 69.75V70.95H71.5V53.35L84.76 46.53L75.15 40.69Z" fill="url(#paint1_linear_630_365)"/>
<path d="M38.23 73.0901H37.15V73.1101L32.3 77.9701L27.44 73.1101V73.0901H26.36H25.29H24.21V108.36H25.29H26.36H27.44V86.8201L32.3 91.6701V87.1001L27.44 82.2501V77.6901L30.01 80.2501L32.3 82.5401L34.58 80.2501L37.15 77.6901V108.36H38.23H39.31H40.38V73.0901H39.31H38.23Z" fill="url(#paint2_linear_630_365)"/>
<path d="M49.28 77.5V103.97H50.36H51.44H52.52V77.5H51.44H50.36H49.28Z" fill="url(#paint3_linear_630_365)"/>
<path d="M71.72 99.54H69.5V101.01V102.48V103.95H71.1H71.72H72.18H73.26H74.34V101.73H73.26H72.18H71.72V101.01V99.54Z" fill="#8F81B5"/>
<path d="M91.94 99.54H89.73V101.01V102.48V103.95H91.32H91.94H92.4H93.48H94.56V101.73H93.48H92.4H91.94V101.01V99.54Z" fill="#8F81B5"/>
<path d="M58.4501 73.1001H57.3701V73.0901H47.6701H46.5901H45.5101H44.4301V108.36H45.5101H46.5901H47.6701H57.3701H58.4501H59.5301H60.6101V99.5801H59.5301H58.4501H57.3701V105.12H47.6701V76.3201H57.3701V81.8701H58.4501H59.5301H60.6101V73.1001H59.5301H58.4501Z" fill="url(#paint4_linear_630_365)"/>
<path d="M78.67 73.0901H77.59H67.89H66.81H65.73H64.65V89.0001V90.0801V90.7301V91.1501V92.2301H77.59V105.12H67.89V99.5801H66.81H65.73H64.65V108.36H65.73H66.81H67.89H77.59H78.67H79.75H80.83V89.0001H79.75H78.67H77.59H67.89V76.3201H77.59V81.8601H78.67H79.75H80.83V73.0901H79.75H78.67Z" fill="url(#paint5_linear_630_365)"/>
<path d="M98.89 81.8601H99.97H101.05V73.0901H99.97H98.89H97.82H88.11H87.03H85.95H84.87V89.0001V90.0801V90.7301V91.1501V92.2301H97.82V105.12H88.11V99.5801H87.03H85.95H84.87V108.36H85.95H87.03H88.11H97.82H98.89H99.97H101.05V89.0001H99.97H98.89H97.82H88.11V76.3201H97.82V81.8601H98.89Z" fill="url(#paint6_linear_630_365)"/>
</g>
<defs>
<linearGradient id="paint0_linear_630_365" x1="26.38" y1="0" x2="26.38" y2="70.95" gradientUnits="userSpaceOnUse">
<stop stop-color="#876EB1"/>
<stop offset="0.06" stop-color="#8875B5"/>
<stop offset="0.7" stop-color="#97BEE5"/>
<stop offset="1" stop-color="#9DDBF8"/>
</linearGradient>
<linearGradient id="paint1_linear_630_365" x1="97.89" y1="0" x2="97.89" y2="70.95" gradientUnits="userSpaceOnUse">
<stop stop-color="#876EB1"/>
<stop offset="0.06" stop-color="#8875B5"/>
<stop offset="0.7" stop-color="#97BEE5"/>
<stop offset="1" stop-color="#9DDBF8"/>
</linearGradient>
<linearGradient id="paint2_linear_630_365" x1="32.3" y1="108.36" x2="32.3" y2="73.0901" gradientUnits="userSpaceOnUse">
<stop stop-color="#876EB1"/>
<stop offset="0.06" stop-color="#8875B5"/>
<stop offset="0.7" stop-color="#97BEE5"/>
<stop offset="1" stop-color="#9DDBF8"/>
</linearGradient>
<linearGradient id="paint3_linear_630_365" x1="50.9" y1="103.97" x2="50.9" y2="77.49" gradientUnits="userSpaceOnUse">
<stop stop-color="#876EB1"/>
<stop offset="0.06" stop-color="#8875B5"/>
<stop offset="0.7" stop-color="#97BEE5"/>
<stop offset="1" stop-color="#9DDBF8"/>
</linearGradient>
<linearGradient id="paint4_linear_630_365" x1="52.5201" y1="108.36" x2="52.5201" y2="73.0901" gradientUnits="userSpaceOnUse">
<stop stop-color="#876EB1"/>
<stop offset="0.06" stop-color="#8875B5"/>
<stop offset="0.7" stop-color="#97BEE5"/>
<stop offset="1" stop-color="#9DDBF8"/>
</linearGradient>
<linearGradient id="paint5_linear_630_365" x1="72.74" y1="108.36" x2="72.74" y2="73.0901" gradientUnits="userSpaceOnUse">
<stop stop-color="#876EB1"/>
<stop offset="0.06" stop-color="#8875B5"/>
<stop offset="0.7" stop-color="#97BEE5"/>
<stop offset="1" stop-color="#9DDBF8"/>
</linearGradient>
<linearGradient id="paint6_linear_630_365" x1="92.96" y1="108.36" x2="92.96" y2="73.0901" gradientUnits="userSpaceOnUse">
<stop stop-color="#876EB1"/>
<stop offset="0.06" stop-color="#8875B5"/>
<stop offset="0.7" stop-color="#97BEE5"/>
<stop offset="1" stop-color="#9DDBF8"/>
</linearGradient>
<clipPath id="clip0_630_365">
<rect width="124.27" height="108.36" fill="white"/>
</clipPath>
</defs>
</svg>
