<svg viewBox="0 0 1476 226" fill="none" xmlns="http://www.w3.org/2000/svg">
<path d="M1392.8 52.6805L1329.99 213.107C1328.63 217.108 1326.5 220.266 1323.59 222.581C1320.88 224.687 1314.71 225.739 1311.41 225.739C1306.18 225.739 1302.3 224.16 1299.78 221.002C1297.26 217.844 1296 213.95 1296 209.318C1296 207.423 1296.29 205.423 1296.87 203.318L1369.28 14.4686C1370.83 10.2579 1373.16 6.99463 1376.26 4.67875C1379.55 2.36289 1383.04 1.41548 1386.73 1.83655C1390.22 1.83655 1393.42 2.99448 1396.32 5.31036C1399.43 7.41571 1401.65 10.4684 1403.01 14.4686L1474.55 199.528C1475.52 202.265 1476 204.792 1476 207.107C1476 212.792 1474.26 217.318 1470.77 220.687C1467.47 224.055 1463.79 225.739 1459.72 225.739C1456.23 225.739 1451.03 224.581 1448.12 222.266C1445.41 219.95 1443.27 216.792 1441.72 212.792L1379.2 54.5753L1392.8 52.6805ZM1339.01 174.58L1355 138.263L1428.35 138.263L1433.87 174.58H1339.01Z" fill="black"/>
<path d="M1140.91 4.73938H1244.76C1250.13 4.73938 1253.58 6.49604 1257.09 10.0094C1260.81 13.316 1262.67 17.6561 1262.67 23.0294C1262.67 28.1961 1260.81 34.4327 1257.09 37.7394C1253.58 40.8394 1250.13 42.3894 1244.76 42.3894H1157.96L1160.75 37.1194V96.5694L1158.27 94.0894H1230.81C1236.18 94.0894 1240.63 95.8461 1244.14 99.3594C1247.86 102.666 1249.72 109.006 1249.72 114.379C1249.72 119.546 1247.86 124.782 1244.14 128.089C1240.63 131.189 1236.18 132.739 1230.81 132.739H1159.2L1160.75 130.259V187.879L1158.27 185.089H1244.76C1250.13 185.089 1254.58 186.949 1258.09 190.669C1261.81 194.182 1263.67 199.316 1263.67 204.069C1263.67 209.236 1261.81 214.472 1258.09 217.779C1254.58 221.086 1250.13 222.739 1244.76 222.739H1140.91C1135.54 222.739 1130.99 220.982 1127.27 217.469C1123.76 213.749 1122 208.202 1122 202.829V23.6494C1122 18.2761 1123.76 13.8327 1127.27 10.3194C1130.99 6.59938 1135.54 4.73938 1140.91 4.73938Z" fill="black"/>
<path d="M990.42 223.739C984.633 223.739 980.88 221.982 977.16 218.469C973.44 214.749 971.58 210.202 971.58 204.829V25.0294H1010.88V204.829C1010.88 210.202 1008.92 214.749 1004.99 218.469C1001.27 221.982 996.413 223.739 990.42 223.739ZM922.91 43.3894C917.537 43.3894 912.99 41.7361 909.27 38.4294C905.757 35.1227 904 29.7827 904 24.4094C904 19.0361 905.757 11.7994 909.27 8.69939C912.99 5.39271 917.537 3.73938 922.91 3.73938H1059.55C1064.92 3.73938 1069.37 5.39271 1072.88 8.69939C1076.6 12.0061 1078.46 19.3461 1078.46 24.7194C1078.46 30.0927 1076.6 35.4327 1072.88 38.7394C1069.37 41.8394 1064.92 43.3894 1059.55 43.3894H922.91Z" fill="black"/>
<path d="M793.692 222.727C775.991 222.934 760.619 220.457 747.575 215.295C734.532 210.132 722.071 202.39 710.192 192.067C709.028 191.24 707.98 190.208 707.048 188.97C706.349 187.731 706 186.285 706 184.634C706 182.156 707.048 179.885 709.144 177.82C711.474 175.755 714.036 174.723 716.831 174.723C719.626 174.723 722.188 175.755 724.517 177.82C733.6 186.492 743.849 193.099 755.262 197.641C766.907 202.184 779.368 204.455 792.644 204.455C803.824 204.455 813.723 202.906 822.341 199.809C831.191 196.712 838.179 192.273 843.303 186.492C848.428 180.71 850.99 174.001 850.99 166.361C850.99 156.863 848.078 149.224 842.255 143.443C836.432 137.456 828.746 132.603 819.197 128.887C809.647 124.963 799.049 121.454 787.404 118.357C777.854 115.879 768.771 113.092 760.153 109.995C751.535 106.691 743.849 102.769 737.094 98.2258C730.34 93.4771 725.099 87.6958 721.372 80.8823C717.646 74.0688 715.782 65.8099 715.782 56.1059C715.782 45.163 719.043 35.4588 725.565 26.9935C732.087 18.5283 741.287 11.9212 753.165 7.17235C765.277 2.21707 771.5 0.73938 787.753 -1.27243e-05C801.495 -1.27243e-05 814.655 2.06469 827.232 6.19409C840.043 10.3235 850.175 16.4144 857.628 24.4667C861.121 27.7703 862.868 30.7641 862.868 33.4482C862.868 35.5129 861.704 37.5776 859.374 39.6423C857.045 41.7071 854.483 42.7394 851.688 42.7394C849.359 42.7394 847.38 42.0168 845.749 40.5714C841.79 36.2356 836.781 32.4159 830.726 29.1123C824.671 25.6024 817.915 22.9182 810.462 21.06C803.242 19.2017 795.672 18.2726 787.753 18.2726C776.5 18.7394 774.244 19.5606 765.393 22.6576C756.775 25.5482 749.905 29.7809 744.78 35.3556C739.889 40.9303 737.444 47.6406 737.444 55.4864C737.444 64.1582 740.238 71.2814 745.828 76.8561C751.418 82.4308 758.755 87.0764 767.839 90.7929C776.923 94.3029 786.589 97.6064 796.837 100.703C806.852 103.181 816.402 106.071 825.485 109.375C834.802 112.472 842.954 116.396 849.941 121.144C857.162 125.893 862.752 131.881 866.711 139.107C870.904 146.333 873 155.418 873 166.361C873 176.891 869.622 186.389 862.868 194.854C856.114 203.319 846.797 210.03 834.918 214.985C823.273 219.94 809.531 222.521 793.692 222.727Z" fill="black"/>
<path d="M533.04 223.739C529.94 223.739 527.357 222.809 525.29 220.949C523.43 219.089 522.5 216.919 522.5 214.439V14.0394C522.5 11.5594 523.43 9.38938 525.29 7.52938C527.15 5.66938 529.32 4.73938 531.8 4.73938H595.499C607.279 4.73938 617.819 7.32272 627.119 12.4894C636.419 17.4494 643.652 25.3727 648.819 34.2594C654.192 43.1461 656.879 53.1694 656.879 64.3294C656.879 73.4227 655.226 84.7927 651.919 92.4394C648.612 100.086 643.962 106.596 637.969 111.969C631.976 117.136 625.259 120.959 617.819 123.439L606.969 119.029C614.616 119.649 621.746 120.129 628.359 124.469C634.972 128.602 640.242 134.389 644.169 141.829C648.302 149.062 651.919 161.239 652.409 167.239C652.616 176.126 653.029 183.049 653.649 188.009C654.476 192.969 655.552 195.759 656.999 198.239C658.446 200.719 660.726 200.292 662.999 201.739C665.066 202.979 666.879 204.466 667.499 206.739C668.326 209.012 667.739 213.282 666.499 215.349C665.672 217.002 664.432 218.242 662.779 219.069C661.332 219.689 659.782 219.999 658.129 219.999C656.476 219.999 652.152 219.896 650.499 219.069C647.606 217.416 645.599 216.752 642.499 213.239C639.606 209.726 639.066 208.559 636.999 201.739C635.139 194.919 634.81 180.602 633.499 168.479C632.5 159.239 630.426 154.746 627.739 149.579C625.259 144.412 621.952 140.486 617.819 137.799C613.892 134.906 609.449 132.942 604.489 131.909C599.736 130.669 595.189 130.049 590.849 130.049H538.62L543.03 125.709V214.439C543.03 216.919 542.203 219.089 540.55 220.949C538.897 222.809 535.727 223.739 533.04 223.739ZM538.62 111.999H596.429C603.456 111.379 610.069 109.106 616.269 105.179C622.469 101.046 627.429 95.4661 631.149 88.4394C635.076 81.4127 637.039 74.2494 637.039 64.9494C637.039 53.1694 633.009 44.4561 624.949 36.8094C617.096 28.9561 606.762 25.0294 593.949 25.0294H540.86L543.03 20.6894V116.339L538.62 111.999Z" fill="black"/>
<path d="M455.53 214.129C455.323 216.816 454.187 219.089 452.12 220.949C450.26 222.809 448.09 223.739 445.61 223.739C442.717 223.739 440.34 222.809 438.48 220.949C436.827 219.089 436 216.816 436 214.129V14.3494C436 11.6627 436.93 9.38938 438.79 7.52938C440.65 5.66938 443.027 4.73938 445.92 4.73938C448.4 4.73938 450.57 5.66938 452.43 7.52938C454.497 9.38938 455.53 11.6627 455.53 14.3494V214.129Z" fill="black"/>
<path d="M226.06 4.23938C228.54 4.23938 231.71 5.16938 233.57 7.02938C235.637 8.88938 236.67 11.1627 236.67 13.8494V214.129C236.463 216.816 235.327 219.089 233.26 220.949C231.4 222.809 228.23 223.739 225.75 223.739C222.857 223.739 219.48 222.809 217.62 220.949C215.967 219.089 215.14 216.816 215.14 214.129V13.8494C215.14 11.1627 216.07 8.88938 217.93 7.02938C219.79 5.16938 223.167 4.23938 226.06 4.23938ZM352.69 4.2395C355.583 4.2395 358.857 5.1695 360.51 7.02951C362.37 8.88951 363.3 11.1628 363.3 13.8495V214.129C363.093 216.816 362.06 219.089 360.2 220.949C358.547 222.809 355.273 223.739 352.38 223.739C349.693 223.739 346.42 222.809 344.56 220.949C342.7 219.089 341.77 216.816 341.77 214.129V13.8495C341.77 11.1628 342.7 8.88951 344.56 7.02951C346.627 5.1695 350.003 4.2395 352.69 4.2395ZM224.51 103.769L353 103.769L352.69 123.74L223.27 123.739L224.51 103.769Z" fill="black"/>
<path d="M83.08 223.739C79.1867 223.739 76.81 222.809 74.95 220.949C73.2967 219.089 72.47 216.919 72.47 214.439V15.9694H92.69V214.439C92.69 216.919 91.76 219.089 89.9 220.949C88.04 222.809 85.7667 223.739 83.08 223.739ZM9.3 24.4094C6.82 24.4094 4.65 23.5827 2.79 21.9294C0.929999 20.2761 0 17.1061 0 14.4194C0 11.9394 0.929999 7.87272 2.79 6.21938C4.65 4.56605 6.82 3.73938 9.3 3.73938H156.86C159.34 3.73938 161.51 4.56605 163.37 6.21938C165.23 7.87272 166.16 12.0427 166.16 14.7294C166.16 17.4161 165.23 20.5861 163.37 22.2394C161.51 23.6861 159.34 24.4094 156.86 24.4094H9.3Z" fill="black"/>
</svg>
