<svg viewBox="0 0 927 322" fill="none" xmlns="http://www.w3.org/2000/svg">
<g clip-path="url(#clip0_548_332)">
<path d="M53.328 229.809C57.245 240.204 62.668 249.092 69.598 256.473C76.528 263.855 84.738 269.504 94.228 273.421C103.719 277.338 114.038 279.296 125.186 279.296C136.033 279.296 146.201 277.262 155.692 273.194C165.183 269.126 173.468 263.402 180.548 256.021C187.628 248.639 193.127 239.827 197.044 229.583C200.961 219.339 202.919 207.891 202.919 195.236V0H250.372V316.354H203.371V286.978C192.826 298.125 180.397 306.712 166.086 312.739C151.774 318.764 136.334 321.777 119.763 321.777C102.89 321.777 87.148 318.839 72.535 312.964C57.923 307.089 45.268 298.729 34.573 287.882C23.878 277.035 15.441 264.006 9.265 248.79C3.088 233.575 0 216.628 0 197.947V0H47.453V195.236C47.453 207.891 49.411 219.414 53.328 229.809Z" fill="#010202"/>
<path d="M332.168 0V115.243C342.713 104.698 354.916 96.338 368.775 90.161C382.634 83.984 397.699 80.896 413.968 80.896C430.841 80.896 446.657 84.059 461.421 90.386C476.184 96.713 488.988 105.3 499.835 116.147C510.682 126.994 519.269 139.798 525.596 154.561C531.923 169.325 535.086 184.992 535.086 201.563C535.086 218.133 531.923 233.725 525.596 248.337C519.269 262.95 510.682 275.68 499.835 286.525C488.988 297.372 476.184 305.959 461.421 312.286C446.657 318.613 430.84 321.776 413.968 321.776C397.698 321.776 382.559 318.688 368.549 312.511C354.539 306.335 342.261 297.974 331.716 287.429V316.353H286.523V0H332.168ZM337.365 232.746C341.432 242.388 347.082 250.824 354.313 258.055C361.544 265.286 369.98 271.011 379.621 275.229C389.263 279.447 399.657 281.556 410.805 281.556C421.652 281.556 431.895 279.447 441.536 275.229C451.177 271.011 459.537 265.287 466.619 258.055C473.699 250.825 479.348 242.388 483.566 232.746C487.784 223.105 489.893 212.711 489.893 201.563C489.893 190.415 487.784 179.945 483.566 170.153C479.348 160.361 473.699 151.85 466.619 144.619C459.538 137.389 451.178 131.739 441.536 127.672C431.894 123.605 421.651 121.57 410.805 121.57C399.959 121.57 389.715 123.604 380.074 127.672C370.433 131.74 361.997 137.389 354.765 144.619C347.535 151.85 341.81 160.361 337.592 170.153C333.374 179.945 331.265 190.415 331.265 201.563C331.264 212.711 333.298 223.105 337.365 232.746Z" fill="#010202"/>
<path d="M560.842 155.014C566.867 140.552 575.154 127.823 585.698 116.826C596.242 105.829 608.747 97.1671 623.209 90.8401C637.671 84.5131 653.338 81.3501 670.21 81.3501C686.781 81.3501 702.147 84.3631 716.308 90.3881C730.468 96.4141 742.67 104.775 752.914 115.471C763.158 126.166 771.143 138.821 776.866 153.433C782.591 168.046 785.453 183.939 785.453 201.113V216.027H597.901C599.408 225.367 602.421 234.029 606.94 242.012C611.46 249.996 617.108 256.926 623.887 262.801C630.666 268.677 638.349 273.272 646.936 276.585C655.523 279.899 664.636 281.557 674.278 281.557C701.696 281.557 723.841 270.258 740.713 247.661L773.704 272.065C762.255 287.431 748.095 299.483 731.223 308.22C714.35 316.957 695.369 321.326 674.279 321.326C657.105 321.326 641.062 318.312 626.148 312.287C611.234 306.262 598.279 297.825 587.282 286.978C576.285 276.131 567.623 263.402 561.296 248.79C554.969 234.178 551.805 218.284 551.805 201.111C551.803 184.842 554.817 169.476 560.842 155.014ZM624.339 137.162C611.534 147.858 603.023 162.094 598.805 179.87H739.357C735.44 162.094 727.079 147.858 714.274 137.162C701.469 126.467 686.48 121.119 669.307 121.119C652.133 121.119 637.144 126.467 624.339 137.162Z" fill="#010202"/>
<path d="M870.866 142.359C861.225 152.904 856.404 167.215 856.404 185.293V316.355H810.758V85.8681H855.951V114.34C861.676 105 869.133 97.6181 878.322 92.1951C887.511 86.7711 898.433 84.0591 911.088 84.0591H926.905V126.541H907.924C892.86 126.542 880.507 131.814 870.866 142.359Z" fill="#010202"/>
</g>
</svg>
