<svg viewBox="0 0 598 592" fill="none" xmlns="http://www.w3.org/2000/svg">
<path d="M230 22.8676C215.867 29.2676 206.4 48.3343 202.8 77.6676C199.733 102.334 201.733 114.601 209.2 117.001C212.8 118.068 212.933 123.801 209.467 125.534C205.2 127.934 204.533 133.268 205.6 158.201C206.267 176.334 207.067 182.734 208.667 185.134C211.333 189.268 210.133 196.334 205.867 201.268L202.667 205.001L202.933 240.068C203.067 262.068 202.667 275.534 201.733 276.468C201.067 277.134 198.667 277.934 196.667 278.068C190 278.601 187.467 271.668 182.133 239.134C179.467 223.268 176.533 209.268 175.333 207.534C174.267 205.801 171.867 204.068 170 203.534C166.4 202.601 166.4 202.334 164 177.001C163.333 168.868 161.733 156.068 160.4 148.334C158.4 135.668 157.867 133.934 154 130.201C147.467 124.068 147.067 121.134 151.867 115.534C154.133 113.001 156 109.534 156.133 107.934C156.667 94.201 152.933 73.9343 147.333 59.6676C139.467 40.0676 129.867 30.601 113.867 27.001C92.0001 22.0676 77.0668 47.9343 79.0668 87.001C80.0001 105.001 82.1335 117.134 84.9335 121.401C86.0001 123.134 88.9335 125.401 91.3335 126.468C96.9335 128.734 98.4001 133.801 95.2001 140.201C93.0668 144.468 93.2001 145.134 96.6668 158.868C102.133 179.268 107.6 195.134 110.533 198.201C113.867 202.068 116.4 213.001 114.667 216.334C113.6 218.334 114.8 223.668 119.867 239.934C123.6 251.534 127.467 263.668 128.533 266.868C131.333 274.468 131.2 275.401 128.133 273.668C123.733 271.401 115.067 272.201 104.533 275.668C77.2001 284.868 68.1335 293.934 68.0001 311.934C68.0001 318.201 67.4668 320.334 66.1335 320.334C63.0668 320.334 43.8668 333.534 35.6001 341.401C19.8668 356.468 17.2001 369.401 25.3335 391.001C27.6001 397.268 31.6001 409.934 34.0001 419.268C36.4001 428.601 39.6001 437.934 41.0668 439.934C42.5335 442.068 47.4668 452.468 52.0001 463.001C74.6668 516.201 99.7335 551.268 123.333 563.001C132.533 567.534 133.067 567.668 153.333 568.334C166.8 568.734 175.067 569.668 177.067 570.734C180.667 572.868 191.467 571.801 230.933 565.668C258.133 561.401 264 559.268 270.267 551.801C275.333 545.668 303.733 492.334 310.533 476.201C316.533 462.068 317.067 458.468 313.733 454.734C311.733 452.468 311.733 451.668 314.667 443.268C324.933 413.268 324.267 414.734 327.2 415.668C355.6 424.734 382.133 428.068 406.8 425.668C450.933 421.401 488.267 404.468 519.6 374.601C536.133 358.734 547.467 343.401 557.333 323.668C570.8 296.468 575.6 277.534 576.934 247.001C577.867 222.868 575.334 203.668 568.134 181.801C559.067 154.068 545.733 131.934 525.467 110.601C498.533 82.3343 461.333 62.4676 422.667 55.5343C405.867 52.4676 375.6 52.601 358.667 55.5343C334.4 59.9343 306.8 71.001 286.533 84.601L277.733 90.4676L276.933 76.4676C275.6 50.0676 266.933 31.801 252.133 24.0676C243.867 19.6676 237.6 19.401 230 22.8676ZM250 31.5343C256.667 35.5343 261.6 42.3343 265.467 53.001C267.867 59.5343 268.533 64.8676 268.933 82.4676C269.467 97.5343 269.2 104.868 268.133 106.868C265.6 111.401 261.2 112.468 253.867 110.201C246.267 107.934 234.133 107.801 223.867 109.934C218 111.134 215.333 111.134 212.8 109.934C209.467 108.468 209.333 108.068 209.333 95.2676C209.333 71.9343 214.4 50.601 222.8 39.1343C230.667 28.201 239.867 25.6676 250 31.5343ZM119.467 36.8676C131.333 42.3343 139.067 54.4676 144.533 76.3343C149.333 95.401 150.133 105.801 147.067 109.534C144.8 112.201 143.333 112.468 130 112.734C117.067 113.001 114.4 113.534 107.067 116.868C98.1335 120.868 93.0668 120.868 90.8001 116.601C86.9335 109.268 85.3335 72.0676 88.4001 58.8676C91.8668 44.3343 100.667 33.6676 109.2 33.6676C111.067 33.6676 115.733 35.1343 119.467 36.8676ZM253.333 118.334C258.667 121.001 257.467 125.001 251.6 123.801C249.467 123.401 241.467 123.001 233.867 123.001C222.8 123.001 220 122.601 220 121.134C220 119.401 223.333 117.934 231.333 115.801C235.867 114.734 249.2 116.201 253.333 118.334ZM141.067 124.601C141.467 128.068 141.067 128.334 137.067 128.334C133.067 128.468 119.867 130.601 108.267 133.134C104 134.068 103.867 133.934 104.267 130.201C104.667 126.868 105.733 125.934 112 123.401C117.867 121.001 121.467 120.468 130 120.734C140.533 121.001 140.667 121.001 141.067 124.601ZM258 132.201L262 133.134L261.733 147.001C261.467 159.534 259.733 175.801 257.733 183.934C257.067 186.868 256.4 187.001 244.667 187.001C230.533 187.001 218.933 185.134 216.133 182.334C214.8 181.001 213.867 174.601 213.067 158.734C212.4 146.734 212.267 135.668 212.667 133.934C213.333 131.001 213.733 131.001 233.733 131.134C244.8 131.268 255.867 131.668 258 132.201ZM150.533 138.068C152.267 142.601 157.6 181.001 157.067 185.268C156.667 188.468 155.867 189.268 150 190.601C141.467 192.868 122.667 194.334 118.267 193.134C115.2 192.468 114.267 190.601 110.267 177.934C102.133 152.468 100.4 144.334 102.667 143.001C106.533 140.601 133.6 135.401 143.733 135.134C148.533 135.001 149.6 135.534 150.533 138.068ZM288.267 195.534C288.667 215.268 290.133 219.001 297.333 219.001C304.533 219.001 306 215.268 306.4 195.534L306.933 177.668H312.133H317.333V195.268C317.333 215.401 315.867 220.201 308.133 225.268C302.133 229.268 291.867 229.401 285.6 225.668C278.8 221.401 277.333 216.334 277.333 195.668V177.668H282.533H287.733L288.267 195.534ZM361.333 182.334V187.001H354.667H348V207.668V228.334H342.667H337.333V207.668V187.001H330.667H324V182.334V177.668H342.667H361.333V182.334ZM389.2 192.601C391.467 200.868 393.333 208.601 393.467 209.668C393.467 210.734 395.6 204.601 398.133 195.801C400.667 187.134 403.067 179.534 403.467 178.868C403.867 178.201 407.333 177.668 411.333 177.668H418.4L419.2 186.601C419.6 191.668 420.267 203.001 420.8 211.934L421.6 228.334H416.267C409.6 228.334 409.333 227.668 409.333 205.668L409.2 189.001L404.533 204.334C402 212.734 399.6 221.268 399.2 223.268C398.4 226.601 397.733 227.001 393.2 227.001C390.267 227.001 388 226.734 388 226.468C388 226.201 386 218.068 383.467 208.468L379.067 190.868L378 209.668L377.067 228.334H371.733H366.267L367.067 217.268C367.6 211.268 368.267 199.934 368.8 191.934L369.733 177.668H377.333H385.067L389.2 192.601ZM238.133 194.601C252.8 195.401 253.333 195.534 253.333 198.468C253.333 200.201 252.933 201.801 252.4 202.068C251.067 202.734 227.867 200.868 222.533 199.668C219.467 199.001 218.667 198.068 218.667 195.401C218.667 192.868 219.2 192.201 220.8 192.868C222 193.268 229.733 194.068 238.133 194.601ZM158.933 200.868C159.467 203.801 158.933 204.334 154.133 205.534C147.467 207.134 124.133 210.201 123.333 209.534C123.067 209.268 122.533 207.401 122 205.534C121.2 202.068 121.2 202.068 131.6 201.134C137.333 200.601 145.333 199.401 149.333 198.468C157.867 196.468 158.133 196.601 158.933 200.868ZM228.667 208.334C233.867 209.001 242.267 209.668 247.333 209.668C252.533 209.668 257.467 210.201 258.533 210.868C262 213.134 258.133 256.468 253.467 268.734C252.667 270.734 250.4 273.001 248.4 273.801C243.733 275.668 228.267 274.468 219.2 271.801L212.4 269.668L211.467 262.734C210.4 253.134 210.4 207.668 211.6 206.468C212.133 205.934 214.133 205.934 216 206.334C217.867 206.734 223.6 207.534 228.667 208.334ZM169.067 212.601C169.867 213.534 171.733 222.468 173.333 232.334C174.933 242.201 177.067 255.134 178 261.001C179.6 270.734 179.6 271.801 177.6 273.401C173.067 276.868 161.733 279.134 151.067 278.734L140.667 278.334L131.067 249.001C125.733 233.001 121.867 219.268 122.4 218.734C123.067 218.068 128.533 217.001 134.8 216.201C140.933 215.534 149.6 214.068 154 213.134C164.667 210.734 167.467 210.734 169.067 212.601ZM374.667 249.801V260.468L377.6 258.468C381.733 255.534 389.6 255.801 393.6 259.001C398.4 262.734 400.4 268.601 399.733 276.601C399.067 282.468 398.267 284.201 394.133 287.934C388.667 292.868 381.467 293.934 376.267 290.201C373.6 288.334 373.333 288.334 373.333 290.201C373.333 291.801 371.867 292.334 367.867 292.334C363.467 292.334 362.533 291.934 363.2 290.201C363.6 289.001 364 277.001 364 263.534V239.001H369.333H374.667V249.801ZM485.867 242.468C490 246.468 487.6 252.334 481.867 252.334C480.267 252.334 478.267 251.401 477.333 250.334C475.2 247.801 476.667 242.068 479.733 241.268C483.6 240.201 483.733 240.201 485.867 242.468ZM306.667 244.068C314.667 248.068 316.133 260.201 309.333 265.934C306.667 268.068 306.667 268.468 308.667 271.401C309.733 273.134 311.867 278.601 313.2 283.534L315.6 292.334H310C303.867 292.334 302.933 291.001 300.667 281.001C299.467 275.668 296.267 272.334 292.4 272.334C289.467 272.334 289.333 272.734 289.333 282.334V292.334H284H278.667V267.001V241.668H290.4C298.8 241.668 303.333 242.334 306.667 244.068ZM462.667 251.001C462.667 256.068 462.933 256.334 466.667 256.334C470.267 256.334 470.667 256.734 470.667 260.334C470.667 263.934 470.267 264.334 466.667 264.334C462.667 264.334 462.667 264.468 462.667 271.534C462.667 280.868 463.6 283.001 467.467 283.001C470.267 283.001 470.667 283.668 470.667 287.668C470.667 292.334 470.667 292.334 464.667 292.334C460 292.334 457.733 291.534 455.333 289.001C452.4 286.201 452 284.601 452 275.668C452 266.601 451.733 265.401 449.333 264.734C447.467 264.201 446.667 262.868 446.667 260.201C446.667 257.268 447.333 256.334 449.333 256.334C451.467 256.334 452 255.401 452 252.334C452 249.001 452.667 248.201 456.4 247.134C458.667 246.468 461.067 245.801 461.733 245.801C462.267 245.668 462.667 248.068 462.667 251.001ZM348.933 259.001C357.2 263.934 359.867 275.534 354.667 284.068C349.6 292.334 336.267 294.868 327.867 289.268C322.4 285.534 320 281.268 320 274.601C320 263.934 327.733 256.334 338.667 256.334C342.267 256.334 346.4 257.401 348.933 259.001ZM434.267 259.001C442.533 263.934 445.2 275.534 440 284.068C434.933 292.334 421.6 294.868 413.2 289.268C407.733 285.534 405.333 281.268 405.333 274.601C405.333 263.934 413.067 256.334 424 256.334C427.6 256.334 431.733 257.401 434.267 259.001ZM488 274.334V292.334H482.667H477.333V274.334V256.334H482.667H488V274.334ZM523.067 257.401C523.467 257.934 523.467 259.934 523.067 262.068C522.4 265.268 521.733 265.668 516.933 265.668C510.133 265.668 506.667 268.601 506.667 274.468C506.667 280.468 509.6 283.001 516.667 283.001C521.867 283.001 522.4 283.401 523.067 286.601C524 291.268 522.4 292.334 513.867 292.334C498.933 292.334 490.8 280.201 496.533 266.334C499.067 260.334 506.533 256.468 515.6 256.334C519.333 256.334 522.8 256.734 523.067 257.401ZM552.667 257.934C553.067 258.334 553.067 260.201 552.667 261.934C552 264.734 551.067 265.134 546.267 265.134C538.933 265.001 538.4 267.001 544.8 270.201C552.4 273.801 554.667 276.201 554.667 281.001C554.667 287.268 549.733 291.268 541.067 292.068C537.2 292.334 532.4 291.934 530.4 291.134C527.333 289.934 526.933 289.268 527.867 286.068C528.667 283.268 529.6 282.468 531.467 282.868C532.8 283.268 536.133 283.534 538.667 283.534C544.8 283.668 544.933 280.201 538.933 278.468C526.133 274.868 524.4 261.934 536 257.268C538.267 256.334 551.6 256.868 552.667 257.934ZM184 281.401C182.933 281.668 173.467 285.801 162.933 290.601C152.533 295.534 143.733 299.134 143.467 298.868C143.2 298.601 142.667 295.934 142.4 292.868L141.6 287.401L154.533 286.601C163.867 286.201 169.6 285.001 175.333 282.734C179.733 280.868 183.867 279.801 184.667 280.201C185.333 280.468 184.933 281.134 184 281.401ZM126.267 282.334C126.4 283.001 122.133 286.334 116.533 289.534C106.267 295.401 93.2001 306.468 90.2668 311.534C89.4668 313.001 88.4001 317.668 88.0001 321.668C87.2001 328.868 87.2001 329.001 85.3335 325.401C84.4001 323.401 81.8668 321.001 79.7335 320.068C76.2668 318.468 76.0001 317.801 76.0001 311.001C76.0001 298.068 82.4001 291.934 104 284.068C114 280.468 125.333 279.534 126.267 282.334ZM252.933 287.801C252.533 288.201 248.267 287.401 243.2 286.068L234.133 283.668L243.333 282.334C252.533 281.001 252.667 281.001 253.067 284.068C253.333 285.801 253.2 287.534 252.933 287.801ZM216.267 285.668C218 286.334 239.2 293.268 263.333 301.134C287.6 308.868 307.733 315.668 308.4 316.201C308.933 316.734 308.8 318.868 308 321.134L306.667 325.001H292.933C280 325.001 278.8 325.268 269.333 329.801C263.867 332.468 256.533 337.134 253.067 340.201C249.733 343.134 245.733 345.668 244.133 345.668C239.467 345.668 224.267 339.401 216.4 334.068C197.867 321.801 186.933 292.601 198.4 286.334C202.533 284.201 211.733 283.801 216.267 285.668ZM186.267 292.468C185.067 296.868 187.867 309.534 191.733 317.401C196.533 327.268 203.733 335.134 214 341.534C222.933 347.268 240 353.668 245.867 353.668C254.267 353.668 244.533 365.134 233.6 368.334C230.8 369.001 220.267 368.468 201.067 366.201C185.467 364.468 168.8 363.001 164.133 363.001H155.733L156.533 357.134C158 347.534 153.467 326.601 146.133 309.668C145.467 308.068 149.333 305.534 163.467 298.601C183.2 289.001 187.467 287.801 186.267 292.468ZM136 305.934C150.533 336.868 153.067 358.468 143.333 368.868C139.333 373.134 132.667 373.401 124.133 369.534C114.933 365.401 107.733 358.734 99.4668 346.868C92.5335 336.601 92.1335 335.668 94.1335 333.401C95.7335 331.668 96.1335 329.534 95.6001 325.401C94.6668 318.868 96.5335 314.868 102.933 308.868C108.667 303.401 125.333 292.334 127.733 292.334C128.667 292.334 132.4 298.334 136 305.934ZM320.933 328.068L324.933 333.001L319.867 332.601C315.6 332.201 314.267 332.601 311.733 335.668C299.867 349.934 299.6 350.201 294.133 348.334C288 346.334 281.2 347.534 273.6 351.801L267.867 355.134L262.4 350.868L256.933 346.468L260.133 343.934C261.867 342.468 267.2 339.401 272 337.134C279.867 333.401 281.867 333.001 292.667 333.134C299.333 333.268 305.867 333.534 307.2 333.801C309.2 334.201 310.667 332.868 313.067 328.601C314.8 325.534 316.4 323.001 316.533 323.001C316.667 323.001 318.667 325.268 320.933 328.068ZM76.6668 327.534C79.0668 329.268 78.6668 329.934 69.4668 339.801C50.9335 359.668 43.2001 374.734 46.2668 385.268C46.9335 388.068 48.0001 391.268 48.5335 392.601C50.1335 396.068 44.6668 397.001 39.6001 394.068C28.9335 387.801 24.9335 368.068 32.2668 357.001C38.2668 347.801 51.6001 336.468 64.6668 329.668C73.4668 325.001 73.3335 325.134 76.6668 327.534ZM90.1335 357.001C109.067 397.534 106 426.734 83.4668 421.668C76.1335 420.068 67.4668 414.334 60.9335 406.868C55.7335 401.001 55.0668 399.534 56.2668 397.001C57.2001 394.868 56.9335 392.734 55.4668 389.001C50.4001 377.134 55.0668 366.601 75.2001 344.601C80.2668 339.134 80.4001 339.001 82.2668 341.668C83.3335 343.268 86.9335 350.068 90.1335 357.001ZM331.467 343.268L341.467 346.068L340.533 350.201C340.133 352.468 336.4 362.734 332.4 373.001C328.4 383.268 322.133 399.401 318.4 409.001C314.667 418.468 311.2 426.868 310.667 427.401C309.467 428.734 290.667 423.534 288.4 421.268C287.6 420.334 284.267 406.201 281.2 389.801C275.733 361.001 275.6 359.934 278 358.201C282 355.268 289.067 354.468 294.667 356.334C301.067 358.468 303.6 357.001 312.267 347.001C315.467 343.401 318.8 340.334 319.733 340.334C320.8 340.334 326 341.668 331.467 343.268ZM262 360.334L264.933 363.134L258.8 393.134C252.8 422.068 252.4 423.268 248.4 426.334L244.267 429.668L238.4 427.001C230.4 423.401 226 423.668 208.933 429.134C170.8 441.534 141.333 460.868 125.6 483.934C118.667 494.201 116 500.734 116 507.534C116 517.134 121.2 523.134 144.933 541.801C152.4 547.668 159.733 554.201 161.2 556.201L163.867 559.934L153.333 560.734C135.067 562.201 123.333 557.268 107.867 541.534C92.0001 525.401 74.2668 496.068 59.4668 461.268C53.0668 446.068 52.2668 443.001 55.0668 443.001C57.8668 443.001 75.2001 434.334 77.2001 431.934C78.5335 430.201 81.2001 429.668 87.2001 429.668C101.867 429.668 108.8 421.934 110.267 403.934C111.067 394.601 111.2 394.334 118.8 386.601C125.867 379.268 126.8 378.734 130.8 379.534C136.267 380.601 145.2 378.201 148.933 374.734C154.267 369.801 163.333 369.401 193.333 373.001C208.4 374.868 224 376.334 228.133 376.334C238.133 376.334 248.267 371.268 253.733 363.401C256 360.334 258.133 357.668 258.533 357.668C258.8 357.668 260.4 358.868 262 360.334ZM117.067 376.201C117.2 376.734 115.2 379.134 112.667 381.668C109.2 385.134 108 385.668 108 383.934C108 382.601 106.533 377.401 104.8 372.334L101.6 363.134L109.067 369.268C113.2 372.601 116.8 375.801 117.067 376.201ZM276 403.001C278.267 415.001 280.8 425.668 281.6 426.601C282.4 427.534 288.133 429.934 294.533 431.934C300.8 433.801 306.533 435.801 307.067 436.334C308.4 437.534 305.2 449.668 303.6 449.668C301.867 449.668 266.533 431.401 262.933 428.601L259.867 426.201L264.933 401.268C268.133 385.668 270.4 377.134 270.933 378.601C271.467 379.934 273.733 390.868 276 403.001ZM57.0668 413.668C62.0001 418.468 67.4668 423.401 69.2001 424.468C72.5335 426.601 72.5335 426.601 62.8001 431.401C52.1335 436.734 49.2001 437.268 46.8001 434.468C45.4668 432.868 38.6668 407.801 38.6668 404.468C38.6668 403.668 40.6668 403.534 43.4668 403.934C47.0668 404.468 50.4001 407.001 57.0668 413.668ZM233.867 433.134C237.333 434.468 236.4 435.668 228.667 440.868C221.733 445.401 220.8 445.668 210 445.668C197.067 445.668 188.133 448.201 176.267 455.268C166.8 460.868 147.067 479.534 140.667 488.868C136.4 495.134 135.6 497.534 134.933 505.401C134.4 512.868 134.933 515.801 137.2 521.001C138.8 524.468 139.867 527.668 139.6 527.934C139.333 528.201 135.733 524.734 131.6 520.468C124.8 513.401 124 511.934 124 506.868C124 499.401 130 489.001 141.867 476.734C157.467 460.201 179.733 447.001 207.867 437.534C222.8 432.601 229.467 431.401 233.867 433.134ZM263.6 437.934C268.667 441.001 280.667 447.268 290.4 451.934C300 456.601 308 461.134 308 461.801C308 466.601 276 529.801 266.4 544.068C264.267 547.134 260.267 550.868 257.6 552.201C252.533 554.734 222.533 559.934 194.133 563.268L179.6 564.868L172 556.734C160.4 544.068 144.267 520.201 142.8 513.401C140.267 502.201 145.2 492.601 161.6 476.868C179.333 459.801 193.467 453.134 212 453.001C224.667 453.001 227.467 451.801 244 439.134C248.8 435.534 253.067 432.468 253.6 432.468C254.133 432.334 258.667 434.868 263.6 437.934Z" fill="#1D1D1D"/>
<path d="M376 268.2C372.534 274.867 375.467 283 381.2 283C386 283 388.534 279.933 388.534 274.333C388.534 271.933 387.734 269 386.8 267.8C384.267 264.733 377.734 265 376 268.2Z" fill="#1D1D1D"/>
<path d="M290.267 250.467C289.733 251.001 289.333 254.334 289.333 257.934C289.333 264.201 289.467 264.334 293.333 264.334C300.267 264.334 305.467 256.334 300.933 252.467C298.533 250.601 291.6 249.134 290.267 250.467Z" fill="#1D1D1D"/>
<path d="M334.134 267.267C329.867 273.267 332.934 284.334 338.667 284.334C342 284.334 345.334 279.401 345.334 274.334C345.334 269.267 342 264.334 338.667 264.334C337.334 264.334 335.2 265.667 334.134 267.267Z" fill="#1D1D1D"/>
<path d="M419.467 267.267C415.2 273.267 418.267 284.334 424 284.334C427.333 284.334 430.667 279.401 430.667 274.334C430.667 269.267 427.333 264.334 424 264.334C422.667 264.334 420.533 265.667 419.467 267.267Z" fill="#1D1D1D"/>
</svg>
