<svg viewBox="0 0 1963 675" fill="none" xmlns="http://www.w3.org/2000/svg">
<path d="M87.9046 547.161C83.7782 535.266 79.7396 523.752 75.5933 511.932C75.5933 555.459 75.5933 598.503 75.5933 641.778C67.9681 641.778 60.0231 641.778 51.8159 641.778C51.8159 588.502 51.8159 535.244 51.8159 481.269C60.5466 481.269 69.1358 481.269 77.7251 481.269C89.1291 481.269 89.1673 481.256 92.9313 492.087C105.845 529.25 118.729 566.424 131.628 603.592C132.109 604.978 132.627 606.351 133.529 608.832C138.65 594.497 143.378 581.221 148.137 567.955C157.949 540.601 167.853 513.28 177.508 485.871C178.784 482.25 180.485 481.083 184.26 481.177C194.876 481.441 205.503 481.269 216.406 481.269C216.406 535.037 216.406 588.265 216.406 641.75C208.092 641.75 199.839 641.75 191.552 641.75C191.552 598.45 191.552 555.129 191.552 510.974C175.758 555.031 160.213 598.393 144.644 641.823C136.544 641.823 128.58 641.823 120.51 641.823C109.641 610.309 98.8166 578.927 87.9046 547.161Z" fill="#030303"/>
<path d="M483.95 147C483.95 118.955 483.95 91.4107 483.95 64.2461C468.604 107.044 453.062 150.391 437.488 193.824C429.46 193.824 421.656 193.824 413.381 193.824C398.519 150.791 383.602 107.602 368.428 63.6676C368.428 107.528 368.428 150.487 368.428 193.726C360.836 193.726 352.905 193.726 344.642 193.726C344.642 140.52 344.642 87.2842 344.642 33.2689C350.851 33.2689 356.942 33.1891 363.03 33.291C369.309 33.3961 377.188 31.4571 381.41 34.5064C385.644 37.564 386.332 45.6387 388.394 51.5771C400.594 86.7127 412.739 121.867 424.914 157.011C425.227 157.915 425.66 158.776 426.431 160.576C430.476 149.36 434.23 139.004 437.946 128.633C448.756 98.4615 459.611 68.3049 470.276 38.0815C471.595 34.3419 473.376 33.0281 477.416 33.1571C487.876 33.4912 498.355 33.2692 509.147 33.2692C509.147 86.897 509.147 140.139 509.147 193.694C500.983 193.694 492.756 193.694 483.95 193.694C483.95 178.352 483.95 162.926 483.95 147Z" fill="#030303"/>
<path d="M1102.5 537.497C1116.69 560.444 1130.65 583.1 1144.63 605.75C1144.78 605.995 1145.08 606.146 1144.64 605.778C1144.64 585.645 1144.64 564.968 1144.64 544.29C1144.64 523.492 1144.64 502.693 1144.64 481.585C1152.97 481.585 1160.86 481.585 1169.05 481.585C1169.05 535.026 1169.05 588.279 1169.05 642.002C1158.69 642.002 1148.4 642.096 1138.13 641.878C1136.91 641.852 1135.35 640.362 1134.6 639.147C1112.96 604.027 1091.41 568.854 1069.84 533.694C1066.28 527.896 1062.68 522.124 1059.03 516.222C1059.03 558.097 1059.03 599.704 1059.03 641.658C1051.61 641.658 1043.57 641.658 1035.19 641.658C1035.11 639.93 1034.97 638.309 1034.96 636.687C1034.95 586.694 1035.02 536.701 1034.85 486.709C1034.84 482.239 1036.07 480.973 1040.45 481.174C1048.1 481.525 1055.79 481.443 1063.44 481.191C1066.68 481.085 1068.49 482.087 1070.19 484.891C1080.77 502.4 1091.56 519.782 1102.5 537.497Z" fill="#020202"/>
<path d="M251.744 581.326C249.261 561.551 249.617 542.404 256.224 523.794C265.192 498.534 283.313 484.137 309.542 480.192C327.358 477.513 345.03 478.313 361.733 486.158C379.419 494.465 390.424 508.727 395.732 527.045C402.84 551.574 402.932 576.298 394.109 600.548C384.597 626.693 361.928 642.646 334.084 643.998C319.635 644.7 305.505 643.916 292.032 638.313C269.794 629.066 258.421 611.161 253.085 588.609C252.551 586.352 252.257 584.038 251.744 581.326ZM335.513 620.179C352.558 617.649 362.707 607.206 367.878 591.445C373.016 575.787 373.423 559.649 370.78 543.564C366.81 519.392 355.181 504.65 332.395 502.441C309.329 500.204 290.5 508.942 283.055 531.887C277.319 549.565 277.072 567.664 281.36 585.518C288.352 614.629 308.722 623.844 335.513 620.179Z" fill="#030303"/>
<path d="M1627.17 104.259C1628.43 91.6933 1630.55 79.8171 1635.79 68.698C1644.25 50.7569 1658.09 39.0783 1677.21 34.0979C1694.37 29.6261 1711.68 29.5302 1728.83 34.5693C1751.92 41.3558 1766.08 57.2308 1772.63 79.7354C1779.6 103.744 1779.36 127.937 1771.17 151.783C1762.53 176.922 1739.67 194.133 1713.12 195.878C1698.04 196.869 1683.19 196.301 1669.03 190.455C1646.98 181.351 1634.76 163.921 1630.23 141.338C1627.84 129.41 1628.1 116.95 1627.17 104.259ZM1656.07 127.092C1656.38 128.894 1656.65 130.703 1656.99 132.497C1659.17 143.965 1662.95 154.659 1671.91 162.776C1681.58 171.542 1693.32 173.578 1705.81 173C1722.94 172.207 1735.91 164.648 1742.58 148.558C1750.45 129.535 1750.73 109.766 1746.26 89.847C1741.71 69.6366 1730.41 56.3695 1708.75 54.3792C1685.99 52.2887 1666.97 60.7759 1659.49 84.7091C1655.25 98.2699 1654.73 112.157 1656.07 127.092Z" fill="#030303"/>
<path d="M465 481.27C481.132 481.293 496.777 480.975 512.114 484.936C540.132 492.171 558.842 513.111 563.179 541.761C566.28 562.242 565.318 582.251 556.699 601.335C548.049 620.487 532.742 632.378 512.795 637.455C501.652 640.292 489.893 641.256 478.35 641.831C463.894 642.55 449.374 642.004 434.237 642.004C434.149 640.13 433.994 638.386 433.994 636.641C433.981 586.655 434.045 536.669 433.878 486.683C433.863 482.175 435.169 480.998 439.511 481.173C447.829 481.507 456.169 481.27 465 481.27ZM517.825 513.584C500.479 501.666 480.867 504.286 461.669 503.98C461.669 542.864 461.669 580.906 461.669 619.869C473.682 619.109 485.441 619.341 496.842 617.43C516.835 614.081 529.974 601.946 533.922 581.934C535.987 571.468 536.37 560.421 535.757 549.737C534.955 535.771 529.95 523.123 517.825 513.584Z" fill="#030303"/>
<path d="M1247.39 486.335C1266.16 478.928 1285.22 477.309 1304.59 480.688C1314.49 482.414 1324.18 485.342 1334.9 487.957C1331.37 496.337 1328.32 503.569 1325.14 511.115C1319.57 509.219 1314.36 507.151 1308.99 505.679C1295.15 501.884 1281.16 500.676 1267.21 505.035C1250.34 510.304 1239.57 521.935 1234.38 538.513C1228.96 555.844 1229.53 573.392 1235.38 590.493C1242.1 610.105 1256.09 619.146 1274.71 620.863C1286.12 621.915 1297.62 621.329 1308.8 617.883C1308.8 604.619 1308.8 591.505 1308.8 578.022C1297.71 578.022 1286.78 578.022 1275.39 578.022C1275.39 570.143 1275.39 562.616 1275.39 554.803C1295.19 554.803 1314.96 554.803 1335.12 554.803C1335.12 581.576 1335.12 608.315 1335.12 636.132C1326.03 638.164 1316.63 640.763 1307.06 642.297C1290.74 644.913 1274.31 645.568 1257.96 642.127C1232.36 636.74 1215.62 621.231 1207.91 596.577C1201.43 575.892 1200.88 554.74 1206.65 533.653C1212.69 511.596 1226.1 495.809 1247.39 486.335Z" fill="#020202"/>
<path d="M1810.78 169.999C1810.78 124.373 1810.78 79.2457 1810.78 34.3971C1811.38 33.9099 1811.64 33.5251 1811.89 33.5249C1835.15 33.5043 1858.54 31.5329 1881.59 35.9642C1898.58 39.2323 1912.02 47.9763 1915.82 65.9443C1920.99 90.3778 1915.54 109.872 1889.15 122.011C1888.57 122.279 1888.03 122.651 1886.91 123.305C1901.91 146.711 1916.82 169.963 1932.23 193.998C1922.04 193.998 1912.64 194.125 1903.26 193.853C1901.96 193.815 1900.33 192.042 1899.5 190.679C1888.08 171.94 1876.69 153.179 1865.51 134.294C1863.7 131.239 1861.91 129.773 1858.2 129.971C1851.74 130.316 1845.24 130.067 1838.24 130.067C1838.24 151.296 1838.24 172.35 1838.24 193.7C1828.99 193.7 1820.24 193.7 1810.78 193.7C1810.78 186.001 1810.78 178.25 1810.78 169.999ZM1874.49 58.9183C1862.66 55.2197 1850.54 56.506 1838.33 56.324C1838.33 73.5558 1838.33 90.2929 1838.33 108.185C1849.51 107.393 1860.53 107.425 1871.25 105.633C1882.72 103.715 1888.85 95.4661 1889.95 83.4714C1891.03 71.6559 1886.4 63.9476 1874.49 58.9183Z" fill="#020202"/>
<path d="M177.857 34.4808C177.975 69.4299 178.136 103.927 177.947 138.422C177.766 171.618 154.793 194.673 121.614 195.998C108.853 196.507 96.3247 196.227 84.3092 191.512C64.6362 183.792 54.1943 168.778 51.1317 148.325C50.3233 142.926 50.2138 137.386 50.199 131.91C50.1154 101.08 50.1587 70.2498 50.1587 39.4196C50.1587 37.6166 50.1587 35.8136 50.1587 33.6426C59.2482 33.6426 67.9717 33.6426 77.2559 33.6426C77.2559 35.6396 77.2558 37.4263 77.2559 39.2129C77.2567 70.7097 77.1352 102.207 77.3672 133.702C77.4107 139.614 78.1186 145.74 79.8167 151.376C84.2109 165.961 94.3296 171.328 108.988 172.899C113.415 173.374 118.024 173.249 122.433 172.601C142.548 169.647 150.397 156.775 150.762 137.602C151.384 104.95 150.938 72.2784 150.941 39.6151C150.941 37.794 150.941 35.973 150.941 34.0281C160.071 34.0281 168.909 34.0281 177.857 34.4808Z" fill="#020202"/>
<path d="M659 546.812C667.978 546.812 676.456 546.812 685.285 546.812C685.285 554.534 685.285 561.903 685.285 569.638C665.449 569.638 645.856 569.638 625.864 569.638C625.864 586.196 625.864 602.397 625.864 618.977C646.842 618.977 667.944 618.977 689.452 618.977C689.452 626.709 689.452 634.078 689.452 641.732C659.277 641.732 629.053 641.732 598.168 641.732C598.168 639.887 598.168 638.11 598.168 636.333C598.168 586.533 598.235 536.733 598.059 486.933C598.043 482.24 599.4 481.128 603.933 481.163C630.747 481.371 657.564 481.262 684.379 481.275C686.009 481.276 687.638 481.411 689.555 481.497C689.555 489.075 689.555 496.326 689.555 504.24C668.431 504.24 647.249 504.24 625.768 504.24C625.768 518.645 625.768 532.394 625.768 546.812C636.677 546.812 647.589 546.812 659 546.812Z" fill="#040404"/>
<path d="M1196.38 354.324C1208.93 323.167 1221.37 292.382 1233.6 261.514C1234.94 258.135 1236.66 257.138 1240.16 257.179C1252.89 257.327 1252.89 257.199 1252.89 269.959C1252.89 317.11 1252.89 364.261 1252.89 411.413C1252.89 413.386 1252.89 415.359 1252.89 417.669C1248.8 417.669 1245.1 417.669 1241.16 417.669C1241.16 369.848 1241.16 322.099 1241.16 274.35C1240.9 274.262 1240.63 274.173 1240.36 274.085C1221.19 322.029 1202.02 369.973 1182.91 417.767C1173.27 418.41 1173.22 418.43 1169.82 409.888C1152.49 366.384 1135.19 322.869 1117.87 279.359C1117.22 277.705 1116.51 276.071 1115.29 273.145C1115.29 322.126 1115.29 369.74 1115.29 417.681C1111.54 417.681 1107.98 417.681 1104.05 417.681C1104.05 364.562 1104.05 311.357 1104.05 257.332C1109.4 257.332 1114.82 257.144 1120.2 257.497C1121.23 257.564 1122.46 259.626 1123.01 261.002C1140.42 304.651 1157.75 348.329 1175.11 391.998C1176.02 394.278 1177.03 396.516 1178.33 399.561C1184.5 384.068 1190.36 369.37 1196.38 354.324Z" fill="#050505"/>
<path d="M1550 105.661C1567.62 105.661 1584.73 105.661 1602.04 105.661C1602.04 113.353 1602.04 120.595 1602.04 128.196C1582.02 128.196 1562.26 128.196 1542.18 128.196C1542.18 150.146 1542.18 171.74 1542.18 193.67C1533.17 193.67 1524.47 193.67 1515.42 193.67C1515.34 191.967 1515.18 190.343 1515.18 188.72C1515.17 138.743 1515.23 88.7655 1515.08 38.7889C1515.06 34.4578 1516.08 33.1247 1520.58 33.1609C1547.57 33.3775 1574.56 33.2651 1601.55 33.2767C1603.02 33.2774 1604.49 33.4022 1606.33 33.4861C1606.33 41.0947 1606.33 48.4609 1606.33 56.2401C1584.92 56.2401 1563.66 56.2401 1542.21 56.2401C1542.21 72.764 1542.21 88.881 1542.21 105.661C1544.67 105.661 1547.09 105.661 1550 105.661Z" fill="#030303"/>
<path d="M280 33.2656C293.778 33.2656 307.056 33.2656 320.582 33.2656C320.582 41.2274 320.582 48.6295 320.582 56.5091C305.177 56.5091 289.928 56.5091 274.173 56.5091C274.173 102.507 274.173 148.033 274.173 193.782C264.927 193.782 256.191 193.782 247.143 193.782C247.143 148.221 247.143 102.824 247.143 56.8411C231.483 56.8411 216.114 56.8411 200.374 56.8411C200.374 48.8755 200.374 41.4835 200.374 33.2656C226.693 33.2656 253.096 33.2656 280 33.2656Z" fill="#040404"/>
<path d="M750.423 534.001C750.423 562.468 750.423 590.436 750.423 618.841C772.91 618.841 795.146 618.841 817.757 618.841C817.757 626.646 817.757 634.029 817.757 641.712C786.493 641.712 755.122 641.712 723.119 641.712C723.119 639.832 723.119 638.053 723.119 636.274C723.119 586.481 723.189 536.688 723.005 486.896C722.987 482.124 724.456 480.951 728.93 481.177C735.873 481.528 742.847 481.27 750.423 481.27C750.423 498.961 750.423 516.231 750.423 534.001Z" fill="#030303"/>
<path d="M872.219 593.001C872.219 601.802 872.219 610.104 872.219 619.116C883.643 619.116 894.734 619.116 905.824 619.116C916.977 619.116 928.13 619.116 939.631 619.116C939.631 626.612 939.631 634.006 939.631 641.704C908.377 641.704 876.985 641.704 845.238 641.704C845.238 588.472 845.238 535.253 845.238 481.654C854.031 481.654 862.763 481.654 872.219 481.654C872.219 518.672 872.219 555.587 872.219 593.001Z" fill="#020202"/>
<path d="M460.513 371.458C454.638 350.487 454.044 329.689 459.201 308.986C467.935 273.914 492.34 255.194 528.491 255.011C548.287 254.911 565.904 260.236 579.798 275.09C589.915 285.907 595.181 299.155 597.732 313.403C601.445 334.14 600.891 354.777 594.059 374.954C584.908 401.982 563.388 418.218 534.928 419.993C518.466 421.019 502.78 418.975 488.497 410.086C474.051 401.098 465.554 387.778 460.513 371.458ZM586.942 331.578C585.948 324.032 585.661 316.308 583.818 308.975C579.544 291.971 570.808 278.005 553.952 270.707C541.81 265.449 529.085 264.976 516.218 267.078C497.766 270.091 484.28 280.107 476.68 297.124C466.043 320.942 466.184 345.547 473.409 370.211C477.695 384.845 486.36 396.323 500.139 403.498C511.513 409.42 523.837 410.052 536.165 408.995C552.803 407.568 566.394 400.239 575.437 385.752C585.625 369.431 587.625 351.267 586.942 331.578Z" fill="#060606"/>
<path d="M768.671 35.6892C788.309 28.9481 807.681 28.9262 826.574 36.3001C845.9 43.8425 857.519 58.9882 863.143 78.4773C870.129 102.688 870.288 127.106 862.094 151.134C851.164 183.183 825.257 197.06 793.938 196.334C774.021 195.872 756.316 189.918 742.937 174.325C732.659 162.346 727.519 148.032 725.423 132.636C722.649 112.257 723.46 92.0937 731.363 72.7777C738.484 55.372 750.326 42.4821 768.671 35.6892ZM794.77 41.9511C793.279 42.1086 791.791 42.3045 790.297 42.4179C766.105 44.2547 750.24 57.0549 742.121 79.5643C735.94 96.7014 735.576 114.439 738.238 132.259C740.417 146.848 745.392 160.296 756.253 170.862C768.598 182.871 783.866 185.748 800.434 185.235C824.205 184.5 842.693 170.825 850.156 148.284C855.442 132.32 856.216 115.949 854.736 99.4835C853.676 87.6972 850.619 76.2753 844.215 66.0193C832.974 48.0165 815.879 41.8703 794.77 41.9511Z" fill="#060606"/>
<path d="M294.253 346.972C293.174 331.917 294.434 317.595 299.792 303.879C310.471 276.539 330.721 260.736 359.443 256.234C381.207 252.824 402.461 255.479 423.246 264.68C422.458 266.589 421.756 268.375 420.985 270.131C420.264 271.777 419.47 273.391 418.58 275.29C412.755 273.3 407.233 271.102 401.539 269.527C385.854 265.19 369.925 264.249 354.15 268.566C332.908 274.38 318.299 288.095 311.253 308.827C304.139 329.757 304.584 351.066 312.078 371.932C319.234 391.855 334.149 403.298 354.402 407.356C372.918 411.066 391.463 410.093 409.635 404.365C411.984 403.625 413.302 402.899 413.282 400.081C413.162 382.928 413.222 365.774 413.222 348.128C397.453 348.128 381.876 348.128 365.876 348.128C365.876 344.245 365.876 340.844 365.876 337.071C385.314 337.071 404.897 337.071 424.966 337.071C425.056 338.331 425.247 339.756 425.248 341.182C425.267 362.845 425.171 384.508 425.349 406.169C425.379 409.8 424.236 411.298 420.798 412.435C395.323 420.858 369.568 423.526 343.421 416.183C319.576 409.486 305.009 393.233 298.202 369.913C296.084 362.656 295.528 354.943 294.253 346.972Z" fill="#070707"/>
<path d="M690.293 354.678C688.497 349.814 685.444 348.466 680.578 348.662C669.812 349.095 659.016 348.797 647.852 348.797C647.852 371.924 647.852 394.664 647.852 417.706C643.728 417.706 639.975 417.706 635.871 417.706C635.871 364.558 635.871 311.356 635.877 258.149C636.13 257.937 636.377 257.548 636.624 257.548C658.868 257.521 681.226 255.439 703.202 260.678C720.618 264.829 730.158 275.306 732.234 293.109C734.065 308.808 731.817 323.692 718.788 334.396C713.122 339.051 706.134 342.096 699.131 346.235C713.12 369.474 727.464 393.3 742.329 417.992C737.452 417.992 733.25 418.188 729.089 417.858C728.017 417.774 726.806 416.2 726.114 415.039C714.198 395.05 702.353 375.019 690.293 354.678ZM715.04 281.596C711.566 276.574 706.573 273.814 700.923 271.928C683.605 266.148 665.786 268.923 648.087 268.185C648.087 291.622 648.087 314.497 648.087 337.369C661.182 337.369 674.002 337.959 686.726 337.112C692.786 336.709 699.213 334.532 704.521 331.493C720.37 322.419 725.14 299.556 715.04 281.596Z" fill="#060606"/>
<path d="M1047.31 309.999C1047.31 292.361 1047.31 275.222 1047.31 257.248C1050.6 257.248 1053.57 256.936 1056.43 257.396C1057.62 257.589 1058.66 259.34 1059.57 260.533C1059.89 260.956 1059.62 261.828 1059.62 262.494C1059.62 312.661 1059.62 362.827 1059.62 412.993C1059.62 414.465 1059.62 415.937 1059.62 417.714C1055.47 417.714 1051.71 417.714 1047.4 417.714C1047.4 391.725 1047.4 365.649 1047.4 339.376C1016.4 339.376 985.955 339.376 954.992 339.376C954.992 365.329 954.992 391.381 954.992 417.726C950.734 417.726 946.976 417.726 942.875 417.726C942.875 364.531 942.875 311.3 942.875 257.656C946.656 257.656 950.367 257.656 954.555 257.656C954.555 280.969 954.555 304.206 954.555 327.757C985.582 327.757 1016.15 327.757 1047.31 327.757C1047.31 322.026 1047.31 316.262 1047.31 309.999Z" fill="#0B0B0B"/>
<path d="M134.184 334.689C144.801 362.475 155.308 389.885 165.97 417.7C161.535 417.7 157.482 417.7 153.094 417.7C146.476 400.562 139.669 383.282 133.202 365.875C131.994 362.621 130.538 361.7 127.183 361.729C107.859 361.902 88.5319 361.932 69.2094 361.707C65.6551 361.665 64.3551 362.993 63.1982 366.016C56.5567 383.367 49.7208 400.643 42.9768 417.879C38.7896 417.879 34.9765 417.879 30.4331 417.879C51.4985 364.096 72.4223 310.676 93.39 257.143C97.0953 257.143 100.734 257.143 104.663 257.143C114.468 282.868 124.271 308.591 134.184 334.689ZM82.5447 316.017C78.1613 327.394 73.7778 338.771 69.232 350.57C88.976 350.57 107.872 350.57 127.487 350.57C117.867 324.323 108.384 298.451 98.8533 272.448C93.406 287.015 88.1189 301.154 82.5447 316.017Z" fill="#060606"/>
<path d="M1111.2 77.9996C1111.2 86.8036 1111.2 95.1077 1111.2 103.795C1135.05 103.795 1158.64 103.795 1182.65 103.795C1182.65 107.558 1182.65 110.952 1182.65 114.9C1159.23 114.9 1135.51 114.9 1111.5 114.9C1111.5 137.823 1111.5 160.21 1111.5 183.097C1136.73 183.097 1161.79 183.097 1187.11 183.097C1187.11 186.867 1187.11 190.143 1187.11 193.717C1157.97 193.717 1128.89 193.717 1099.46 193.717C1099.46 140.559 1099.46 87.3222 1099.46 33.6719C1128.46 33.6719 1157.54 33.6719 1186.99 33.6719C1186.99 36.9591 1186.99 40.3539 1186.99 44.2025C1161.89 44.2025 1136.8 44.2025 1111.2 44.2025C1111.2 55.5937 1111.2 66.5467 1111.2 77.9996Z" fill="#060606"/>
<path d="M994.043 549C994.043 580.131 994.043 610.761 994.043 641.696C984.878 641.696 976.135 641.696 967.057 641.696C967.057 588.498 967.057 535.275 967.057 481.662C975.798 481.662 984.514 481.662 994.043 481.662C994.043 504.011 994.043 526.255 994.043 549Z" fill="#020202"/>
<path d="M683.59 138.656C678.04 130.235 669.621 126.523 661.15 123.007C648.583 117.792 635.619 113.432 623.383 107.545C606.474 99.4093 600.255 84.8904 602.312 66.6765C604.14 50.4972 613.962 40.4848 628.674 35.3054C651.331 27.3292 673.424 31.0827 695.67 39.6505C694.218 43.3472 692.914 46.6686 691.796 49.5163C682.335 47.2669 673.431 44.5994 664.333 43.1342C654.269 41.5134 644.024 41.524 634.23 45.1211C623.937 48.9009 616.291 55.31 614.72 66.9122C613.062 79.1435 616.15 89.7623 627.399 96.0654C635.168 100.419 643.687 103.44 651.902 106.987C661.187 110.995 670.762 114.424 679.754 119.003C694.188 126.354 700.113 138.811 699.34 154.796C698.549 171.177 690.519 182.718 676.019 189.82C664.861 195.286 652.78 197.197 640.577 196.218C628.886 195.279 617.313 192.889 605.678 191.214C601.06 190.549 599.011 188.242 599.87 183.46C600.183 181.716 599.921 179.869 599.921 177.135C602.896 178.091 605.173 178.827 607.451 179.554C624.007 184.839 640.88 186.835 658.141 184.163C661.239 183.683 664.332 182.773 667.258 181.629C685.14 174.636 692.19 156.338 683.59 138.656Z" fill="#070707"/>
<path d="M1385.54 276.446C1366.7 289.731 1359.4 308.69 1357.97 330.298C1356.85 347.055 1358.58 363.581 1366.29 378.901C1376.02 398.219 1392.23 407.753 1413.43 409.062C1428.99 410.023 1444.27 408.088 1460 402.592C1460 406.106 1460.2 409.016 1459.88 411.866C1459.77 412.795 1458.42 414.022 1457.4 414.344C1435.71 421.175 1413.84 423.017 1391.76 416.265C1374.15 410.878 1361.35 399.433 1354.21 382.806C1341.79 353.863 1340.64 324.217 1354.05 295.292C1364.89 271.922 1384.26 259.346 1409.73 255.966C1428.49 253.476 1446.38 256.394 1464.24 264.027C1462.66 267.603 1461.21 270.862 1459.62 274.461C1434.65 264.467 1409.98 261.631 1385.54 276.446Z" fill="#070707"/>
<path d="M1001.24 181.429C1004.15 180.529 1006.68 179.81 1010.17 178.819C1010.17 182.089 1010.37 184.988 1010.06 187.828C1009.95 188.763 1008.65 190.011 1007.64 190.333C986.137 197.194 964.395 198.984 942.496 192.453C924.523 187.093 911.424 175.436 904.27 158.399C891.872 128.87 890.867 98.7584 905.17 69.5583C916.049 47.3501 934.981 35.426 959.384 32.0301C978.296 29.3984 996.367 32.3212 1014.43 39.996C1012.89 43.5123 1011.46 46.773 1009.78 50.5919C1007.68 49.7668 1005.75 49.0117 1003.82 48.2437C987.402 41.7137 970.442 40.2075 953.418 44.5903C932.843 49.8874 919.231 63.5087 912.763 83.5074C904.897 107.829 905.706 132.124 916.932 155.357C926.267 174.677 942.769 183.699 963.721 185.08C976.256 185.906 988.643 184.526 1001.24 181.429Z" fill="#060606"/>
<path d="M1319.04 33.8057C1322.32 33.627 1325.68 32.9793 1328.87 33.4654C1330.48 33.7122 1332.27 35.7432 1333.17 37.4059C1347.15 63.2897 1360.99 89.2461 1374.87 115.182C1375.57 116.491 1376.35 117.762 1377.37 119.547C1378.24 118.232 1378.98 117.294 1379.54 116.257C1393.12 90.9002 1406.87 65.6292 1420.1 40.0891C1422.88 34.7126 1425.96 32.1228 1431.92 33.2306C1433.34 33.4943 1434.82 33.3973 1437.11 33.5059C1435.44 36.7662 1434.09 39.51 1432.63 42.1961C1417.03 70.9834 1401.38 99.7416 1385.88 128.581C1384.69 130.793 1384.01 133.557 1383.98 136.073C1383.82 153.566 1383.9 171.061 1383.9 188.556C1383.9 190.187 1383.9 191.818 1383.9 193.729C1379.79 193.729 1376.06 193.729 1371.81 193.729C1371.81 189.708 1371.81 185.761 1371.81 181.815C1371.81 175.817 1371.82 169.818 1371.81 163.82C1371.8 153.824 1373.6 143.375 1371.25 133.959C1368.91 124.578 1362.48 116.2 1357.73 107.441C1344.9 83.7736 1332.01 60.1375 1319.11 35.8819C1319.05 34.7851 1319.05 34.2954 1319.04 33.8057Z" fill="#060606"/>
<path d="M1318.56 33.9055C1319.05 34.2946 1319.05 34.7843 1319.07 35.5189C1318.46 36.5556 1317.46 37.2872 1317.33 38.1515C1317.06 39.9336 1317.25 41.7864 1317.25 44.0369C1300.18 44.0369 1283.27 44.0369 1265.79 44.0369C1265.79 94.1663 1265.79 143.873 1265.79 193.801C1261.46 193.801 1257.68 193.801 1253.34 193.801C1253.34 144.048 1253.34 94.338 1253.34 44.3745C1235.99 44.3745 1219.21 44.3745 1202.1 44.3745C1202.1 40.7325 1202.1 37.338 1202.1 33.2381C1203.83 33.2381 1205.58 33.2381 1207.33 33.2381C1242.14 33.2381 1276.95 33.2248 1311.77 33.271C1313.87 33.2737 1315.97 33.7501 1318.56 33.9055Z" fill="#0C0C0C"/>
<path d="M869.878 268.286C868.878 269.972 867.97 271.654 867.968 273.337C867.891 319.498 867.906 365.659 867.906 411.82C867.906 413.641 867.906 415.462 867.906 417.646C863.866 417.646 859.978 417.646 855.638 417.646C855.638 368.073 855.638 318.478 855.638 268.428C838.283 268.428 821.363 268.428 804.188 268.428C804.188 264.574 804.188 261.176 804.188 257.518C842.483 257.518 880.59 257.518 919.113 257.518C919.113 260.899 919.113 264.289 919.113 268.282C902.954 268.282 886.673 268.282 869.878 268.286Z" fill="#060606"/>
<path d="M187.525 294C187.525 281.699 187.525 269.899 187.525 257.682C191.626 257.682 195.331 257.682 199.588 257.682C199.588 307.28 199.588 356.809 199.588 406.891C225.178 406.891 250.236 406.891 275.589 406.891C275.589 410.694 275.589 413.967 275.589 417.626C246.613 417.626 217.396 417.626 187.525 417.626C187.525 376.668 187.525 335.584 187.525 294Z" fill="#060606"/>
<path d="M780.88 338C780.88 364.777 780.88 391.055 780.88 417.671C776.824 417.671 772.954 417.671 768.914 417.671C768.914 364.362 768.914 311.165 768.914 257.615C772.86 257.615 776.576 257.615 780.88 257.615C780.88 284.377 780.88 310.939 780.88 338Z" fill="#050505"/>
<path d="M1042.79 191.821C1042.78 138.875 1042.78 86.4121 1042.78 33.6094C1046.97 33.6094 1050.7 33.6094 1054.69 33.6094C1054.69 87.0682 1054.69 140.301 1054.69 194.734C1050.53 193.886 1046.67 193.095 1042.79 191.821Z" fill="#030303"/>
<path d="M1309.08 292C1309.08 333.802 1309.07 375.104 1309.06 416.405C1309.06 416.724 1308.94 417.042 1308.82 417.682C1305.15 417.682 1301.42 417.682 1297.34 417.682C1297.34 364.517 1297.34 311.311 1297.34 257.688C1301.02 257.688 1304.73 257.688 1309.08 257.688C1309.08 268.979 1309.08 280.239 1309.08 292Z" fill="#030303"/>
</svg>